M48
; DRILL file {KiCad (5.1.10-1-10_14)} date Friday, November 12, 2021 at 02:33:11 PM
; FORMAT={-:-/ absolute / metric / decimal}
; #@! TF.CreationDate,2021-11-12T14:33:11-05:00
; #@! TF.GenerationSoftware,Kicad,Pcbnew,(5.1.10-1-10_14)
; #@! TF.FileFunction,Plated,1,2,PTH
FMAT,2
METRIC
T1C0.600
T2C0.700
T3C0.750
T4C0.800
T5C0.900
T6C1.000
T7C1.300
T8C1.600
%
G90
G05
T1
X85.495Y-146.685
X86.995Y-146.685
T2
X102.91Y-93.98
X105.41Y-93.98
X133.604Y-108.752
X133.604Y-111.252
T3
X97.155Y-99.06
X97.155Y-100.33
X97.155Y-101.6
X100.965Y-137.16
X100.965Y-138.43
X100.965Y-139.7
T4
X63.627Y-74.295
X63.627Y-81.915
X70.485Y-73.66
X70.485Y-81.28
X72.39Y-88.9
X72.39Y-94.615
X72.39Y-100.33
X76.708Y-65.024
X79.208Y-65.024
X79.375Y-73.025
X79.375Y-80.645
X80.01Y-88.9
X80.01Y-94.615
X80.01Y-100.33
X85.09Y-111.506
X85.09Y-116.506
X85.725Y-139.065
X86.868Y-74.2
X86.868Y-76.2
X89.916Y-84.836
X89.916Y-92.456
X91.44Y-146.685
X91.44Y-153.67
X93.345Y-139.065
X96.52Y-197.612
X96.52Y-205.232
X97.155Y-86.36
X97.155Y-93.98
X97.155Y-106.045
X97.155Y-113.665
X99.06Y-146.685
X99.06Y-153.67
X100.965Y-175.26
X100.965Y-182.88
X101.092Y-124.968
X101.092Y-132.588
X103.505Y-175.26
X103.505Y-182.88
X104.14Y-198.2
X104.14Y-203.2
X106.045Y-175.26
X106.045Y-182.88
X108.585Y-175.26
X108.585Y-182.88
X109.22Y-135.716
X109.22Y-140.716
X111.125Y-175.26
X111.125Y-182.88
X112.268Y-75.184
X112.268Y-82.804
X112.268Y-103.124
X112.268Y-110.744
X112.268Y-116.332
X112.268Y-121.332
X112.395Y-188.595
X113.284Y-159.592
X113.284Y-164.592
X113.665Y-175.26
X113.665Y-182.88
X114.895Y-188.595
X116.205Y-175.26
X116.205Y-182.88
X117.348Y-73.152
X117.348Y-80.264
X117.856Y-102.108
X117.856Y-108.712
X117.983Y-87.884
X117.983Y-90.424
X117.983Y-92.964
X117.983Y-95.504
X118.364Y-195.072
X118.364Y-202.692
X118.444Y-66.04
X123.444Y-66.04
X124.968Y-73.152
X124.968Y-80.264
X125.476Y-102.108
X125.476Y-108.712
X125.603Y-87.884
X125.603Y-90.424
X125.603Y-92.964
X125.603Y-95.504
X126.365Y-180.34
X126.365Y-182.84
X126.365Y-189.23
X126.365Y-191.73
X126.924Y-69.672
X129.54Y-80.264
X130.556Y-98.044
X130.556Y-100.544
X130.556Y-198.12
X130.556Y-200.62
X130.683Y-87.884
X130.683Y-90.384
X133.604Y-115.824
X133.604Y-123.444
X134.112Y-96.012
X134.112Y-103.632
X134.54Y-80.264
X134.544Y-69.672
T5
X55.245Y-75.565
X55.245Y-78.105
T7
X55.88Y-157.48
X55.88Y-162.48
X55.88Y-167.48
X55.88Y-180.848
X55.88Y-185.848
X55.88Y-190.848
X55.88Y-204.724
X55.88Y-209.724
X55.88Y-214.724
X129.54Y-211.408
X129.54Y-216.408
T8
X56.163Y-106.277
X56.163Y-122.577
X56.163Y-130.915
X56.163Y-147.215
X68.763Y-106.277
X68.763Y-122.577
X68.763Y-130.915
X68.763Y-147.215
X70.358Y-59.182
X78.74Y-58.42
X82.55Y-121.92
X86.868Y-131.572
X93.472Y-74.676
X103.632Y-73.152
X107.696Y-217.424
X108.204Y-111.76
X110.744Y-205.74
X125.984Y-152.4
X128.27Y-115.57
T2
X57.166Y-94.927G85X57.166Y-95.827
G05
X61.716Y-90.377G85X62.616Y-90.377
G05
X61.716Y-97.877G85X62.616Y-97.877
G05
X61.716Y-100.377G85X62.616Y-100.377
G05
T6
X60.548Y-65.77G85X60.548Y-63.77
G05
X64.548Y-69.47G85X62.548Y-69.47
G05
X66.548Y-66.02G85X66.548Y-63.52
G05
T0
M30
