%FSLAX45Y45*%
G04 Gerber Fmt 4.5, Leading zero omitted, Abs format (unit mm)*
G04 Created by KiCad (PCBNEW (5.1.10-1-10_14)) date 2021-11-12 14:33:32*
%MOMM*%
%LPD*%
G01*
G04 APERTURE LIST*
%TA.AperFunction,Profile*%
%ADD10C,0.050000*%
%TD*%
%ADD11C,0.200000*%
%ADD12C,0.300000*%
G04 APERTURE END LIST*
D10*
X5207000Y-22225000D02*
X14097000Y-22225000D01*
X5207000Y-5588000D02*
X14097000Y-5588000D01*
X14097000Y-22225000D02*
X14097000Y-5588000D01*
X5207000Y-5588000D02*
X5207000Y-22225000D01*
D11*
X5406600Y-8977700D02*
X5526600Y-9097700D01*
X5526600Y-8977700D02*
X5406600Y-9097700D01*
X5406600Y-9977700D02*
X5526600Y-10097700D01*
X5526600Y-9977700D02*
X5406600Y-10097700D01*
X5656600Y-8977700D02*
X5776600Y-9097700D01*
X5776600Y-8977700D02*
X5656600Y-9097700D01*
X5656600Y-9977700D02*
X5776600Y-10097700D01*
X5776600Y-9977700D02*
X5656600Y-10097700D01*
X6156600Y-9477700D02*
X6276600Y-9597700D01*
X6276600Y-9477700D02*
X6156600Y-9597700D01*
X7272000Y-21844000D02*
G75*
G03*
X7272000Y-21844000I-160000J0D01*
G01*
X9100800Y-5892800D02*
G75*
G03*
X9100800Y-5892800I-160000J0D01*
G01*
X9113500Y-17018000D02*
G75*
G03*
X9113500Y-17018000I-160000J0D01*
G01*
X11844000Y-21844000D02*
G75*
G03*
X11844000Y-21844000I-160000J0D01*
G01*
X12237700Y-13144500D02*
G75*
G03*
X12237700Y-13144500I-160000J0D01*
G01*
X13977600Y-5892800D02*
G75*
G03*
X13977600Y-5892800I-160000J0D01*
G01*
D12*
X5490928Y-22693214D02*
X5490928Y-22393214D01*
X5562357Y-22393214D01*
X5605214Y-22407500D01*
X5633786Y-22436071D01*
X5648071Y-22464643D01*
X5662357Y-22521786D01*
X5662357Y-22564643D01*
X5648071Y-22621786D01*
X5633786Y-22650357D01*
X5605214Y-22678929D01*
X5562357Y-22693214D01*
X5490928Y-22693214D01*
X5790928Y-22693214D02*
X5790928Y-22493214D01*
X5790928Y-22550357D02*
X5805214Y-22521786D01*
X5819500Y-22507500D01*
X5848071Y-22493214D01*
X5876643Y-22493214D01*
X5976643Y-22693214D02*
X5976643Y-22493214D01*
X5976643Y-22393214D02*
X5962357Y-22407500D01*
X5976643Y-22421786D01*
X5990928Y-22407500D01*
X5976643Y-22393214D01*
X5976643Y-22421786D01*
X6162357Y-22693214D02*
X6133786Y-22678929D01*
X6119500Y-22650357D01*
X6119500Y-22393214D01*
X6319500Y-22693214D02*
X6290928Y-22678929D01*
X6276643Y-22650357D01*
X6276643Y-22393214D01*
X6662357Y-22693214D02*
X6662357Y-22393214D01*
X6762357Y-22607500D01*
X6862357Y-22393214D01*
X6862357Y-22693214D01*
X7133786Y-22693214D02*
X7133786Y-22536071D01*
X7119500Y-22507500D01*
X7090928Y-22493214D01*
X7033786Y-22493214D01*
X7005214Y-22507500D01*
X7133786Y-22678929D02*
X7105214Y-22693214D01*
X7033786Y-22693214D01*
X7005214Y-22678929D01*
X6990928Y-22650357D01*
X6990928Y-22621786D01*
X7005214Y-22593214D01*
X7033786Y-22578929D01*
X7105214Y-22578929D01*
X7133786Y-22564643D01*
X7276643Y-22493214D02*
X7276643Y-22793214D01*
X7276643Y-22507500D02*
X7305214Y-22493214D01*
X7362357Y-22493214D01*
X7390928Y-22507500D01*
X7405214Y-22521786D01*
X7419500Y-22550357D01*
X7419500Y-22636071D01*
X7405214Y-22664643D01*
X7390928Y-22678929D01*
X7362357Y-22693214D01*
X7305214Y-22693214D01*
X7276643Y-22678929D01*
X7548071Y-22664643D02*
X7562357Y-22678929D01*
X7548071Y-22693214D01*
X7533786Y-22678929D01*
X7548071Y-22664643D01*
X7548071Y-22693214D01*
X7548071Y-22507500D02*
X7562357Y-22521786D01*
X7548071Y-22536071D01*
X7533786Y-22521786D01*
X7548071Y-22507500D01*
X7548071Y-22536071D01*
X5084500Y-23127500D02*
X5204500Y-23247500D01*
X5204500Y-23127500D02*
X5084500Y-23247500D01*
X5648071Y-23323214D02*
X5476643Y-23323214D01*
X5562357Y-23323214D02*
X5562357Y-23023214D01*
X5533786Y-23066071D01*
X5505214Y-23094643D01*
X5476643Y-23108929D01*
X5776643Y-23294643D02*
X5790928Y-23308929D01*
X5776643Y-23323214D01*
X5762357Y-23308929D01*
X5776643Y-23294643D01*
X5776643Y-23323214D01*
X5905214Y-23051786D02*
X5919500Y-23037500D01*
X5948071Y-23023214D01*
X6019500Y-23023214D01*
X6048071Y-23037500D01*
X6062357Y-23051786D01*
X6076643Y-23080357D01*
X6076643Y-23108929D01*
X6062357Y-23151786D01*
X5890928Y-23323214D01*
X6076643Y-23323214D01*
X6262357Y-23023214D02*
X6290928Y-23023214D01*
X6319500Y-23037500D01*
X6333786Y-23051786D01*
X6348071Y-23080357D01*
X6362357Y-23137500D01*
X6362357Y-23208929D01*
X6348071Y-23266071D01*
X6333786Y-23294643D01*
X6319500Y-23308929D01*
X6290928Y-23323214D01*
X6262357Y-23323214D01*
X6233786Y-23308929D01*
X6219500Y-23294643D01*
X6205214Y-23266071D01*
X6190928Y-23208929D01*
X6190928Y-23137500D01*
X6205214Y-23080357D01*
X6219500Y-23051786D01*
X6233786Y-23037500D01*
X6262357Y-23023214D01*
X6548071Y-23023214D02*
X6576643Y-23023214D01*
X6605214Y-23037500D01*
X6619500Y-23051786D01*
X6633786Y-23080357D01*
X6648071Y-23137500D01*
X6648071Y-23208929D01*
X6633786Y-23266071D01*
X6619500Y-23294643D01*
X6605214Y-23308929D01*
X6576643Y-23323214D01*
X6548071Y-23323214D01*
X6519500Y-23308929D01*
X6505214Y-23294643D01*
X6490928Y-23266071D01*
X6476643Y-23208929D01*
X6476643Y-23137500D01*
X6490928Y-23080357D01*
X6505214Y-23051786D01*
X6519500Y-23037500D01*
X6548071Y-23023214D01*
X6776643Y-23323214D02*
X6776643Y-23123214D01*
X6776643Y-23151786D02*
X6790928Y-23137500D01*
X6819500Y-23123214D01*
X6862357Y-23123214D01*
X6890928Y-23137500D01*
X6905214Y-23166071D01*
X6905214Y-23323214D01*
X6905214Y-23166071D02*
X6919500Y-23137500D01*
X6948071Y-23123214D01*
X6990928Y-23123214D01*
X7019500Y-23137500D01*
X7033786Y-23166071D01*
X7033786Y-23323214D01*
X7176643Y-23323214D02*
X7176643Y-23123214D01*
X7176643Y-23151786D02*
X7190928Y-23137500D01*
X7219500Y-23123214D01*
X7262357Y-23123214D01*
X7290928Y-23137500D01*
X7305214Y-23166071D01*
X7305214Y-23323214D01*
X7305214Y-23166071D02*
X7319500Y-23137500D01*
X7348071Y-23123214D01*
X7390928Y-23123214D01*
X7419500Y-23137500D01*
X7433786Y-23166071D01*
X7433786Y-23323214D01*
X8019500Y-23008929D02*
X7762357Y-23394643D01*
X8405214Y-23023214D02*
X8433786Y-23023214D01*
X8462357Y-23037500D01*
X8476643Y-23051786D01*
X8490928Y-23080357D01*
X8505214Y-23137500D01*
X8505214Y-23208929D01*
X8490928Y-23266071D01*
X8476643Y-23294643D01*
X8462357Y-23308929D01*
X8433786Y-23323214D01*
X8405214Y-23323214D01*
X8376643Y-23308929D01*
X8362357Y-23294643D01*
X8348071Y-23266071D01*
X8333786Y-23208929D01*
X8333786Y-23137500D01*
X8348071Y-23080357D01*
X8362357Y-23051786D01*
X8376643Y-23037500D01*
X8405214Y-23023214D01*
X8633786Y-23294643D02*
X8648071Y-23308929D01*
X8633786Y-23323214D01*
X8619500Y-23308929D01*
X8633786Y-23294643D01*
X8633786Y-23323214D01*
X8833786Y-23023214D02*
X8862357Y-23023214D01*
X8890928Y-23037500D01*
X8905214Y-23051786D01*
X8919500Y-23080357D01*
X8933786Y-23137500D01*
X8933786Y-23208929D01*
X8919500Y-23266071D01*
X8905214Y-23294643D01*
X8890928Y-23308929D01*
X8862357Y-23323214D01*
X8833786Y-23323214D01*
X8805214Y-23308929D01*
X8790928Y-23294643D01*
X8776643Y-23266071D01*
X8762357Y-23208929D01*
X8762357Y-23137500D01*
X8776643Y-23080357D01*
X8790928Y-23051786D01*
X8805214Y-23037500D01*
X8833786Y-23023214D01*
X9190928Y-23123214D02*
X9190928Y-23323214D01*
X9119500Y-23008929D02*
X9048071Y-23223214D01*
X9233786Y-23223214D01*
X9319500Y-23023214D02*
X9519500Y-23023214D01*
X9390928Y-23323214D01*
X9619500Y-23051786D02*
X9633786Y-23037500D01*
X9662357Y-23023214D01*
X9733786Y-23023214D01*
X9762357Y-23037500D01*
X9776643Y-23051786D01*
X9790928Y-23080357D01*
X9790928Y-23108929D01*
X9776643Y-23151786D01*
X9605214Y-23323214D01*
X9790928Y-23323214D01*
X9905214Y-23023214D02*
X9905214Y-23080357D01*
X10019500Y-23023214D02*
X10019500Y-23080357D01*
X10462357Y-23437500D02*
X10448071Y-23423214D01*
X10419500Y-23380357D01*
X10405214Y-23351786D01*
X10390928Y-23308929D01*
X10376643Y-23237500D01*
X10376643Y-23180357D01*
X10390928Y-23108929D01*
X10405214Y-23066071D01*
X10419500Y-23037500D01*
X10448071Y-22994643D01*
X10462357Y-22980357D01*
X10719500Y-23023214D02*
X10576643Y-23023214D01*
X10562357Y-23166071D01*
X10576643Y-23151786D01*
X10605214Y-23137500D01*
X10676643Y-23137500D01*
X10705214Y-23151786D01*
X10719500Y-23166071D01*
X10733786Y-23194643D01*
X10733786Y-23266071D01*
X10719500Y-23294643D01*
X10705214Y-23308929D01*
X10676643Y-23323214D01*
X10605214Y-23323214D01*
X10576643Y-23308929D01*
X10562357Y-23294643D01*
X11090928Y-23323214D02*
X11090928Y-23023214D01*
X11219500Y-23323214D02*
X11219500Y-23166071D01*
X11205214Y-23137500D01*
X11176643Y-23123214D01*
X11133786Y-23123214D01*
X11105214Y-23137500D01*
X11090928Y-23151786D01*
X11405214Y-23323214D02*
X11376643Y-23308929D01*
X11362357Y-23294643D01*
X11348071Y-23266071D01*
X11348071Y-23180357D01*
X11362357Y-23151786D01*
X11376643Y-23137500D01*
X11405214Y-23123214D01*
X11448071Y-23123214D01*
X11476643Y-23137500D01*
X11490928Y-23151786D01*
X11505214Y-23180357D01*
X11505214Y-23266071D01*
X11490928Y-23294643D01*
X11476643Y-23308929D01*
X11448071Y-23323214D01*
X11405214Y-23323214D01*
X11676643Y-23323214D02*
X11648071Y-23308929D01*
X11633786Y-23280357D01*
X11633786Y-23023214D01*
X11905214Y-23308929D02*
X11876643Y-23323214D01*
X11819500Y-23323214D01*
X11790928Y-23308929D01*
X11776643Y-23280357D01*
X11776643Y-23166071D01*
X11790928Y-23137500D01*
X11819500Y-23123214D01*
X11876643Y-23123214D01*
X11905214Y-23137500D01*
X11919500Y-23166071D01*
X11919500Y-23194643D01*
X11776643Y-23223214D01*
X12033786Y-23308929D02*
X12062357Y-23323214D01*
X12119500Y-23323214D01*
X12148071Y-23308929D01*
X12162357Y-23280357D01*
X12162357Y-23266071D01*
X12148071Y-23237500D01*
X12119500Y-23223214D01*
X12076643Y-23223214D01*
X12048071Y-23208929D01*
X12033786Y-23180357D01*
X12033786Y-23166071D01*
X12048071Y-23137500D01*
X12076643Y-23123214D01*
X12119500Y-23123214D01*
X12148071Y-23137500D01*
X12262357Y-23437500D02*
X12276643Y-23423214D01*
X12305214Y-23380357D01*
X12319500Y-23351786D01*
X12333786Y-23308929D01*
X12348071Y-23237500D01*
X12348071Y-23180357D01*
X12333786Y-23108929D01*
X12319500Y-23066071D01*
X12305214Y-23037500D01*
X12276643Y-22994643D01*
X12262357Y-22980357D01*
X12805214Y-23437500D02*
X12790928Y-23423214D01*
X12762357Y-23380357D01*
X12748071Y-23351786D01*
X12733786Y-23308929D01*
X12719500Y-23237500D01*
X12719500Y-23180357D01*
X12733786Y-23108929D01*
X12748071Y-23066071D01*
X12762357Y-23037500D01*
X12790928Y-22994643D01*
X12805214Y-22980357D01*
X12919500Y-23123214D02*
X12919500Y-23323214D01*
X12919500Y-23151786D02*
X12933786Y-23137500D01*
X12962357Y-23123214D01*
X13005214Y-23123214D01*
X13033786Y-23137500D01*
X13048071Y-23166071D01*
X13048071Y-23323214D01*
X13233786Y-23323214D02*
X13205214Y-23308929D01*
X13190928Y-23294643D01*
X13176643Y-23266071D01*
X13176643Y-23180357D01*
X13190928Y-23151786D01*
X13205214Y-23137500D01*
X13233786Y-23123214D01*
X13276643Y-23123214D01*
X13305214Y-23137500D01*
X13319500Y-23151786D01*
X13333786Y-23180357D01*
X13333786Y-23266071D01*
X13319500Y-23294643D01*
X13305214Y-23308929D01*
X13276643Y-23323214D01*
X13233786Y-23323214D01*
X13419500Y-23123214D02*
X13533786Y-23123214D01*
X13462357Y-23023214D02*
X13462357Y-23280357D01*
X13476643Y-23308929D01*
X13505214Y-23323214D01*
X13533786Y-23323214D01*
X13862357Y-23123214D02*
X13862357Y-23423214D01*
X13862357Y-23137500D02*
X13890928Y-23123214D01*
X13948071Y-23123214D01*
X13976643Y-23137500D01*
X13990928Y-23151786D01*
X14005214Y-23180357D01*
X14005214Y-23266071D01*
X13990928Y-23294643D01*
X13976643Y-23308929D01*
X13948071Y-23323214D01*
X13890928Y-23323214D01*
X13862357Y-23308929D01*
X14176643Y-23323214D02*
X14148071Y-23308929D01*
X14133786Y-23280357D01*
X14133786Y-23023214D01*
X14419500Y-23323214D02*
X14419500Y-23166071D01*
X14405214Y-23137500D01*
X14376643Y-23123214D01*
X14319500Y-23123214D01*
X14290928Y-23137500D01*
X14419500Y-23308929D02*
X14390928Y-23323214D01*
X14319500Y-23323214D01*
X14290928Y-23308929D01*
X14276643Y-23280357D01*
X14276643Y-23251786D01*
X14290928Y-23223214D01*
X14319500Y-23208929D01*
X14390928Y-23208929D01*
X14419500Y-23194643D01*
X14519500Y-23123214D02*
X14633786Y-23123214D01*
X14562357Y-23023214D02*
X14562357Y-23280357D01*
X14576643Y-23308929D01*
X14605214Y-23323214D01*
X14633786Y-23323214D01*
X14848071Y-23308929D02*
X14819500Y-23323214D01*
X14762357Y-23323214D01*
X14733786Y-23308929D01*
X14719500Y-23280357D01*
X14719500Y-23166071D01*
X14733786Y-23137500D01*
X14762357Y-23123214D01*
X14819500Y-23123214D01*
X14848071Y-23137500D01*
X14862357Y-23166071D01*
X14862357Y-23194643D01*
X14719500Y-23223214D01*
X15119500Y-23323214D02*
X15119500Y-23023214D01*
X15119500Y-23308929D02*
X15090928Y-23323214D01*
X15033786Y-23323214D01*
X15005214Y-23308929D01*
X14990928Y-23294643D01*
X14976643Y-23266071D01*
X14976643Y-23180357D01*
X14990928Y-23151786D01*
X15005214Y-23137500D01*
X15033786Y-23123214D01*
X15090928Y-23123214D01*
X15119500Y-23137500D01*
X15233786Y-23437500D02*
X15248071Y-23423214D01*
X15276643Y-23380357D01*
X15290928Y-23351786D01*
X15305214Y-23308929D01*
X15319500Y-23237500D01*
X15319500Y-23180357D01*
X15305214Y-23108929D01*
X15290928Y-23066071D01*
X15276643Y-23037500D01*
X15248071Y-22994643D01*
X15233786Y-22980357D01*
X5204500Y-23583500D02*
G75*
G03*
X5204500Y-23583500I-160000J0D01*
G01*
X5462357Y-23419214D02*
X5648071Y-23419214D01*
X5548071Y-23533500D01*
X5590928Y-23533500D01*
X5619500Y-23547786D01*
X5633786Y-23562071D01*
X5648071Y-23590643D01*
X5648071Y-23662071D01*
X5633786Y-23690643D01*
X5619500Y-23704929D01*
X5590928Y-23719214D01*
X5505214Y-23719214D01*
X5476643Y-23704929D01*
X5462357Y-23690643D01*
X5776643Y-23690643D02*
X5790928Y-23704929D01*
X5776643Y-23719214D01*
X5762357Y-23704929D01*
X5776643Y-23690643D01*
X5776643Y-23719214D01*
X5905214Y-23447786D02*
X5919500Y-23433500D01*
X5948071Y-23419214D01*
X6019500Y-23419214D01*
X6048071Y-23433500D01*
X6062357Y-23447786D01*
X6076643Y-23476357D01*
X6076643Y-23504929D01*
X6062357Y-23547786D01*
X5890928Y-23719214D01*
X6076643Y-23719214D01*
X6262357Y-23419214D02*
X6290928Y-23419214D01*
X6319500Y-23433500D01*
X6333786Y-23447786D01*
X6348071Y-23476357D01*
X6362357Y-23533500D01*
X6362357Y-23604929D01*
X6348071Y-23662071D01*
X6333786Y-23690643D01*
X6319500Y-23704929D01*
X6290928Y-23719214D01*
X6262357Y-23719214D01*
X6233786Y-23704929D01*
X6219500Y-23690643D01*
X6205214Y-23662071D01*
X6190928Y-23604929D01*
X6190928Y-23533500D01*
X6205214Y-23476357D01*
X6219500Y-23447786D01*
X6233786Y-23433500D01*
X6262357Y-23419214D01*
X6548071Y-23419214D02*
X6576643Y-23419214D01*
X6605214Y-23433500D01*
X6619500Y-23447786D01*
X6633786Y-23476357D01*
X6648071Y-23533500D01*
X6648071Y-23604929D01*
X6633786Y-23662071D01*
X6619500Y-23690643D01*
X6605214Y-23704929D01*
X6576643Y-23719214D01*
X6548071Y-23719214D01*
X6519500Y-23704929D01*
X6505214Y-23690643D01*
X6490928Y-23662071D01*
X6476643Y-23604929D01*
X6476643Y-23533500D01*
X6490928Y-23476357D01*
X6505214Y-23447786D01*
X6519500Y-23433500D01*
X6548071Y-23419214D01*
X6776643Y-23719214D02*
X6776643Y-23519214D01*
X6776643Y-23547786D02*
X6790928Y-23533500D01*
X6819500Y-23519214D01*
X6862357Y-23519214D01*
X6890928Y-23533500D01*
X6905214Y-23562071D01*
X6905214Y-23719214D01*
X6905214Y-23562071D02*
X6919500Y-23533500D01*
X6948071Y-23519214D01*
X6990928Y-23519214D01*
X7019500Y-23533500D01*
X7033786Y-23562071D01*
X7033786Y-23719214D01*
X7176643Y-23719214D02*
X7176643Y-23519214D01*
X7176643Y-23547786D02*
X7190928Y-23533500D01*
X7219500Y-23519214D01*
X7262357Y-23519214D01*
X7290928Y-23533500D01*
X7305214Y-23562071D01*
X7305214Y-23719214D01*
X7305214Y-23562071D02*
X7319500Y-23533500D01*
X7348071Y-23519214D01*
X7390928Y-23519214D01*
X7419500Y-23533500D01*
X7433786Y-23562071D01*
X7433786Y-23719214D01*
X8019500Y-23404929D02*
X7762357Y-23790643D01*
X8405214Y-23419214D02*
X8433786Y-23419214D01*
X8462357Y-23433500D01*
X8476643Y-23447786D01*
X8490928Y-23476357D01*
X8505214Y-23533500D01*
X8505214Y-23604929D01*
X8490928Y-23662071D01*
X8476643Y-23690643D01*
X8462357Y-23704929D01*
X8433786Y-23719214D01*
X8405214Y-23719214D01*
X8376643Y-23704929D01*
X8362357Y-23690643D01*
X8348071Y-23662071D01*
X8333786Y-23604929D01*
X8333786Y-23533500D01*
X8348071Y-23476357D01*
X8362357Y-23447786D01*
X8376643Y-23433500D01*
X8405214Y-23419214D01*
X8633786Y-23690643D02*
X8648071Y-23704929D01*
X8633786Y-23719214D01*
X8619500Y-23704929D01*
X8633786Y-23690643D01*
X8633786Y-23719214D01*
X8933786Y-23719214D02*
X8762357Y-23719214D01*
X8848071Y-23719214D02*
X8848071Y-23419214D01*
X8819500Y-23462071D01*
X8790928Y-23490643D01*
X8762357Y-23504929D01*
X9048071Y-23447786D02*
X9062357Y-23433500D01*
X9090928Y-23419214D01*
X9162357Y-23419214D01*
X9190928Y-23433500D01*
X9205214Y-23447786D01*
X9219500Y-23476357D01*
X9219500Y-23504929D01*
X9205214Y-23547786D01*
X9033786Y-23719214D01*
X9219500Y-23719214D01*
X9476643Y-23419214D02*
X9419500Y-23419214D01*
X9390928Y-23433500D01*
X9376643Y-23447786D01*
X9348071Y-23490643D01*
X9333786Y-23547786D01*
X9333786Y-23662071D01*
X9348071Y-23690643D01*
X9362357Y-23704929D01*
X9390928Y-23719214D01*
X9448071Y-23719214D01*
X9476643Y-23704929D01*
X9490928Y-23690643D01*
X9505214Y-23662071D01*
X9505214Y-23590643D01*
X9490928Y-23562071D01*
X9476643Y-23547786D01*
X9448071Y-23533500D01*
X9390928Y-23533500D01*
X9362357Y-23547786D01*
X9348071Y-23562071D01*
X9333786Y-23590643D01*
X9690928Y-23419214D02*
X9719500Y-23419214D01*
X9748071Y-23433500D01*
X9762357Y-23447786D01*
X9776643Y-23476357D01*
X9790928Y-23533500D01*
X9790928Y-23604929D01*
X9776643Y-23662071D01*
X9762357Y-23690643D01*
X9748071Y-23704929D01*
X9719500Y-23719214D01*
X9690928Y-23719214D01*
X9662357Y-23704929D01*
X9648071Y-23690643D01*
X9633786Y-23662071D01*
X9619500Y-23604929D01*
X9619500Y-23533500D01*
X9633786Y-23476357D01*
X9648071Y-23447786D01*
X9662357Y-23433500D01*
X9690928Y-23419214D01*
X9905214Y-23419214D02*
X9905214Y-23476357D01*
X10019500Y-23419214D02*
X10019500Y-23476357D01*
X10462357Y-23833500D02*
X10448071Y-23819214D01*
X10419500Y-23776357D01*
X10405214Y-23747786D01*
X10390928Y-23704929D01*
X10376643Y-23633500D01*
X10376643Y-23576357D01*
X10390928Y-23504929D01*
X10405214Y-23462071D01*
X10419500Y-23433500D01*
X10448071Y-23390643D01*
X10462357Y-23376357D01*
X10705214Y-23419214D02*
X10648071Y-23419214D01*
X10619500Y-23433500D01*
X10605214Y-23447786D01*
X10576643Y-23490643D01*
X10562357Y-23547786D01*
X10562357Y-23662071D01*
X10576643Y-23690643D01*
X10590928Y-23704929D01*
X10619500Y-23719214D01*
X10676643Y-23719214D01*
X10705214Y-23704929D01*
X10719500Y-23690643D01*
X10733786Y-23662071D01*
X10733786Y-23590643D01*
X10719500Y-23562071D01*
X10705214Y-23547786D01*
X10676643Y-23533500D01*
X10619500Y-23533500D01*
X10590928Y-23547786D01*
X10576643Y-23562071D01*
X10562357Y-23590643D01*
X11090928Y-23719214D02*
X11090928Y-23419214D01*
X11219500Y-23719214D02*
X11219500Y-23562071D01*
X11205214Y-23533500D01*
X11176643Y-23519214D01*
X11133786Y-23519214D01*
X11105214Y-23533500D01*
X11090928Y-23547786D01*
X11405214Y-23719214D02*
X11376643Y-23704929D01*
X11362357Y-23690643D01*
X11348071Y-23662071D01*
X11348071Y-23576357D01*
X11362357Y-23547786D01*
X11376643Y-23533500D01*
X11405214Y-23519214D01*
X11448071Y-23519214D01*
X11476643Y-23533500D01*
X11490928Y-23547786D01*
X11505214Y-23576357D01*
X11505214Y-23662071D01*
X11490928Y-23690643D01*
X11476643Y-23704929D01*
X11448071Y-23719214D01*
X11405214Y-23719214D01*
X11676643Y-23719214D02*
X11648071Y-23704929D01*
X11633786Y-23676357D01*
X11633786Y-23419214D01*
X11905214Y-23704929D02*
X11876643Y-23719214D01*
X11819500Y-23719214D01*
X11790928Y-23704929D01*
X11776643Y-23676357D01*
X11776643Y-23562071D01*
X11790928Y-23533500D01*
X11819500Y-23519214D01*
X11876643Y-23519214D01*
X11905214Y-23533500D01*
X11919500Y-23562071D01*
X11919500Y-23590643D01*
X11776643Y-23619214D01*
X12033786Y-23704929D02*
X12062357Y-23719214D01*
X12119500Y-23719214D01*
X12148071Y-23704929D01*
X12162357Y-23676357D01*
X12162357Y-23662071D01*
X12148071Y-23633500D01*
X12119500Y-23619214D01*
X12076643Y-23619214D01*
X12048071Y-23604929D01*
X12033786Y-23576357D01*
X12033786Y-23562071D01*
X12048071Y-23533500D01*
X12076643Y-23519214D01*
X12119500Y-23519214D01*
X12148071Y-23533500D01*
X12262357Y-23833500D02*
X12276643Y-23819214D01*
X12305214Y-23776357D01*
X12319500Y-23747786D01*
X12333786Y-23704929D01*
X12348071Y-23633500D01*
X12348071Y-23576357D01*
X12333786Y-23504929D01*
X12319500Y-23462071D01*
X12305214Y-23433500D01*
X12276643Y-23390643D01*
X12262357Y-23376357D01*
X12805214Y-23833500D02*
X12790928Y-23819214D01*
X12762357Y-23776357D01*
X12748071Y-23747786D01*
X12733786Y-23704929D01*
X12719500Y-23633500D01*
X12719500Y-23576357D01*
X12733786Y-23504929D01*
X12748071Y-23462071D01*
X12762357Y-23433500D01*
X12790928Y-23390643D01*
X12805214Y-23376357D01*
X12919500Y-23519214D02*
X12919500Y-23719214D01*
X12919500Y-23547786D02*
X12933786Y-23533500D01*
X12962357Y-23519214D01*
X13005214Y-23519214D01*
X13033786Y-23533500D01*
X13048071Y-23562071D01*
X13048071Y-23719214D01*
X13233786Y-23719214D02*
X13205214Y-23704929D01*
X13190928Y-23690643D01*
X13176643Y-23662071D01*
X13176643Y-23576357D01*
X13190928Y-23547786D01*
X13205214Y-23533500D01*
X13233786Y-23519214D01*
X13276643Y-23519214D01*
X13305214Y-23533500D01*
X13319500Y-23547786D01*
X13333786Y-23576357D01*
X13333786Y-23662071D01*
X13319500Y-23690643D01*
X13305214Y-23704929D01*
X13276643Y-23719214D01*
X13233786Y-23719214D01*
X13419500Y-23519214D02*
X13533786Y-23519214D01*
X13462357Y-23419214D02*
X13462357Y-23676357D01*
X13476643Y-23704929D01*
X13505214Y-23719214D01*
X13533786Y-23719214D01*
X13862357Y-23519214D02*
X13862357Y-23819214D01*
X13862357Y-23533500D02*
X13890928Y-23519214D01*
X13948071Y-23519214D01*
X13976643Y-23533500D01*
X13990928Y-23547786D01*
X14005214Y-23576357D01*
X14005214Y-23662071D01*
X13990928Y-23690643D01*
X13976643Y-23704929D01*
X13948071Y-23719214D01*
X13890928Y-23719214D01*
X13862357Y-23704929D01*
X14176643Y-23719214D02*
X14148071Y-23704929D01*
X14133786Y-23676357D01*
X14133786Y-23419214D01*
X14419500Y-23719214D02*
X14419500Y-23562071D01*
X14405214Y-23533500D01*
X14376643Y-23519214D01*
X14319500Y-23519214D01*
X14290928Y-23533500D01*
X14419500Y-23704929D02*
X14390928Y-23719214D01*
X14319500Y-23719214D01*
X14290928Y-23704929D01*
X14276643Y-23676357D01*
X14276643Y-23647786D01*
X14290928Y-23619214D01*
X14319500Y-23604929D01*
X14390928Y-23604929D01*
X14419500Y-23590643D01*
X14519500Y-23519214D02*
X14633786Y-23519214D01*
X14562357Y-23419214D02*
X14562357Y-23676357D01*
X14576643Y-23704929D01*
X14605214Y-23719214D01*
X14633786Y-23719214D01*
X14848071Y-23704929D02*
X14819500Y-23719214D01*
X14762357Y-23719214D01*
X14733786Y-23704929D01*
X14719500Y-23676357D01*
X14719500Y-23562071D01*
X14733786Y-23533500D01*
X14762357Y-23519214D01*
X14819500Y-23519214D01*
X14848071Y-23533500D01*
X14862357Y-23562071D01*
X14862357Y-23590643D01*
X14719500Y-23619214D01*
X15119500Y-23719214D02*
X15119500Y-23419214D01*
X15119500Y-23704929D02*
X15090928Y-23719214D01*
X15033786Y-23719214D01*
X15005214Y-23704929D01*
X14990928Y-23690643D01*
X14976643Y-23662071D01*
X14976643Y-23576357D01*
X14990928Y-23547786D01*
X15005214Y-23533500D01*
X15033786Y-23519214D01*
X15090928Y-23519214D01*
X15119500Y-23533500D01*
X15233786Y-23833500D02*
X15248071Y-23819214D01*
X15276643Y-23776357D01*
X15290928Y-23747786D01*
X15305214Y-23704929D01*
X15319500Y-23633500D01*
X15319500Y-23576357D01*
X15305214Y-23504929D01*
X15290928Y-23462071D01*
X15276643Y-23433500D01*
X15248071Y-23390643D01*
X15233786Y-23376357D01*
M02*
