%FSLAX45Y45*%
G04 Gerber Fmt 4.5, Leading zero omitted, Abs format (unit mm)*
G04 Created by KiCad (PCBNEW (5.1.10-1-10_14)) date 2021-11-12 14:33:32*
%MOMM*%
%LPD*%
G01*
G04 APERTURE LIST*
%TA.AperFunction,Profile*%
%ADD10C,0.050000*%
%TD*%
%ADD11C,0.200000*%
%ADD12C,0.300000*%
G04 APERTURE END LIST*
D10*
X5207000Y-22225000D02*
X14097000Y-22225000D01*
X5207000Y-5588000D02*
X14097000Y-5588000D01*
X14097000Y-22225000D02*
X14097000Y-5588000D01*
X5207000Y-5588000D02*
X5207000Y-22225000D01*
D11*
X8519500Y-14638500D02*
X8579500Y-14698500D01*
X8579500Y-14638500D02*
X8519500Y-14698500D01*
X8669500Y-14638500D02*
X8729500Y-14698500D01*
X8729500Y-14638500D02*
X8669500Y-14698500D01*
X5751600Y-9537700D02*
G75*
G03*
X5751600Y-9537700I-35000J0D01*
G01*
X5691600Y-9492700D02*
X5691600Y-9582700D01*
X5741600Y-9492700D02*
X5741600Y-9582700D01*
X5691600Y-9582700D02*
G75*
G03*
X5741600Y-9582700I25000J0D01*
G01*
X5741600Y-9492700D02*
G75*
G03*
X5691600Y-9492700I-25000J0D01*
G01*
X6251600Y-9037700D02*
G75*
G03*
X6251600Y-9037700I-35000J0D01*
G01*
X6171600Y-9062700D02*
X6261600Y-9062700D01*
X6171600Y-9012700D02*
X6261600Y-9012700D01*
X6261600Y-9062700D02*
G75*
G03*
X6261600Y-9012700I0J25000D01*
G01*
X6171600Y-9012700D02*
G75*
G03*
X6171600Y-9062700I0J-25000D01*
G01*
X6251600Y-9787700D02*
G75*
G03*
X6251600Y-9787700I-35000J0D01*
G01*
X6171600Y-9812700D02*
X6261600Y-9812700D01*
X6171600Y-9762700D02*
X6261600Y-9762700D01*
X6261600Y-9812700D02*
G75*
G03*
X6261600Y-9762700I0J25000D01*
G01*
X6171600Y-9762700D02*
G75*
G03*
X6171600Y-9812700I0J-25000D01*
G01*
X6251600Y-10037700D02*
G75*
G03*
X6251600Y-10037700I-35000J0D01*
G01*
X6171600Y-10062700D02*
X6261600Y-10062700D01*
X6171600Y-10012700D02*
X6261600Y-10012700D01*
X6261600Y-10062700D02*
G75*
G03*
X6261600Y-10012700I0J25000D01*
G01*
X6171600Y-10012700D02*
G75*
G03*
X6171600Y-10062700I0J-25000D01*
G01*
X10326000Y-9398000D02*
G75*
G03*
X10326000Y-9398000I-35000J0D01*
G01*
X10576000Y-9398000D02*
G75*
G03*
X10576000Y-9398000I-35000J0D01*
G01*
X13395400Y-10875200D02*
G75*
G03*
X13395400Y-10875200I-35000J0D01*
G01*
X13395400Y-11125200D02*
G75*
G03*
X13395400Y-11125200I-35000J0D01*
G01*
X9715500Y-9868500D02*
X9715500Y-9943500D01*
X9678000Y-9906000D02*
X9753000Y-9906000D01*
X9715500Y-9995500D02*
X9715500Y-10070500D01*
X9678000Y-10033000D02*
X9753000Y-10033000D01*
X9715500Y-10122500D02*
X9715500Y-10197500D01*
X9678000Y-10160000D02*
X9753000Y-10160000D01*
X10096500Y-13678500D02*
X10096500Y-13753500D01*
X10059000Y-13716000D02*
X10134000Y-13716000D01*
X10096500Y-13805500D02*
X10096500Y-13880500D01*
X10059000Y-13843000D02*
X10134000Y-13843000D01*
X10096500Y-13932500D02*
X10096500Y-14007500D01*
X10059000Y-13970000D02*
X10134000Y-13970000D01*
X6390984Y-7457784D02*
X6390984Y-7401215D01*
X6334415Y-7401215D01*
X6334415Y-7457784D01*
X6390984Y-7457784D01*
X6390984Y-8219784D02*
X6390984Y-8163215D01*
X6334415Y-8163215D01*
X6334415Y-8219784D01*
X6390984Y-8219784D01*
X7076784Y-7394284D02*
X7076784Y-7337715D01*
X7020215Y-7337715D01*
X7020215Y-7394284D01*
X7076784Y-7394284D01*
X7076784Y-8156284D02*
X7076784Y-8099715D01*
X7020215Y-8099715D01*
X7020215Y-8156284D01*
X7076784Y-8156284D01*
X7267284Y-8918285D02*
X7267284Y-8861716D01*
X7210715Y-8861716D01*
X7210715Y-8918285D01*
X7267284Y-8918285D01*
X7267284Y-9489785D02*
X7267284Y-9433216D01*
X7210715Y-9433216D01*
X7210715Y-9489785D01*
X7267284Y-9489785D01*
X7267284Y-10061285D02*
X7267284Y-10004716D01*
X7210715Y-10004716D01*
X7210715Y-10061285D01*
X7267284Y-10061285D01*
X7699084Y-6530684D02*
X7699084Y-6474115D01*
X7642515Y-6474115D01*
X7642515Y-6530684D01*
X7699084Y-6530684D01*
X7949084Y-6530684D02*
X7949084Y-6474115D01*
X7892515Y-6474115D01*
X7892515Y-6530684D01*
X7949084Y-6530684D01*
X7965784Y-7330784D02*
X7965784Y-7274215D01*
X7909215Y-7274215D01*
X7909215Y-7330784D01*
X7965784Y-7330784D01*
X7965784Y-8092784D02*
X7965784Y-8036215D01*
X7909215Y-8036215D01*
X7909215Y-8092784D01*
X7965784Y-8092784D01*
X8029284Y-8918285D02*
X8029284Y-8861716D01*
X7972715Y-8861716D01*
X7972715Y-8918285D01*
X8029284Y-8918285D01*
X8029284Y-9489785D02*
X8029284Y-9433216D01*
X7972715Y-9433216D01*
X7972715Y-9489785D01*
X8029284Y-9489785D01*
X8029284Y-10061285D02*
X8029284Y-10004716D01*
X7972715Y-10004716D01*
X7972715Y-10061285D01*
X8029284Y-10061285D01*
X8537285Y-11178885D02*
X8537285Y-11122316D01*
X8480716Y-11122316D01*
X8480716Y-11178885D01*
X8537285Y-11178885D01*
X8537285Y-11678884D02*
X8537285Y-11622315D01*
X8480716Y-11622315D01*
X8480716Y-11678884D01*
X8537285Y-11678884D01*
X8600785Y-13934784D02*
X8600785Y-13878215D01*
X8544216Y-13878215D01*
X8544216Y-13934784D01*
X8600785Y-13934784D01*
X8715085Y-7448284D02*
X8715085Y-7391715D01*
X8658516Y-7391715D01*
X8658516Y-7448284D01*
X8715085Y-7448284D01*
X8715085Y-7648284D02*
X8715085Y-7591715D01*
X8658516Y-7591715D01*
X8658516Y-7648284D01*
X8715085Y-7648284D01*
X9019885Y-8511885D02*
X9019885Y-8455316D01*
X8963316Y-8455316D01*
X8963316Y-8511885D01*
X9019885Y-8511885D01*
X9019885Y-9273885D02*
X9019885Y-9217316D01*
X8963316Y-9217316D01*
X8963316Y-9273885D01*
X9019885Y-9273885D01*
X9172285Y-14696784D02*
X9172285Y-14640215D01*
X9115716Y-14640215D01*
X9115716Y-14696784D01*
X9172285Y-14696784D01*
X9172285Y-15395284D02*
X9172285Y-15338715D01*
X9115716Y-15338715D01*
X9115716Y-15395284D01*
X9172285Y-15395284D01*
X9362785Y-13934784D02*
X9362785Y-13878215D01*
X9306216Y-13878215D01*
X9306216Y-13934784D01*
X9362785Y-13934784D01*
X9680285Y-19789485D02*
X9680285Y-19732916D01*
X9623716Y-19732916D01*
X9623716Y-19789485D01*
X9680285Y-19789485D01*
X9680285Y-20551485D02*
X9680285Y-20494916D01*
X9623716Y-20494916D01*
X9623716Y-20551485D01*
X9680285Y-20551485D01*
X9743785Y-8664285D02*
X9743785Y-8607716D01*
X9687216Y-8607716D01*
X9687216Y-8664285D01*
X9743785Y-8664285D01*
X9743785Y-9426285D02*
X9743785Y-9369716D01*
X9687216Y-9369716D01*
X9687216Y-9426285D01*
X9743785Y-9426285D01*
X9743785Y-10632785D02*
X9743785Y-10576216D01*
X9687216Y-10576216D01*
X9687216Y-10632785D01*
X9743785Y-10632785D01*
X9743785Y-11394784D02*
X9743785Y-11338215D01*
X9687216Y-11338215D01*
X9687216Y-11394784D01*
X9743785Y-11394784D01*
X9934285Y-14696784D02*
X9934285Y-14640215D01*
X9877716Y-14640215D01*
X9877716Y-14696784D01*
X9934285Y-14696784D01*
X9934285Y-15395284D02*
X9934285Y-15338715D01*
X9877716Y-15338715D01*
X9877716Y-15395284D01*
X9934285Y-15395284D01*
X10124785Y-17554285D02*
X10124785Y-17497716D01*
X10068216Y-17497716D01*
X10068216Y-17554285D01*
X10124785Y-17554285D01*
X10124785Y-18316285D02*
X10124785Y-18259716D01*
X10068216Y-18259716D01*
X10068216Y-18316285D01*
X10124785Y-18316285D01*
X10137485Y-12525084D02*
X10137485Y-12468515D01*
X10080916Y-12468515D01*
X10080916Y-12525084D01*
X10137485Y-12525084D01*
X10137485Y-13287084D02*
X10137485Y-13230515D01*
X10080916Y-13230515D01*
X10080916Y-13287084D01*
X10137485Y-13287084D01*
X10378785Y-17554285D02*
X10378785Y-17497716D01*
X10322216Y-17497716D01*
X10322216Y-17554285D01*
X10378785Y-17554285D01*
X10378785Y-18316285D02*
X10378785Y-18259716D01*
X10322216Y-18259716D01*
X10322216Y-18316285D01*
X10378785Y-18316285D01*
X10442285Y-19848285D02*
X10442285Y-19791716D01*
X10385716Y-19791716D01*
X10385716Y-19848285D01*
X10442285Y-19848285D01*
X10442285Y-20348285D02*
X10442285Y-20291716D01*
X10385716Y-20291716D01*
X10385716Y-20348285D01*
X10442285Y-20348285D01*
X10632785Y-17554285D02*
X10632785Y-17497716D01*
X10576216Y-17497716D01*
X10576216Y-17554285D01*
X10632785Y-17554285D01*
X10632785Y-18316285D02*
X10632785Y-18259716D01*
X10576216Y-18259716D01*
X10576216Y-18316285D01*
X10632785Y-18316285D01*
X10886785Y-17554285D02*
X10886785Y-17497716D01*
X10830216Y-17497716D01*
X10830216Y-17554285D01*
X10886785Y-17554285D01*
X10886785Y-18316285D02*
X10886785Y-18259716D01*
X10830216Y-18259716D01*
X10830216Y-18316285D01*
X10886785Y-18316285D01*
X10950285Y-13599884D02*
X10950285Y-13543315D01*
X10893716Y-13543315D01*
X10893716Y-13599884D01*
X10950285Y-13599884D01*
X10950285Y-14099884D02*
X10950285Y-14043315D01*
X10893716Y-14043315D01*
X10893716Y-14099884D01*
X10950285Y-14099884D01*
X11140785Y-17554285D02*
X11140785Y-17497716D01*
X11084216Y-17497716D01*
X11084216Y-17554285D01*
X11140785Y-17554285D01*
X11140785Y-18316285D02*
X11140785Y-18259716D01*
X11084216Y-18259716D01*
X11084216Y-18316285D01*
X11140785Y-18316285D01*
X11255084Y-7546684D02*
X11255084Y-7490115D01*
X11198515Y-7490115D01*
X11198515Y-7546684D01*
X11255084Y-7546684D01*
X11255084Y-8308684D02*
X11255084Y-8252115D01*
X11198515Y-8252115D01*
X11198515Y-8308684D01*
X11255084Y-8308684D01*
X11255084Y-10340685D02*
X11255084Y-10284116D01*
X11198515Y-10284116D01*
X11198515Y-10340685D01*
X11255084Y-10340685D01*
X11255084Y-11102685D02*
X11255084Y-11046116D01*
X11198515Y-11046116D01*
X11198515Y-11102685D01*
X11255084Y-11102685D01*
X11255084Y-11661484D02*
X11255084Y-11604915D01*
X11198515Y-11604915D01*
X11198515Y-11661484D01*
X11255084Y-11661484D01*
X11255084Y-12161484D02*
X11255084Y-12104915D01*
X11198515Y-12104915D01*
X11198515Y-12161484D01*
X11255084Y-12161484D01*
X11267784Y-18887785D02*
X11267784Y-18831216D01*
X11211215Y-18831216D01*
X11211215Y-18887785D01*
X11267784Y-18887785D01*
X11356684Y-15987484D02*
X11356684Y-15930915D01*
X11300115Y-15930915D01*
X11300115Y-15987484D01*
X11356684Y-15987484D01*
X11356684Y-16487484D02*
X11356684Y-16430915D01*
X11300115Y-16430915D01*
X11300115Y-16487484D01*
X11356684Y-16487484D01*
X11394784Y-17554285D02*
X11394784Y-17497716D01*
X11338215Y-17497716D01*
X11338215Y-17554285D01*
X11394784Y-17554285D01*
X11394784Y-18316285D02*
X11394784Y-18259716D01*
X11338215Y-18259716D01*
X11338215Y-18316285D01*
X11394784Y-18316285D01*
X11517784Y-18887785D02*
X11517784Y-18831216D01*
X11461215Y-18831216D01*
X11461215Y-18887785D01*
X11517784Y-18887785D01*
X11648784Y-17554285D02*
X11648784Y-17497716D01*
X11592215Y-17497716D01*
X11592215Y-17554285D01*
X11648784Y-17554285D01*
X11648784Y-18316285D02*
X11648784Y-18259716D01*
X11592215Y-18259716D01*
X11592215Y-18316285D01*
X11648784Y-18316285D01*
X11763084Y-7343484D02*
X11763084Y-7286915D01*
X11706515Y-7286915D01*
X11706515Y-7343484D01*
X11763084Y-7343484D01*
X11763084Y-8054684D02*
X11763084Y-7998115D01*
X11706515Y-7998115D01*
X11706515Y-8054684D01*
X11763084Y-8054684D01*
X11813884Y-10239085D02*
X11813884Y-10182516D01*
X11757315Y-10182516D01*
X11757315Y-10239085D01*
X11813884Y-10239085D01*
X11813884Y-10899485D02*
X11813884Y-10842916D01*
X11757315Y-10842916D01*
X11757315Y-10899485D01*
X11813884Y-10899485D01*
X11826584Y-8816685D02*
X11826584Y-8760116D01*
X11770015Y-8760116D01*
X11770015Y-8816685D01*
X11826584Y-8816685D01*
X11826584Y-9070685D02*
X11826584Y-9014116D01*
X11770015Y-9014116D01*
X11770015Y-9070685D01*
X11826584Y-9070685D01*
X11826584Y-9324685D02*
X11826584Y-9268116D01*
X11770015Y-9268116D01*
X11770015Y-9324685D01*
X11826584Y-9324685D01*
X11826584Y-9578685D02*
X11826584Y-9522116D01*
X11770015Y-9522116D01*
X11770015Y-9578685D01*
X11826584Y-9578685D01*
X11864684Y-19535485D02*
X11864684Y-19478916D01*
X11808115Y-19478916D01*
X11808115Y-19535485D01*
X11864684Y-19535485D01*
X11864684Y-20297485D02*
X11864684Y-20240916D01*
X11808115Y-20240916D01*
X11808115Y-20297485D01*
X11864684Y-20297485D01*
X11872684Y-6632284D02*
X11872684Y-6575715D01*
X11816115Y-6575715D01*
X11816115Y-6632284D01*
X11872684Y-6632284D01*
X12372684Y-6632284D02*
X12372684Y-6575715D01*
X12316115Y-6575715D01*
X12316115Y-6632284D01*
X12372684Y-6632284D01*
X12525084Y-7343484D02*
X12525084Y-7286915D01*
X12468515Y-7286915D01*
X12468515Y-7343484D01*
X12525084Y-7343484D01*
X12525084Y-8054684D02*
X12525084Y-7998115D01*
X12468515Y-7998115D01*
X12468515Y-8054684D01*
X12525084Y-8054684D01*
X12575884Y-10239085D02*
X12575884Y-10182516D01*
X12519315Y-10182516D01*
X12519315Y-10239085D01*
X12575884Y-10239085D01*
X12575884Y-10899485D02*
X12575884Y-10842916D01*
X12519315Y-10842916D01*
X12519315Y-10899485D01*
X12575884Y-10899485D01*
X12588584Y-8816685D02*
X12588584Y-8760116D01*
X12532015Y-8760116D01*
X12532015Y-8816685D01*
X12588584Y-8816685D01*
X12588584Y-9070685D02*
X12588584Y-9014116D01*
X12532015Y-9014116D01*
X12532015Y-9070685D01*
X12588584Y-9070685D01*
X12588584Y-9324685D02*
X12588584Y-9268116D01*
X12532015Y-9268116D01*
X12532015Y-9324685D01*
X12588584Y-9324685D01*
X12588584Y-9578685D02*
X12588584Y-9522116D01*
X12532015Y-9522116D01*
X12532015Y-9578685D01*
X12588584Y-9578685D01*
X12664784Y-18062285D02*
X12664784Y-18005716D01*
X12608215Y-18005716D01*
X12608215Y-18062285D01*
X12664784Y-18062285D01*
X12664784Y-18312285D02*
X12664784Y-18255716D01*
X12608215Y-18255716D01*
X12608215Y-18312285D01*
X12664784Y-18312285D01*
X12664784Y-18951285D02*
X12664784Y-18894716D01*
X12608215Y-18894716D01*
X12608215Y-18951285D01*
X12664784Y-18951285D01*
X12664784Y-19201285D02*
X12664784Y-19144716D01*
X12608215Y-19144716D01*
X12608215Y-19201285D01*
X12664784Y-19201285D01*
X12720664Y-6995504D02*
X12720664Y-6938935D01*
X12664095Y-6938935D01*
X12664095Y-6995504D01*
X12720664Y-6995504D01*
X12982284Y-8054684D02*
X12982284Y-7998115D01*
X12925715Y-7998115D01*
X12925715Y-8054684D01*
X12982284Y-8054684D01*
X13083884Y-9832685D02*
X13083884Y-9776116D01*
X13027315Y-9776116D01*
X13027315Y-9832685D01*
X13083884Y-9832685D01*
X13083884Y-10082685D02*
X13083884Y-10026116D01*
X13027315Y-10026116D01*
X13027315Y-10082685D01*
X13083884Y-10082685D01*
X13083884Y-19840285D02*
X13083884Y-19783716D01*
X13027315Y-19783716D01*
X13027315Y-19840285D01*
X13083884Y-19840285D01*
X13083884Y-20090285D02*
X13083884Y-20033716D01*
X13027315Y-20033716D01*
X13027315Y-20090285D01*
X13083884Y-20090285D01*
X13096584Y-8816685D02*
X13096584Y-8760116D01*
X13040015Y-8760116D01*
X13040015Y-8816685D01*
X13096584Y-8816685D01*
X13096584Y-9066685D02*
X13096584Y-9010116D01*
X13040015Y-9010116D01*
X13040015Y-9066685D01*
X13096584Y-9066685D01*
X13388684Y-11610684D02*
X13388684Y-11554115D01*
X13332115Y-11554115D01*
X13332115Y-11610684D01*
X13388684Y-11610684D01*
X13388684Y-12372684D02*
X13388684Y-12316115D01*
X13332115Y-12316115D01*
X13332115Y-12372684D01*
X13388684Y-12372684D01*
X13439484Y-9629485D02*
X13439484Y-9572916D01*
X13382915Y-9572916D01*
X13382915Y-9629485D01*
X13439484Y-9629485D01*
X13439484Y-10391485D02*
X13439484Y-10334916D01*
X13382915Y-10334916D01*
X13382915Y-10391485D01*
X13439484Y-10391485D01*
X13482284Y-8054684D02*
X13482284Y-7998115D01*
X13425715Y-7998115D01*
X13425715Y-8054684D01*
X13482284Y-8054684D01*
X13482664Y-6995504D02*
X13482664Y-6938935D01*
X13426095Y-6938935D01*
X13426095Y-6995504D01*
X13482664Y-6995504D01*
X5524500Y-7601500D02*
X5569500Y-7556500D01*
X5524500Y-7511500D01*
X5479500Y-7556500D01*
X5524500Y-7601500D01*
X5524500Y-7855500D02*
X5569500Y-7810500D01*
X5524500Y-7765500D01*
X5479500Y-7810500D01*
X5524500Y-7855500D01*
X6004800Y-6427000D02*
X6104800Y-6527000D01*
X6104800Y-6427000D02*
X6004800Y-6527000D01*
X6104800Y-6477000D02*
G75*
G03*
X6104800Y-6477000I-50000J0D01*
G01*
X6094800Y-6577000D02*
X6094800Y-6377000D01*
X6014800Y-6577000D02*
X6014800Y-6377000D01*
X6094800Y-6377000D02*
G75*
G03*
X6014800Y-6377000I-40000J0D01*
G01*
X6014800Y-6577000D02*
G75*
G03*
X6094800Y-6577000I40000J0D01*
G01*
X6304800Y-6897000D02*
X6404800Y-6997000D01*
X6404800Y-6897000D02*
X6304800Y-6997000D01*
X6404800Y-6947000D02*
G75*
G03*
X6404800Y-6947000I-50000J0D01*
G01*
X6454800Y-6907000D02*
X6254800Y-6907000D01*
X6454800Y-6987000D02*
X6254800Y-6987000D01*
X6254800Y-6907000D02*
G75*
G03*
X6254800Y-6987000I0J-40000D01*
G01*
X6454800Y-6987000D02*
G75*
G03*
X6454800Y-6907000I0J40000D01*
G01*
X6604800Y-6427000D02*
X6704800Y-6527000D01*
X6704800Y-6427000D02*
X6604800Y-6527000D01*
X6704800Y-6477000D02*
G75*
G03*
X6704800Y-6477000I-50000J0D01*
G01*
X6694800Y-6602000D02*
X6694800Y-6352000D01*
X6614800Y-6602000D02*
X6614800Y-6352000D01*
X6694800Y-6352000D02*
G75*
G03*
X6614800Y-6352000I-40000J0D01*
G01*
X6614800Y-6602000D02*
G75*
G03*
X6694800Y-6602000I40000J0D01*
G01*
X5523000Y-15683000D02*
X5653000Y-15813000D01*
X5653000Y-15683000D02*
X5523000Y-15813000D01*
X5588000Y-15683000D02*
X5588000Y-15813000D01*
X5523000Y-15748000D02*
X5653000Y-15748000D01*
X5523000Y-16183000D02*
X5653000Y-16313000D01*
X5653000Y-16183000D02*
X5523000Y-16313000D01*
X5588000Y-16183000D02*
X5588000Y-16313000D01*
X5523000Y-16248000D02*
X5653000Y-16248000D01*
X5523000Y-16683000D02*
X5653000Y-16813000D01*
X5653000Y-16683000D02*
X5523000Y-16813000D01*
X5588000Y-16683000D02*
X5588000Y-16813000D01*
X5523000Y-16748000D02*
X5653000Y-16748000D01*
X5523000Y-18019800D02*
X5653000Y-18149800D01*
X5653000Y-18019800D02*
X5523000Y-18149800D01*
X5588000Y-18019800D02*
X5588000Y-18149800D01*
X5523000Y-18084800D02*
X5653000Y-18084800D01*
X5523000Y-18519800D02*
X5653000Y-18649800D01*
X5653000Y-18519800D02*
X5523000Y-18649800D01*
X5588000Y-18519800D02*
X5588000Y-18649800D01*
X5523000Y-18584800D02*
X5653000Y-18584800D01*
X5523000Y-19019800D02*
X5653000Y-19149800D01*
X5653000Y-19019800D02*
X5523000Y-19149800D01*
X5588000Y-19019800D02*
X5588000Y-19149800D01*
X5523000Y-19084800D02*
X5653000Y-19084800D01*
X5523000Y-20407400D02*
X5653000Y-20537400D01*
X5653000Y-20407400D02*
X5523000Y-20537400D01*
X5588000Y-20407400D02*
X5588000Y-20537400D01*
X5523000Y-20472400D02*
X5653000Y-20472400D01*
X5523000Y-20907400D02*
X5653000Y-21037400D01*
X5653000Y-20907400D02*
X5523000Y-21037400D01*
X5588000Y-20907400D02*
X5588000Y-21037400D01*
X5523000Y-20972400D02*
X5653000Y-20972400D01*
X5523000Y-21407400D02*
X5653000Y-21537400D01*
X5653000Y-21407400D02*
X5523000Y-21537400D01*
X5588000Y-21407400D02*
X5588000Y-21537400D01*
X5523000Y-21472400D02*
X5653000Y-21472400D01*
X12889000Y-21075800D02*
X13019000Y-21205800D01*
X13019000Y-21075800D02*
X12889000Y-21205800D01*
X12954000Y-21075800D02*
X12954000Y-21205800D01*
X12889000Y-21140800D02*
X13019000Y-21140800D01*
X12889000Y-21575800D02*
X13019000Y-21705800D01*
X13019000Y-21575800D02*
X12889000Y-21705800D01*
X12954000Y-21575800D02*
X12954000Y-21705800D01*
X12889000Y-21640800D02*
X13019000Y-21640800D01*
X5536346Y-10547700D02*
X5696346Y-10707700D01*
X5696346Y-10547700D02*
X5536346Y-10707700D01*
X5672915Y-10684269D02*
X5672915Y-10571131D01*
X5559777Y-10571131D01*
X5559777Y-10684269D01*
X5672915Y-10684269D01*
X5536346Y-12177700D02*
X5696346Y-12337700D01*
X5696346Y-12177700D02*
X5536346Y-12337700D01*
X5672915Y-12314269D02*
X5672915Y-12201131D01*
X5559777Y-12201131D01*
X5559777Y-12314269D01*
X5672915Y-12314269D01*
X5536346Y-13011500D02*
X5696346Y-13171500D01*
X5696346Y-13011500D02*
X5536346Y-13171500D01*
X5672915Y-13148069D02*
X5672915Y-13034931D01*
X5559777Y-13034931D01*
X5559777Y-13148069D01*
X5672915Y-13148069D01*
X5536346Y-14641500D02*
X5696346Y-14801500D01*
X5696346Y-14641500D02*
X5536346Y-14801500D01*
X5672915Y-14778069D02*
X5672915Y-14664931D01*
X5559777Y-14664931D01*
X5559777Y-14778069D01*
X5672915Y-14778069D01*
X6796346Y-10547700D02*
X6956346Y-10707700D01*
X6956346Y-10547700D02*
X6796346Y-10707700D01*
X6932915Y-10684269D02*
X6932915Y-10571131D01*
X6819777Y-10571131D01*
X6819777Y-10684269D01*
X6932915Y-10684269D01*
X6796346Y-12177700D02*
X6956346Y-12337700D01*
X6956346Y-12177700D02*
X6796346Y-12337700D01*
X6932915Y-12314269D02*
X6932915Y-12201131D01*
X6819777Y-12201131D01*
X6819777Y-12314269D01*
X6932915Y-12314269D01*
X6796346Y-13011500D02*
X6956346Y-13171500D01*
X6956346Y-13011500D02*
X6796346Y-13171500D01*
X6932915Y-13148069D02*
X6932915Y-13034931D01*
X6819777Y-13034931D01*
X6819777Y-13148069D01*
X6932915Y-13148069D01*
X6796346Y-14641500D02*
X6956346Y-14801500D01*
X6956346Y-14641500D02*
X6796346Y-14801500D01*
X6932915Y-14778069D02*
X6932915Y-14664931D01*
X6819777Y-14664931D01*
X6819777Y-14778069D01*
X6932915Y-14778069D01*
X6955800Y-5838200D02*
X7115800Y-5998200D01*
X7115800Y-5838200D02*
X6955800Y-5998200D01*
X7092369Y-5974769D02*
X7092369Y-5861631D01*
X6979231Y-5861631D01*
X6979231Y-5974769D01*
X7092369Y-5974769D01*
X7794000Y-5762000D02*
X7954000Y-5922000D01*
X7954000Y-5762000D02*
X7794000Y-5922000D01*
X7930569Y-5898569D02*
X7930569Y-5785431D01*
X7817431Y-5785431D01*
X7817431Y-5898569D01*
X7930569Y-5898569D01*
X8175000Y-12112000D02*
X8335000Y-12272000D01*
X8335000Y-12112000D02*
X8175000Y-12272000D01*
X8311569Y-12248569D02*
X8311569Y-12135431D01*
X8198431Y-12135431D01*
X8198431Y-12248569D01*
X8311569Y-12248569D01*
X8606800Y-13077200D02*
X8766800Y-13237200D01*
X8766800Y-13077200D02*
X8606800Y-13237200D01*
X8743369Y-13213769D02*
X8743369Y-13100631D01*
X8630231Y-13100631D01*
X8630231Y-13213769D01*
X8743369Y-13213769D01*
X9267200Y-7387600D02*
X9427200Y-7547600D01*
X9427200Y-7387600D02*
X9267200Y-7547600D01*
X9403769Y-7524169D02*
X9403769Y-7411031D01*
X9290631Y-7411031D01*
X9290631Y-7524169D01*
X9403769Y-7524169D01*
X10283200Y-7235200D02*
X10443200Y-7395200D01*
X10443200Y-7235200D02*
X10283200Y-7395200D01*
X10419769Y-7371769D02*
X10419769Y-7258631D01*
X10306631Y-7258631D01*
X10306631Y-7371769D01*
X10419769Y-7371769D01*
X10689600Y-21662400D02*
X10849600Y-21822400D01*
X10849600Y-21662400D02*
X10689600Y-21822400D01*
X10826169Y-21798969D02*
X10826169Y-21685831D01*
X10713031Y-21685831D01*
X10713031Y-21798969D01*
X10826169Y-21798969D01*
X10740400Y-11096000D02*
X10900400Y-11256000D01*
X10900400Y-11096000D02*
X10740400Y-11256000D01*
X10876969Y-11232569D02*
X10876969Y-11119431D01*
X10763831Y-11119431D01*
X10763831Y-11232569D01*
X10876969Y-11232569D01*
X10994400Y-20494000D02*
X11154400Y-20654000D01*
X11154400Y-20494000D02*
X10994400Y-20654000D01*
X11130969Y-20630569D02*
X11130969Y-20517431D01*
X11017831Y-20517431D01*
X11017831Y-20630569D01*
X11130969Y-20630569D01*
X12518400Y-15160000D02*
X12678400Y-15320000D01*
X12678400Y-15160000D02*
X12518400Y-15320000D01*
X12654969Y-15296569D02*
X12654969Y-15183431D01*
X12541831Y-15183431D01*
X12541831Y-15296569D01*
X12654969Y-15296569D01*
X12747000Y-11477000D02*
X12907000Y-11637000D01*
X12907000Y-11477000D02*
X12747000Y-11637000D01*
X12883569Y-11613569D02*
X12883569Y-11500431D01*
X12770431Y-11500431D01*
X12770431Y-11613569D01*
X12883569Y-11613569D01*
D12*
X5490928Y-22693214D02*
X5490928Y-22393214D01*
X5562357Y-22393214D01*
X5605214Y-22407500D01*
X5633786Y-22436071D01*
X5648071Y-22464643D01*
X5662357Y-22521786D01*
X5662357Y-22564643D01*
X5648071Y-22621786D01*
X5633786Y-22650357D01*
X5605214Y-22678929D01*
X5562357Y-22693214D01*
X5490928Y-22693214D01*
X5790928Y-22693214D02*
X5790928Y-22493214D01*
X5790928Y-22550357D02*
X5805214Y-22521786D01*
X5819500Y-22507500D01*
X5848071Y-22493214D01*
X5876643Y-22493214D01*
X5976643Y-22693214D02*
X5976643Y-22493214D01*
X5976643Y-22393214D02*
X5962357Y-22407500D01*
X5976643Y-22421786D01*
X5990928Y-22407500D01*
X5976643Y-22393214D01*
X5976643Y-22421786D01*
X6162357Y-22693214D02*
X6133786Y-22678929D01*
X6119500Y-22650357D01*
X6119500Y-22393214D01*
X6319500Y-22693214D02*
X6290928Y-22678929D01*
X6276643Y-22650357D01*
X6276643Y-22393214D01*
X6662357Y-22693214D02*
X6662357Y-22393214D01*
X6762357Y-22607500D01*
X6862357Y-22393214D01*
X6862357Y-22693214D01*
X7133786Y-22693214D02*
X7133786Y-22536071D01*
X7119500Y-22507500D01*
X7090928Y-22493214D01*
X7033786Y-22493214D01*
X7005214Y-22507500D01*
X7133786Y-22678929D02*
X7105214Y-22693214D01*
X7033786Y-22693214D01*
X7005214Y-22678929D01*
X6990928Y-22650357D01*
X6990928Y-22621786D01*
X7005214Y-22593214D01*
X7033786Y-22578929D01*
X7105214Y-22578929D01*
X7133786Y-22564643D01*
X7276643Y-22493214D02*
X7276643Y-22793214D01*
X7276643Y-22507500D02*
X7305214Y-22493214D01*
X7362357Y-22493214D01*
X7390928Y-22507500D01*
X7405214Y-22521786D01*
X7419500Y-22550357D01*
X7419500Y-22636071D01*
X7405214Y-22664643D01*
X7390928Y-22678929D01*
X7362357Y-22693214D01*
X7305214Y-22693214D01*
X7276643Y-22678929D01*
X7548071Y-22664643D02*
X7562357Y-22678929D01*
X7548071Y-22693214D01*
X7533786Y-22678929D01*
X7548071Y-22664643D01*
X7548071Y-22693214D01*
X7548071Y-22507500D02*
X7562357Y-22521786D01*
X7548071Y-22536071D01*
X7533786Y-22521786D01*
X7548071Y-22507500D01*
X7548071Y-22536071D01*
X5144500Y-23157500D02*
X5204500Y-23217500D01*
X5204500Y-23157500D02*
X5144500Y-23217500D01*
X5548071Y-23023214D02*
X5576643Y-23023214D01*
X5605214Y-23037500D01*
X5619500Y-23051786D01*
X5633786Y-23080357D01*
X5648071Y-23137500D01*
X5648071Y-23208929D01*
X5633786Y-23266071D01*
X5619500Y-23294643D01*
X5605214Y-23308929D01*
X5576643Y-23323214D01*
X5548071Y-23323214D01*
X5519500Y-23308929D01*
X5505214Y-23294643D01*
X5490928Y-23266071D01*
X5476643Y-23208929D01*
X5476643Y-23137500D01*
X5490928Y-23080357D01*
X5505214Y-23051786D01*
X5519500Y-23037500D01*
X5548071Y-23023214D01*
X5776643Y-23294643D02*
X5790928Y-23308929D01*
X5776643Y-23323214D01*
X5762357Y-23308929D01*
X5776643Y-23294643D01*
X5776643Y-23323214D01*
X6048071Y-23023214D02*
X5990928Y-23023214D01*
X5962357Y-23037500D01*
X5948071Y-23051786D01*
X5919500Y-23094643D01*
X5905214Y-23151786D01*
X5905214Y-23266071D01*
X5919500Y-23294643D01*
X5933786Y-23308929D01*
X5962357Y-23323214D01*
X6019500Y-23323214D01*
X6048071Y-23308929D01*
X6062357Y-23294643D01*
X6076643Y-23266071D01*
X6076643Y-23194643D01*
X6062357Y-23166071D01*
X6048071Y-23151786D01*
X6019500Y-23137500D01*
X5962357Y-23137500D01*
X5933786Y-23151786D01*
X5919500Y-23166071D01*
X5905214Y-23194643D01*
X6262357Y-23023214D02*
X6290928Y-23023214D01*
X6319500Y-23037500D01*
X6333786Y-23051786D01*
X6348071Y-23080357D01*
X6362357Y-23137500D01*
X6362357Y-23208929D01*
X6348071Y-23266071D01*
X6333786Y-23294643D01*
X6319500Y-23308929D01*
X6290928Y-23323214D01*
X6262357Y-23323214D01*
X6233786Y-23308929D01*
X6219500Y-23294643D01*
X6205214Y-23266071D01*
X6190928Y-23208929D01*
X6190928Y-23137500D01*
X6205214Y-23080357D01*
X6219500Y-23051786D01*
X6233786Y-23037500D01*
X6262357Y-23023214D01*
X6548071Y-23023214D02*
X6576643Y-23023214D01*
X6605214Y-23037500D01*
X6619500Y-23051786D01*
X6633786Y-23080357D01*
X6648071Y-23137500D01*
X6648071Y-23208929D01*
X6633786Y-23266071D01*
X6619500Y-23294643D01*
X6605214Y-23308929D01*
X6576643Y-23323214D01*
X6548071Y-23323214D01*
X6519500Y-23308929D01*
X6505214Y-23294643D01*
X6490928Y-23266071D01*
X6476643Y-23208929D01*
X6476643Y-23137500D01*
X6490928Y-23080357D01*
X6505214Y-23051786D01*
X6519500Y-23037500D01*
X6548071Y-23023214D01*
X6776643Y-23323214D02*
X6776643Y-23123214D01*
X6776643Y-23151786D02*
X6790928Y-23137500D01*
X6819500Y-23123214D01*
X6862357Y-23123214D01*
X6890928Y-23137500D01*
X6905214Y-23166071D01*
X6905214Y-23323214D01*
X6905214Y-23166071D02*
X6919500Y-23137500D01*
X6948071Y-23123214D01*
X6990928Y-23123214D01*
X7019500Y-23137500D01*
X7033786Y-23166071D01*
X7033786Y-23323214D01*
X7176643Y-23323214D02*
X7176643Y-23123214D01*
X7176643Y-23151786D02*
X7190928Y-23137500D01*
X7219500Y-23123214D01*
X7262357Y-23123214D01*
X7290928Y-23137500D01*
X7305214Y-23166071D01*
X7305214Y-23323214D01*
X7305214Y-23166071D02*
X7319500Y-23137500D01*
X7348071Y-23123214D01*
X7390928Y-23123214D01*
X7419500Y-23137500D01*
X7433786Y-23166071D01*
X7433786Y-23323214D01*
X8019500Y-23008929D02*
X7762357Y-23394643D01*
X8405214Y-23023214D02*
X8433786Y-23023214D01*
X8462357Y-23037500D01*
X8476643Y-23051786D01*
X8490928Y-23080357D01*
X8505214Y-23137500D01*
X8505214Y-23208929D01*
X8490928Y-23266071D01*
X8476643Y-23294643D01*
X8462357Y-23308929D01*
X8433786Y-23323214D01*
X8405214Y-23323214D01*
X8376643Y-23308929D01*
X8362357Y-23294643D01*
X8348071Y-23266071D01*
X8333786Y-23208929D01*
X8333786Y-23137500D01*
X8348071Y-23080357D01*
X8362357Y-23051786D01*
X8376643Y-23037500D01*
X8405214Y-23023214D01*
X8633786Y-23294643D02*
X8648071Y-23308929D01*
X8633786Y-23323214D01*
X8619500Y-23308929D01*
X8633786Y-23294643D01*
X8633786Y-23323214D01*
X8833786Y-23023214D02*
X8862357Y-23023214D01*
X8890928Y-23037500D01*
X8905214Y-23051786D01*
X8919500Y-23080357D01*
X8933786Y-23137500D01*
X8933786Y-23208929D01*
X8919500Y-23266071D01*
X8905214Y-23294643D01*
X8890928Y-23308929D01*
X8862357Y-23323214D01*
X8833786Y-23323214D01*
X8805214Y-23308929D01*
X8790928Y-23294643D01*
X8776643Y-23266071D01*
X8762357Y-23208929D01*
X8762357Y-23137500D01*
X8776643Y-23080357D01*
X8790928Y-23051786D01*
X8805214Y-23037500D01*
X8833786Y-23023214D01*
X9048071Y-23051786D02*
X9062357Y-23037500D01*
X9090928Y-23023214D01*
X9162357Y-23023214D01*
X9190928Y-23037500D01*
X9205214Y-23051786D01*
X9219500Y-23080357D01*
X9219500Y-23108929D01*
X9205214Y-23151786D01*
X9033786Y-23323214D01*
X9219500Y-23323214D01*
X9319500Y-23023214D02*
X9505214Y-23023214D01*
X9405214Y-23137500D01*
X9448071Y-23137500D01*
X9476643Y-23151786D01*
X9490928Y-23166071D01*
X9505214Y-23194643D01*
X9505214Y-23266071D01*
X9490928Y-23294643D01*
X9476643Y-23308929D01*
X9448071Y-23323214D01*
X9362357Y-23323214D01*
X9333786Y-23308929D01*
X9319500Y-23294643D01*
X9762357Y-23023214D02*
X9705214Y-23023214D01*
X9676643Y-23037500D01*
X9662357Y-23051786D01*
X9633786Y-23094643D01*
X9619500Y-23151786D01*
X9619500Y-23266071D01*
X9633786Y-23294643D01*
X9648071Y-23308929D01*
X9676643Y-23323214D01*
X9733786Y-23323214D01*
X9762357Y-23308929D01*
X9776643Y-23294643D01*
X9790928Y-23266071D01*
X9790928Y-23194643D01*
X9776643Y-23166071D01*
X9762357Y-23151786D01*
X9733786Y-23137500D01*
X9676643Y-23137500D01*
X9648071Y-23151786D01*
X9633786Y-23166071D01*
X9619500Y-23194643D01*
X9905214Y-23023214D02*
X9905214Y-23080357D01*
X10019500Y-23023214D02*
X10019500Y-23080357D01*
X10462357Y-23437500D02*
X10448071Y-23423214D01*
X10419500Y-23380357D01*
X10405214Y-23351786D01*
X10390928Y-23308929D01*
X10376643Y-23237500D01*
X10376643Y-23180357D01*
X10390928Y-23108929D01*
X10405214Y-23066071D01*
X10419500Y-23037500D01*
X10448071Y-22994643D01*
X10462357Y-22980357D01*
X10562357Y-23051786D02*
X10576643Y-23037500D01*
X10605214Y-23023214D01*
X10676643Y-23023214D01*
X10705214Y-23037500D01*
X10719500Y-23051786D01*
X10733786Y-23080357D01*
X10733786Y-23108929D01*
X10719500Y-23151786D01*
X10548071Y-23323214D01*
X10733786Y-23323214D01*
X11090928Y-23323214D02*
X11090928Y-23023214D01*
X11219500Y-23323214D02*
X11219500Y-23166071D01*
X11205214Y-23137500D01*
X11176643Y-23123214D01*
X11133786Y-23123214D01*
X11105214Y-23137500D01*
X11090928Y-23151786D01*
X11405214Y-23323214D02*
X11376643Y-23308929D01*
X11362357Y-23294643D01*
X11348071Y-23266071D01*
X11348071Y-23180357D01*
X11362357Y-23151786D01*
X11376643Y-23137500D01*
X11405214Y-23123214D01*
X11448071Y-23123214D01*
X11476643Y-23137500D01*
X11490928Y-23151786D01*
X11505214Y-23180357D01*
X11505214Y-23266071D01*
X11490928Y-23294643D01*
X11476643Y-23308929D01*
X11448071Y-23323214D01*
X11405214Y-23323214D01*
X11676643Y-23323214D02*
X11648071Y-23308929D01*
X11633786Y-23280357D01*
X11633786Y-23023214D01*
X11905214Y-23308929D02*
X11876643Y-23323214D01*
X11819500Y-23323214D01*
X11790928Y-23308929D01*
X11776643Y-23280357D01*
X11776643Y-23166071D01*
X11790928Y-23137500D01*
X11819500Y-23123214D01*
X11876643Y-23123214D01*
X11905214Y-23137500D01*
X11919500Y-23166071D01*
X11919500Y-23194643D01*
X11776643Y-23223214D01*
X12033786Y-23308929D02*
X12062357Y-23323214D01*
X12119500Y-23323214D01*
X12148071Y-23308929D01*
X12162357Y-23280357D01*
X12162357Y-23266071D01*
X12148071Y-23237500D01*
X12119500Y-23223214D01*
X12076643Y-23223214D01*
X12048071Y-23208929D01*
X12033786Y-23180357D01*
X12033786Y-23166071D01*
X12048071Y-23137500D01*
X12076643Y-23123214D01*
X12119500Y-23123214D01*
X12148071Y-23137500D01*
X12262357Y-23437500D02*
X12276643Y-23423214D01*
X12305214Y-23380357D01*
X12319500Y-23351786D01*
X12333786Y-23308929D01*
X12348071Y-23237500D01*
X12348071Y-23180357D01*
X12333786Y-23108929D01*
X12319500Y-23066071D01*
X12305214Y-23037500D01*
X12276643Y-22994643D01*
X12262357Y-22980357D01*
X5204500Y-23583500D02*
G75*
G03*
X5204500Y-23583500I-35000J0D01*
G01*
X5548071Y-23419214D02*
X5576643Y-23419214D01*
X5605214Y-23433500D01*
X5619500Y-23447786D01*
X5633786Y-23476357D01*
X5648071Y-23533500D01*
X5648071Y-23604929D01*
X5633786Y-23662071D01*
X5619500Y-23690643D01*
X5605214Y-23704929D01*
X5576643Y-23719214D01*
X5548071Y-23719214D01*
X5519500Y-23704929D01*
X5505214Y-23690643D01*
X5490928Y-23662071D01*
X5476643Y-23604929D01*
X5476643Y-23533500D01*
X5490928Y-23476357D01*
X5505214Y-23447786D01*
X5519500Y-23433500D01*
X5548071Y-23419214D01*
X5776643Y-23690643D02*
X5790928Y-23704929D01*
X5776643Y-23719214D01*
X5762357Y-23704929D01*
X5776643Y-23690643D01*
X5776643Y-23719214D01*
X5890928Y-23419214D02*
X6090928Y-23419214D01*
X5962357Y-23719214D01*
X6262357Y-23419214D02*
X6290928Y-23419214D01*
X6319500Y-23433500D01*
X6333786Y-23447786D01*
X6348071Y-23476357D01*
X6362357Y-23533500D01*
X6362357Y-23604929D01*
X6348071Y-23662071D01*
X6333786Y-23690643D01*
X6319500Y-23704929D01*
X6290928Y-23719214D01*
X6262357Y-23719214D01*
X6233786Y-23704929D01*
X6219500Y-23690643D01*
X6205214Y-23662071D01*
X6190928Y-23604929D01*
X6190928Y-23533500D01*
X6205214Y-23476357D01*
X6219500Y-23447786D01*
X6233786Y-23433500D01*
X6262357Y-23419214D01*
X6548071Y-23419214D02*
X6576643Y-23419214D01*
X6605214Y-23433500D01*
X6619500Y-23447786D01*
X6633786Y-23476357D01*
X6648071Y-23533500D01*
X6648071Y-23604929D01*
X6633786Y-23662071D01*
X6619500Y-23690643D01*
X6605214Y-23704929D01*
X6576643Y-23719214D01*
X6548071Y-23719214D01*
X6519500Y-23704929D01*
X6505214Y-23690643D01*
X6490928Y-23662071D01*
X6476643Y-23604929D01*
X6476643Y-23533500D01*
X6490928Y-23476357D01*
X6505214Y-23447786D01*
X6519500Y-23433500D01*
X6548071Y-23419214D01*
X6776643Y-23719214D02*
X6776643Y-23519214D01*
X6776643Y-23547786D02*
X6790928Y-23533500D01*
X6819500Y-23519214D01*
X6862357Y-23519214D01*
X6890928Y-23533500D01*
X6905214Y-23562071D01*
X6905214Y-23719214D01*
X6905214Y-23562071D02*
X6919500Y-23533500D01*
X6948071Y-23519214D01*
X6990928Y-23519214D01*
X7019500Y-23533500D01*
X7033786Y-23562071D01*
X7033786Y-23719214D01*
X7176643Y-23719214D02*
X7176643Y-23519214D01*
X7176643Y-23547786D02*
X7190928Y-23533500D01*
X7219500Y-23519214D01*
X7262357Y-23519214D01*
X7290928Y-23533500D01*
X7305214Y-23562071D01*
X7305214Y-23719214D01*
X7305214Y-23562071D02*
X7319500Y-23533500D01*
X7348071Y-23519214D01*
X7390928Y-23519214D01*
X7419500Y-23533500D01*
X7433786Y-23562071D01*
X7433786Y-23719214D01*
X8019500Y-23404929D02*
X7762357Y-23790643D01*
X8405214Y-23419214D02*
X8433786Y-23419214D01*
X8462357Y-23433500D01*
X8476643Y-23447786D01*
X8490928Y-23476357D01*
X8505214Y-23533500D01*
X8505214Y-23604929D01*
X8490928Y-23662071D01*
X8476643Y-23690643D01*
X8462357Y-23704929D01*
X8433786Y-23719214D01*
X8405214Y-23719214D01*
X8376643Y-23704929D01*
X8362357Y-23690643D01*
X8348071Y-23662071D01*
X8333786Y-23604929D01*
X8333786Y-23533500D01*
X8348071Y-23476357D01*
X8362357Y-23447786D01*
X8376643Y-23433500D01*
X8405214Y-23419214D01*
X8633786Y-23690643D02*
X8648071Y-23704929D01*
X8633786Y-23719214D01*
X8619500Y-23704929D01*
X8633786Y-23690643D01*
X8633786Y-23719214D01*
X8833786Y-23419214D02*
X8862357Y-23419214D01*
X8890928Y-23433500D01*
X8905214Y-23447786D01*
X8919500Y-23476357D01*
X8933786Y-23533500D01*
X8933786Y-23604929D01*
X8919500Y-23662071D01*
X8905214Y-23690643D01*
X8890928Y-23704929D01*
X8862357Y-23719214D01*
X8833786Y-23719214D01*
X8805214Y-23704929D01*
X8790928Y-23690643D01*
X8776643Y-23662071D01*
X8762357Y-23604929D01*
X8762357Y-23533500D01*
X8776643Y-23476357D01*
X8790928Y-23447786D01*
X8805214Y-23433500D01*
X8833786Y-23419214D01*
X9048071Y-23447786D02*
X9062357Y-23433500D01*
X9090928Y-23419214D01*
X9162357Y-23419214D01*
X9190928Y-23433500D01*
X9205214Y-23447786D01*
X9219500Y-23476357D01*
X9219500Y-23504929D01*
X9205214Y-23547786D01*
X9033786Y-23719214D01*
X9219500Y-23719214D01*
X9319500Y-23419214D02*
X9519500Y-23419214D01*
X9390928Y-23719214D01*
X9762357Y-23419214D02*
X9705214Y-23419214D01*
X9676643Y-23433500D01*
X9662357Y-23447786D01*
X9633786Y-23490643D01*
X9619500Y-23547786D01*
X9619500Y-23662071D01*
X9633786Y-23690643D01*
X9648071Y-23704929D01*
X9676643Y-23719214D01*
X9733786Y-23719214D01*
X9762357Y-23704929D01*
X9776643Y-23690643D01*
X9790928Y-23662071D01*
X9790928Y-23590643D01*
X9776643Y-23562071D01*
X9762357Y-23547786D01*
X9733786Y-23533500D01*
X9676643Y-23533500D01*
X9648071Y-23547786D01*
X9633786Y-23562071D01*
X9619500Y-23590643D01*
X9905214Y-23419214D02*
X9905214Y-23476357D01*
X10019500Y-23419214D02*
X10019500Y-23476357D01*
X10462357Y-23833500D02*
X10448071Y-23819214D01*
X10419500Y-23776357D01*
X10405214Y-23747786D01*
X10390928Y-23704929D01*
X10376643Y-23633500D01*
X10376643Y-23576357D01*
X10390928Y-23504929D01*
X10405214Y-23462071D01*
X10419500Y-23433500D01*
X10448071Y-23390643D01*
X10462357Y-23376357D01*
X10705214Y-23519214D02*
X10705214Y-23719214D01*
X10633786Y-23404929D02*
X10562357Y-23619214D01*
X10748071Y-23619214D01*
X11090928Y-23719214D02*
X11090928Y-23419214D01*
X11219500Y-23719214D02*
X11219500Y-23562071D01*
X11205214Y-23533500D01*
X11176643Y-23519214D01*
X11133786Y-23519214D01*
X11105214Y-23533500D01*
X11090928Y-23547786D01*
X11405214Y-23719214D02*
X11376643Y-23704929D01*
X11362357Y-23690643D01*
X11348071Y-23662071D01*
X11348071Y-23576357D01*
X11362357Y-23547786D01*
X11376643Y-23533500D01*
X11405214Y-23519214D01*
X11448071Y-23519214D01*
X11476643Y-23533500D01*
X11490928Y-23547786D01*
X11505214Y-23576357D01*
X11505214Y-23662071D01*
X11490928Y-23690643D01*
X11476643Y-23704929D01*
X11448071Y-23719214D01*
X11405214Y-23719214D01*
X11676643Y-23719214D02*
X11648071Y-23704929D01*
X11633786Y-23676357D01*
X11633786Y-23419214D01*
X11905214Y-23704929D02*
X11876643Y-23719214D01*
X11819500Y-23719214D01*
X11790928Y-23704929D01*
X11776643Y-23676357D01*
X11776643Y-23562071D01*
X11790928Y-23533500D01*
X11819500Y-23519214D01*
X11876643Y-23519214D01*
X11905214Y-23533500D01*
X11919500Y-23562071D01*
X11919500Y-23590643D01*
X11776643Y-23619214D01*
X12033786Y-23704929D02*
X12062357Y-23719214D01*
X12119500Y-23719214D01*
X12148071Y-23704929D01*
X12162357Y-23676357D01*
X12162357Y-23662071D01*
X12148071Y-23633500D01*
X12119500Y-23619214D01*
X12076643Y-23619214D01*
X12048071Y-23604929D01*
X12033786Y-23576357D01*
X12033786Y-23562071D01*
X12048071Y-23533500D01*
X12076643Y-23519214D01*
X12119500Y-23519214D01*
X12148071Y-23533500D01*
X12519500Y-23604929D02*
X12748071Y-23604929D01*
X12633786Y-23719214D02*
X12633786Y-23490643D01*
X13248071Y-23519214D02*
X13248071Y-23719214D01*
X13176643Y-23404929D02*
X13105214Y-23619214D01*
X13290928Y-23619214D01*
X13619500Y-23704929D02*
X13648071Y-23719214D01*
X13705214Y-23719214D01*
X13733786Y-23704929D01*
X13748071Y-23676357D01*
X13748071Y-23662071D01*
X13733786Y-23633500D01*
X13705214Y-23619214D01*
X13662357Y-23619214D01*
X13633786Y-23604929D01*
X13619500Y-23576357D01*
X13619500Y-23562071D01*
X13633786Y-23533500D01*
X13662357Y-23519214D01*
X13705214Y-23519214D01*
X13733786Y-23533500D01*
X13919500Y-23719214D02*
X13890928Y-23704929D01*
X13876643Y-23676357D01*
X13876643Y-23419214D01*
X14076643Y-23719214D02*
X14048071Y-23704929D01*
X14033786Y-23690643D01*
X14019500Y-23662071D01*
X14019500Y-23576357D01*
X14033786Y-23547786D01*
X14048071Y-23533500D01*
X14076643Y-23519214D01*
X14119500Y-23519214D01*
X14148071Y-23533500D01*
X14162357Y-23547786D01*
X14176643Y-23576357D01*
X14176643Y-23662071D01*
X14162357Y-23690643D01*
X14148071Y-23704929D01*
X14119500Y-23719214D01*
X14076643Y-23719214D01*
X14262357Y-23519214D02*
X14376643Y-23519214D01*
X14305214Y-23419214D02*
X14305214Y-23676357D01*
X14319500Y-23704929D01*
X14348071Y-23719214D01*
X14376643Y-23719214D01*
X14462357Y-23704929D02*
X14490928Y-23719214D01*
X14548071Y-23719214D01*
X14576643Y-23704929D01*
X14590928Y-23676357D01*
X14590928Y-23662071D01*
X14576643Y-23633500D01*
X14548071Y-23619214D01*
X14505214Y-23619214D01*
X14476643Y-23604929D01*
X14462357Y-23576357D01*
X14462357Y-23562071D01*
X14476643Y-23533500D01*
X14505214Y-23519214D01*
X14548071Y-23519214D01*
X14576643Y-23533500D01*
X14690928Y-23833500D02*
X14705214Y-23819214D01*
X14733786Y-23776357D01*
X14748071Y-23747786D01*
X14762357Y-23704929D01*
X14776643Y-23633500D01*
X14776643Y-23576357D01*
X14762357Y-23504929D01*
X14748071Y-23462071D01*
X14733786Y-23433500D01*
X14705214Y-23390643D01*
X14690928Y-23376357D01*
X5167000Y-23942000D02*
X5167000Y-24017000D01*
X5129500Y-23979500D02*
X5204500Y-23979500D01*
X5548071Y-23815214D02*
X5576643Y-23815214D01*
X5605214Y-23829500D01*
X5619500Y-23843786D01*
X5633786Y-23872357D01*
X5648071Y-23929500D01*
X5648071Y-24000929D01*
X5633786Y-24058071D01*
X5619500Y-24086643D01*
X5605214Y-24100929D01*
X5576643Y-24115214D01*
X5548071Y-24115214D01*
X5519500Y-24100929D01*
X5505214Y-24086643D01*
X5490928Y-24058071D01*
X5476643Y-24000929D01*
X5476643Y-23929500D01*
X5490928Y-23872357D01*
X5505214Y-23843786D01*
X5519500Y-23829500D01*
X5548071Y-23815214D01*
X5776643Y-24086643D02*
X5790928Y-24100929D01*
X5776643Y-24115214D01*
X5762357Y-24100929D01*
X5776643Y-24086643D01*
X5776643Y-24115214D01*
X5890928Y-23815214D02*
X6090928Y-23815214D01*
X5962357Y-24115214D01*
X6348071Y-23815214D02*
X6205214Y-23815214D01*
X6190928Y-23958071D01*
X6205214Y-23943786D01*
X6233786Y-23929500D01*
X6305214Y-23929500D01*
X6333786Y-23943786D01*
X6348071Y-23958071D01*
X6362357Y-23986643D01*
X6362357Y-24058071D01*
X6348071Y-24086643D01*
X6333786Y-24100929D01*
X6305214Y-24115214D01*
X6233786Y-24115214D01*
X6205214Y-24100929D01*
X6190928Y-24086643D01*
X6548071Y-23815214D02*
X6576643Y-23815214D01*
X6605214Y-23829500D01*
X6619500Y-23843786D01*
X6633786Y-23872357D01*
X6648071Y-23929500D01*
X6648071Y-24000929D01*
X6633786Y-24058071D01*
X6619500Y-24086643D01*
X6605214Y-24100929D01*
X6576643Y-24115214D01*
X6548071Y-24115214D01*
X6519500Y-24100929D01*
X6505214Y-24086643D01*
X6490928Y-24058071D01*
X6476643Y-24000929D01*
X6476643Y-23929500D01*
X6490928Y-23872357D01*
X6505214Y-23843786D01*
X6519500Y-23829500D01*
X6548071Y-23815214D01*
X6776643Y-24115214D02*
X6776643Y-23915214D01*
X6776643Y-23943786D02*
X6790928Y-23929500D01*
X6819500Y-23915214D01*
X6862357Y-23915214D01*
X6890928Y-23929500D01*
X6905214Y-23958071D01*
X6905214Y-24115214D01*
X6905214Y-23958071D02*
X6919500Y-23929500D01*
X6948071Y-23915214D01*
X6990928Y-23915214D01*
X7019500Y-23929500D01*
X7033786Y-23958071D01*
X7033786Y-24115214D01*
X7176643Y-24115214D02*
X7176643Y-23915214D01*
X7176643Y-23943786D02*
X7190928Y-23929500D01*
X7219500Y-23915214D01*
X7262357Y-23915214D01*
X7290928Y-23929500D01*
X7305214Y-23958071D01*
X7305214Y-24115214D01*
X7305214Y-23958071D02*
X7319500Y-23929500D01*
X7348071Y-23915214D01*
X7390928Y-23915214D01*
X7419500Y-23929500D01*
X7433786Y-23958071D01*
X7433786Y-24115214D01*
X8019500Y-23800929D02*
X7762357Y-24186643D01*
X8405214Y-23815214D02*
X8433786Y-23815214D01*
X8462357Y-23829500D01*
X8476643Y-23843786D01*
X8490928Y-23872357D01*
X8505214Y-23929500D01*
X8505214Y-24000929D01*
X8490928Y-24058071D01*
X8476643Y-24086643D01*
X8462357Y-24100929D01*
X8433786Y-24115214D01*
X8405214Y-24115214D01*
X8376643Y-24100929D01*
X8362357Y-24086643D01*
X8348071Y-24058071D01*
X8333786Y-24000929D01*
X8333786Y-23929500D01*
X8348071Y-23872357D01*
X8362357Y-23843786D01*
X8376643Y-23829500D01*
X8405214Y-23815214D01*
X8633786Y-24086643D02*
X8648071Y-24100929D01*
X8633786Y-24115214D01*
X8619500Y-24100929D01*
X8633786Y-24086643D01*
X8633786Y-24115214D01*
X8833786Y-23815214D02*
X8862357Y-23815214D01*
X8890928Y-23829500D01*
X8905214Y-23843786D01*
X8919500Y-23872357D01*
X8933786Y-23929500D01*
X8933786Y-24000929D01*
X8919500Y-24058071D01*
X8905214Y-24086643D01*
X8890928Y-24100929D01*
X8862357Y-24115214D01*
X8833786Y-24115214D01*
X8805214Y-24100929D01*
X8790928Y-24086643D01*
X8776643Y-24058071D01*
X8762357Y-24000929D01*
X8762357Y-23929500D01*
X8776643Y-23872357D01*
X8790928Y-23843786D01*
X8805214Y-23829500D01*
X8833786Y-23815214D01*
X9048071Y-23843786D02*
X9062357Y-23829500D01*
X9090928Y-23815214D01*
X9162357Y-23815214D01*
X9190928Y-23829500D01*
X9205214Y-23843786D01*
X9219500Y-23872357D01*
X9219500Y-23900929D01*
X9205214Y-23943786D01*
X9033786Y-24115214D01*
X9219500Y-24115214D01*
X9362357Y-24115214D02*
X9419500Y-24115214D01*
X9448071Y-24100929D01*
X9462357Y-24086643D01*
X9490928Y-24043786D01*
X9505214Y-23986643D01*
X9505214Y-23872357D01*
X9490928Y-23843786D01*
X9476643Y-23829500D01*
X9448071Y-23815214D01*
X9390928Y-23815214D01*
X9362357Y-23829500D01*
X9348071Y-23843786D01*
X9333786Y-23872357D01*
X9333786Y-23943786D01*
X9348071Y-23972357D01*
X9362357Y-23986643D01*
X9390928Y-24000929D01*
X9448071Y-24000929D01*
X9476643Y-23986643D01*
X9490928Y-23972357D01*
X9505214Y-23943786D01*
X9776643Y-23815214D02*
X9633786Y-23815214D01*
X9619500Y-23958071D01*
X9633786Y-23943786D01*
X9662357Y-23929500D01*
X9733786Y-23929500D01*
X9762357Y-23943786D01*
X9776643Y-23958071D01*
X9790928Y-23986643D01*
X9790928Y-24058071D01*
X9776643Y-24086643D01*
X9762357Y-24100929D01*
X9733786Y-24115214D01*
X9662357Y-24115214D01*
X9633786Y-24100929D01*
X9619500Y-24086643D01*
X9905214Y-23815214D02*
X9905214Y-23872357D01*
X10019500Y-23815214D02*
X10019500Y-23872357D01*
X10462357Y-24229500D02*
X10448071Y-24215214D01*
X10419500Y-24172357D01*
X10405214Y-24143786D01*
X10390928Y-24100929D01*
X10376643Y-24029500D01*
X10376643Y-23972357D01*
X10390928Y-23900929D01*
X10405214Y-23858071D01*
X10419500Y-23829500D01*
X10448071Y-23786643D01*
X10462357Y-23772357D01*
X10705214Y-23815214D02*
X10648071Y-23815214D01*
X10619500Y-23829500D01*
X10605214Y-23843786D01*
X10576643Y-23886643D01*
X10562357Y-23943786D01*
X10562357Y-24058071D01*
X10576643Y-24086643D01*
X10590928Y-24100929D01*
X10619500Y-24115214D01*
X10676643Y-24115214D01*
X10705214Y-24100929D01*
X10719500Y-24086643D01*
X10733786Y-24058071D01*
X10733786Y-23986643D01*
X10719500Y-23958071D01*
X10705214Y-23943786D01*
X10676643Y-23929500D01*
X10619500Y-23929500D01*
X10590928Y-23943786D01*
X10576643Y-23958071D01*
X10562357Y-23986643D01*
X11090928Y-24115214D02*
X11090928Y-23815214D01*
X11219500Y-24115214D02*
X11219500Y-23958071D01*
X11205214Y-23929500D01*
X11176643Y-23915214D01*
X11133786Y-23915214D01*
X11105214Y-23929500D01*
X11090928Y-23943786D01*
X11405214Y-24115214D02*
X11376643Y-24100929D01*
X11362357Y-24086643D01*
X11348071Y-24058071D01*
X11348071Y-23972357D01*
X11362357Y-23943786D01*
X11376643Y-23929500D01*
X11405214Y-23915214D01*
X11448071Y-23915214D01*
X11476643Y-23929500D01*
X11490928Y-23943786D01*
X11505214Y-23972357D01*
X11505214Y-24058071D01*
X11490928Y-24086643D01*
X11476643Y-24100929D01*
X11448071Y-24115214D01*
X11405214Y-24115214D01*
X11676643Y-24115214D02*
X11648071Y-24100929D01*
X11633786Y-24072357D01*
X11633786Y-23815214D01*
X11905214Y-24100929D02*
X11876643Y-24115214D01*
X11819500Y-24115214D01*
X11790928Y-24100929D01*
X11776643Y-24072357D01*
X11776643Y-23958071D01*
X11790928Y-23929500D01*
X11819500Y-23915214D01*
X11876643Y-23915214D01*
X11905214Y-23929500D01*
X11919500Y-23958071D01*
X11919500Y-23986643D01*
X11776643Y-24015214D01*
X12033786Y-24100929D02*
X12062357Y-24115214D01*
X12119500Y-24115214D01*
X12148071Y-24100929D01*
X12162357Y-24072357D01*
X12162357Y-24058071D01*
X12148071Y-24029500D01*
X12119500Y-24015214D01*
X12076643Y-24015214D01*
X12048071Y-24000929D01*
X12033786Y-23972357D01*
X12033786Y-23958071D01*
X12048071Y-23929500D01*
X12076643Y-23915214D01*
X12119500Y-23915214D01*
X12148071Y-23929500D01*
X12262357Y-24229500D02*
X12276643Y-24215214D01*
X12305214Y-24172357D01*
X12319500Y-24143786D01*
X12333786Y-24100929D01*
X12348071Y-24029500D01*
X12348071Y-23972357D01*
X12333786Y-23900929D01*
X12319500Y-23858071D01*
X12305214Y-23829500D01*
X12276643Y-23786643D01*
X12262357Y-23772357D01*
X5192784Y-24403785D02*
X5192784Y-24347216D01*
X5136215Y-24347216D01*
X5136215Y-24403785D01*
X5192784Y-24403785D01*
X5548071Y-24211214D02*
X5576643Y-24211214D01*
X5605214Y-24225500D01*
X5619500Y-24239786D01*
X5633786Y-24268357D01*
X5648071Y-24325500D01*
X5648071Y-24396929D01*
X5633786Y-24454071D01*
X5619500Y-24482643D01*
X5605214Y-24496929D01*
X5576643Y-24511214D01*
X5548071Y-24511214D01*
X5519500Y-24496929D01*
X5505214Y-24482643D01*
X5490928Y-24454071D01*
X5476643Y-24396929D01*
X5476643Y-24325500D01*
X5490928Y-24268357D01*
X5505214Y-24239786D01*
X5519500Y-24225500D01*
X5548071Y-24211214D01*
X5776643Y-24482643D02*
X5790928Y-24496929D01*
X5776643Y-24511214D01*
X5762357Y-24496929D01*
X5776643Y-24482643D01*
X5776643Y-24511214D01*
X5962357Y-24339786D02*
X5933786Y-24325500D01*
X5919500Y-24311214D01*
X5905214Y-24282643D01*
X5905214Y-24268357D01*
X5919500Y-24239786D01*
X5933786Y-24225500D01*
X5962357Y-24211214D01*
X6019500Y-24211214D01*
X6048071Y-24225500D01*
X6062357Y-24239786D01*
X6076643Y-24268357D01*
X6076643Y-24282643D01*
X6062357Y-24311214D01*
X6048071Y-24325500D01*
X6019500Y-24339786D01*
X5962357Y-24339786D01*
X5933786Y-24354071D01*
X5919500Y-24368357D01*
X5905214Y-24396929D01*
X5905214Y-24454071D01*
X5919500Y-24482643D01*
X5933786Y-24496929D01*
X5962357Y-24511214D01*
X6019500Y-24511214D01*
X6048071Y-24496929D01*
X6062357Y-24482643D01*
X6076643Y-24454071D01*
X6076643Y-24396929D01*
X6062357Y-24368357D01*
X6048071Y-24354071D01*
X6019500Y-24339786D01*
X6262357Y-24211214D02*
X6290928Y-24211214D01*
X6319500Y-24225500D01*
X6333786Y-24239786D01*
X6348071Y-24268357D01*
X6362357Y-24325500D01*
X6362357Y-24396929D01*
X6348071Y-24454071D01*
X6333786Y-24482643D01*
X6319500Y-24496929D01*
X6290928Y-24511214D01*
X6262357Y-24511214D01*
X6233786Y-24496929D01*
X6219500Y-24482643D01*
X6205214Y-24454071D01*
X6190928Y-24396929D01*
X6190928Y-24325500D01*
X6205214Y-24268357D01*
X6219500Y-24239786D01*
X6233786Y-24225500D01*
X6262357Y-24211214D01*
X6548071Y-24211214D02*
X6576643Y-24211214D01*
X6605214Y-24225500D01*
X6619500Y-24239786D01*
X6633786Y-24268357D01*
X6648071Y-24325500D01*
X6648071Y-24396929D01*
X6633786Y-24454071D01*
X6619500Y-24482643D01*
X6605214Y-24496929D01*
X6576643Y-24511214D01*
X6548071Y-24511214D01*
X6519500Y-24496929D01*
X6505214Y-24482643D01*
X6490928Y-24454071D01*
X6476643Y-24396929D01*
X6476643Y-24325500D01*
X6490928Y-24268357D01*
X6505214Y-24239786D01*
X6519500Y-24225500D01*
X6548071Y-24211214D01*
X6776643Y-24511214D02*
X6776643Y-24311214D01*
X6776643Y-24339786D02*
X6790928Y-24325500D01*
X6819500Y-24311214D01*
X6862357Y-24311214D01*
X6890928Y-24325500D01*
X6905214Y-24354071D01*
X6905214Y-24511214D01*
X6905214Y-24354071D02*
X6919500Y-24325500D01*
X6948071Y-24311214D01*
X6990928Y-24311214D01*
X7019500Y-24325500D01*
X7033786Y-24354071D01*
X7033786Y-24511214D01*
X7176643Y-24511214D02*
X7176643Y-24311214D01*
X7176643Y-24339786D02*
X7190928Y-24325500D01*
X7219500Y-24311214D01*
X7262357Y-24311214D01*
X7290928Y-24325500D01*
X7305214Y-24354071D01*
X7305214Y-24511214D01*
X7305214Y-24354071D02*
X7319500Y-24325500D01*
X7348071Y-24311214D01*
X7390928Y-24311214D01*
X7419500Y-24325500D01*
X7433786Y-24354071D01*
X7433786Y-24511214D01*
X8019500Y-24196929D02*
X7762357Y-24582643D01*
X8405214Y-24211214D02*
X8433786Y-24211214D01*
X8462357Y-24225500D01*
X8476643Y-24239786D01*
X8490928Y-24268357D01*
X8505214Y-24325500D01*
X8505214Y-24396929D01*
X8490928Y-24454071D01*
X8476643Y-24482643D01*
X8462357Y-24496929D01*
X8433786Y-24511214D01*
X8405214Y-24511214D01*
X8376643Y-24496929D01*
X8362357Y-24482643D01*
X8348071Y-24454071D01*
X8333786Y-24396929D01*
X8333786Y-24325500D01*
X8348071Y-24268357D01*
X8362357Y-24239786D01*
X8376643Y-24225500D01*
X8405214Y-24211214D01*
X8633786Y-24482643D02*
X8648071Y-24496929D01*
X8633786Y-24511214D01*
X8619500Y-24496929D01*
X8633786Y-24482643D01*
X8633786Y-24511214D01*
X8833786Y-24211214D02*
X8862357Y-24211214D01*
X8890928Y-24225500D01*
X8905214Y-24239786D01*
X8919500Y-24268357D01*
X8933786Y-24325500D01*
X8933786Y-24396929D01*
X8919500Y-24454071D01*
X8905214Y-24482643D01*
X8890928Y-24496929D01*
X8862357Y-24511214D01*
X8833786Y-24511214D01*
X8805214Y-24496929D01*
X8790928Y-24482643D01*
X8776643Y-24454071D01*
X8762357Y-24396929D01*
X8762357Y-24325500D01*
X8776643Y-24268357D01*
X8790928Y-24239786D01*
X8805214Y-24225500D01*
X8833786Y-24211214D01*
X9033786Y-24211214D02*
X9219500Y-24211214D01*
X9119500Y-24325500D01*
X9162357Y-24325500D01*
X9190928Y-24339786D01*
X9205214Y-24354071D01*
X9219500Y-24382643D01*
X9219500Y-24454071D01*
X9205214Y-24482643D01*
X9190928Y-24496929D01*
X9162357Y-24511214D01*
X9076643Y-24511214D01*
X9048071Y-24496929D01*
X9033786Y-24482643D01*
X9505214Y-24511214D02*
X9333786Y-24511214D01*
X9419500Y-24511214D02*
X9419500Y-24211214D01*
X9390928Y-24254071D01*
X9362357Y-24282643D01*
X9333786Y-24296929D01*
X9776643Y-24211214D02*
X9633786Y-24211214D01*
X9619500Y-24354071D01*
X9633786Y-24339786D01*
X9662357Y-24325500D01*
X9733786Y-24325500D01*
X9762357Y-24339786D01*
X9776643Y-24354071D01*
X9790928Y-24382643D01*
X9790928Y-24454071D01*
X9776643Y-24482643D01*
X9762357Y-24496929D01*
X9733786Y-24511214D01*
X9662357Y-24511214D01*
X9633786Y-24496929D01*
X9619500Y-24482643D01*
X9905214Y-24211214D02*
X9905214Y-24268357D01*
X10019500Y-24211214D02*
X10019500Y-24268357D01*
X10462357Y-24625500D02*
X10448071Y-24611214D01*
X10419500Y-24568357D01*
X10405214Y-24539786D01*
X10390928Y-24496929D01*
X10376643Y-24425500D01*
X10376643Y-24368357D01*
X10390928Y-24296929D01*
X10405214Y-24254071D01*
X10419500Y-24225500D01*
X10448071Y-24182643D01*
X10462357Y-24168357D01*
X10733786Y-24511214D02*
X10562357Y-24511214D01*
X10648071Y-24511214D02*
X10648071Y-24211214D01*
X10619500Y-24254071D01*
X10590928Y-24282643D01*
X10562357Y-24296929D01*
X10919500Y-24211214D02*
X10948071Y-24211214D01*
X10976643Y-24225500D01*
X10990928Y-24239786D01*
X11005214Y-24268357D01*
X11019500Y-24325500D01*
X11019500Y-24396929D01*
X11005214Y-24454071D01*
X10990928Y-24482643D01*
X10976643Y-24496929D01*
X10948071Y-24511214D01*
X10919500Y-24511214D01*
X10890928Y-24496929D01*
X10876643Y-24482643D01*
X10862357Y-24454071D01*
X10848071Y-24396929D01*
X10848071Y-24325500D01*
X10862357Y-24268357D01*
X10876643Y-24239786D01*
X10890928Y-24225500D01*
X10919500Y-24211214D01*
X11205214Y-24211214D02*
X11233786Y-24211214D01*
X11262357Y-24225500D01*
X11276643Y-24239786D01*
X11290928Y-24268357D01*
X11305214Y-24325500D01*
X11305214Y-24396929D01*
X11290928Y-24454071D01*
X11276643Y-24482643D01*
X11262357Y-24496929D01*
X11233786Y-24511214D01*
X11205214Y-24511214D01*
X11176643Y-24496929D01*
X11162357Y-24482643D01*
X11148071Y-24454071D01*
X11133786Y-24396929D01*
X11133786Y-24325500D01*
X11148071Y-24268357D01*
X11162357Y-24239786D01*
X11176643Y-24225500D01*
X11205214Y-24211214D01*
X11662357Y-24511214D02*
X11662357Y-24211214D01*
X11790928Y-24511214D02*
X11790928Y-24354071D01*
X11776643Y-24325500D01*
X11748071Y-24311214D01*
X11705214Y-24311214D01*
X11676643Y-24325500D01*
X11662357Y-24339786D01*
X11976643Y-24511214D02*
X11948071Y-24496929D01*
X11933786Y-24482643D01*
X11919500Y-24454071D01*
X11919500Y-24368357D01*
X11933786Y-24339786D01*
X11948071Y-24325500D01*
X11976643Y-24311214D01*
X12019500Y-24311214D01*
X12048071Y-24325500D01*
X12062357Y-24339786D01*
X12076643Y-24368357D01*
X12076643Y-24454071D01*
X12062357Y-24482643D01*
X12048071Y-24496929D01*
X12019500Y-24511214D01*
X11976643Y-24511214D01*
X12248071Y-24511214D02*
X12219500Y-24496929D01*
X12205214Y-24468357D01*
X12205214Y-24211214D01*
X12476643Y-24496929D02*
X12448071Y-24511214D01*
X12390928Y-24511214D01*
X12362357Y-24496929D01*
X12348071Y-24468357D01*
X12348071Y-24354071D01*
X12362357Y-24325500D01*
X12390928Y-24311214D01*
X12448071Y-24311214D01*
X12476643Y-24325500D01*
X12490928Y-24354071D01*
X12490928Y-24382643D01*
X12348071Y-24411214D01*
X12605214Y-24496929D02*
X12633786Y-24511214D01*
X12690928Y-24511214D01*
X12719500Y-24496929D01*
X12733786Y-24468357D01*
X12733786Y-24454071D01*
X12719500Y-24425500D01*
X12690928Y-24411214D01*
X12648071Y-24411214D01*
X12619500Y-24396929D01*
X12605214Y-24368357D01*
X12605214Y-24354071D01*
X12619500Y-24325500D01*
X12648071Y-24311214D01*
X12690928Y-24311214D01*
X12719500Y-24325500D01*
X12833786Y-24625500D02*
X12848071Y-24611214D01*
X12876643Y-24568357D01*
X12890928Y-24539786D01*
X12905214Y-24496929D01*
X12919500Y-24425500D01*
X12919500Y-24368357D01*
X12905214Y-24296929D01*
X12890928Y-24254071D01*
X12876643Y-24225500D01*
X12848071Y-24182643D01*
X12833786Y-24168357D01*
X5159500Y-24816500D02*
X5204500Y-24771500D01*
X5159500Y-24726500D01*
X5114500Y-24771500D01*
X5159500Y-24816500D01*
X5548071Y-24607214D02*
X5576643Y-24607214D01*
X5605214Y-24621500D01*
X5619500Y-24635786D01*
X5633786Y-24664357D01*
X5648071Y-24721500D01*
X5648071Y-24792929D01*
X5633786Y-24850071D01*
X5619500Y-24878643D01*
X5605214Y-24892929D01*
X5576643Y-24907214D01*
X5548071Y-24907214D01*
X5519500Y-24892929D01*
X5505214Y-24878643D01*
X5490928Y-24850071D01*
X5476643Y-24792929D01*
X5476643Y-24721500D01*
X5490928Y-24664357D01*
X5505214Y-24635786D01*
X5519500Y-24621500D01*
X5548071Y-24607214D01*
X5776643Y-24878643D02*
X5790928Y-24892929D01*
X5776643Y-24907214D01*
X5762357Y-24892929D01*
X5776643Y-24878643D01*
X5776643Y-24907214D01*
X5933786Y-24907214D02*
X5990928Y-24907214D01*
X6019500Y-24892929D01*
X6033786Y-24878643D01*
X6062357Y-24835786D01*
X6076643Y-24778643D01*
X6076643Y-24664357D01*
X6062357Y-24635786D01*
X6048071Y-24621500D01*
X6019500Y-24607214D01*
X5962357Y-24607214D01*
X5933786Y-24621500D01*
X5919500Y-24635786D01*
X5905214Y-24664357D01*
X5905214Y-24735786D01*
X5919500Y-24764357D01*
X5933786Y-24778643D01*
X5962357Y-24792929D01*
X6019500Y-24792929D01*
X6048071Y-24778643D01*
X6062357Y-24764357D01*
X6076643Y-24735786D01*
X6262357Y-24607214D02*
X6290928Y-24607214D01*
X6319500Y-24621500D01*
X6333786Y-24635786D01*
X6348071Y-24664357D01*
X6362357Y-24721500D01*
X6362357Y-24792929D01*
X6348071Y-24850071D01*
X6333786Y-24878643D01*
X6319500Y-24892929D01*
X6290928Y-24907214D01*
X6262357Y-24907214D01*
X6233786Y-24892929D01*
X6219500Y-24878643D01*
X6205214Y-24850071D01*
X6190928Y-24792929D01*
X6190928Y-24721500D01*
X6205214Y-24664357D01*
X6219500Y-24635786D01*
X6233786Y-24621500D01*
X6262357Y-24607214D01*
X6548071Y-24607214D02*
X6576643Y-24607214D01*
X6605214Y-24621500D01*
X6619500Y-24635786D01*
X6633786Y-24664357D01*
X6648071Y-24721500D01*
X6648071Y-24792929D01*
X6633786Y-24850071D01*
X6619500Y-24878643D01*
X6605214Y-24892929D01*
X6576643Y-24907214D01*
X6548071Y-24907214D01*
X6519500Y-24892929D01*
X6505214Y-24878643D01*
X6490928Y-24850071D01*
X6476643Y-24792929D01*
X6476643Y-24721500D01*
X6490928Y-24664357D01*
X6505214Y-24635786D01*
X6519500Y-24621500D01*
X6548071Y-24607214D01*
X6776643Y-24907214D02*
X6776643Y-24707214D01*
X6776643Y-24735786D02*
X6790928Y-24721500D01*
X6819500Y-24707214D01*
X6862357Y-24707214D01*
X6890928Y-24721500D01*
X6905214Y-24750071D01*
X6905214Y-24907214D01*
X6905214Y-24750071D02*
X6919500Y-24721500D01*
X6948071Y-24707214D01*
X6990928Y-24707214D01*
X7019500Y-24721500D01*
X7033786Y-24750071D01*
X7033786Y-24907214D01*
X7176643Y-24907214D02*
X7176643Y-24707214D01*
X7176643Y-24735786D02*
X7190928Y-24721500D01*
X7219500Y-24707214D01*
X7262357Y-24707214D01*
X7290928Y-24721500D01*
X7305214Y-24750071D01*
X7305214Y-24907214D01*
X7305214Y-24750071D02*
X7319500Y-24721500D01*
X7348071Y-24707214D01*
X7390928Y-24707214D01*
X7419500Y-24721500D01*
X7433786Y-24750071D01*
X7433786Y-24907214D01*
X8019500Y-24592929D02*
X7762357Y-24978643D01*
X8405214Y-24607214D02*
X8433786Y-24607214D01*
X8462357Y-24621500D01*
X8476643Y-24635786D01*
X8490928Y-24664357D01*
X8505214Y-24721500D01*
X8505214Y-24792929D01*
X8490928Y-24850071D01*
X8476643Y-24878643D01*
X8462357Y-24892929D01*
X8433786Y-24907214D01*
X8405214Y-24907214D01*
X8376643Y-24892929D01*
X8362357Y-24878643D01*
X8348071Y-24850071D01*
X8333786Y-24792929D01*
X8333786Y-24721500D01*
X8348071Y-24664357D01*
X8362357Y-24635786D01*
X8376643Y-24621500D01*
X8405214Y-24607214D01*
X8633786Y-24878643D02*
X8648071Y-24892929D01*
X8633786Y-24907214D01*
X8619500Y-24892929D01*
X8633786Y-24878643D01*
X8633786Y-24907214D01*
X8833786Y-24607214D02*
X8862357Y-24607214D01*
X8890928Y-24621500D01*
X8905214Y-24635786D01*
X8919500Y-24664357D01*
X8933786Y-24721500D01*
X8933786Y-24792929D01*
X8919500Y-24850071D01*
X8905214Y-24878643D01*
X8890928Y-24892929D01*
X8862357Y-24907214D01*
X8833786Y-24907214D01*
X8805214Y-24892929D01*
X8790928Y-24878643D01*
X8776643Y-24850071D01*
X8762357Y-24792929D01*
X8762357Y-24721500D01*
X8776643Y-24664357D01*
X8790928Y-24635786D01*
X8805214Y-24621500D01*
X8833786Y-24607214D01*
X9033786Y-24607214D02*
X9219500Y-24607214D01*
X9119500Y-24721500D01*
X9162357Y-24721500D01*
X9190928Y-24735786D01*
X9205214Y-24750071D01*
X9219500Y-24778643D01*
X9219500Y-24850071D01*
X9205214Y-24878643D01*
X9190928Y-24892929D01*
X9162357Y-24907214D01*
X9076643Y-24907214D01*
X9048071Y-24892929D01*
X9033786Y-24878643D01*
X9490928Y-24607214D02*
X9348071Y-24607214D01*
X9333786Y-24750071D01*
X9348071Y-24735786D01*
X9376643Y-24721500D01*
X9448071Y-24721500D01*
X9476643Y-24735786D01*
X9490928Y-24750071D01*
X9505214Y-24778643D01*
X9505214Y-24850071D01*
X9490928Y-24878643D01*
X9476643Y-24892929D01*
X9448071Y-24907214D01*
X9376643Y-24907214D01*
X9348071Y-24892929D01*
X9333786Y-24878643D01*
X9762357Y-24707214D02*
X9762357Y-24907214D01*
X9690928Y-24592929D02*
X9619500Y-24807214D01*
X9805214Y-24807214D01*
X9905214Y-24607214D02*
X9905214Y-24664357D01*
X10019500Y-24607214D02*
X10019500Y-24664357D01*
X10462357Y-25021500D02*
X10448071Y-25007214D01*
X10419500Y-24964357D01*
X10405214Y-24935786D01*
X10390928Y-24892929D01*
X10376643Y-24821500D01*
X10376643Y-24764357D01*
X10390928Y-24692929D01*
X10405214Y-24650071D01*
X10419500Y-24621500D01*
X10448071Y-24578643D01*
X10462357Y-24564357D01*
X10562357Y-24635786D02*
X10576643Y-24621500D01*
X10605214Y-24607214D01*
X10676643Y-24607214D01*
X10705214Y-24621500D01*
X10719500Y-24635786D01*
X10733786Y-24664357D01*
X10733786Y-24692929D01*
X10719500Y-24735786D01*
X10548071Y-24907214D01*
X10733786Y-24907214D01*
X11090928Y-24907214D02*
X11090928Y-24607214D01*
X11219500Y-24907214D02*
X11219500Y-24750071D01*
X11205214Y-24721500D01*
X11176643Y-24707214D01*
X11133786Y-24707214D01*
X11105214Y-24721500D01*
X11090928Y-24735786D01*
X11405214Y-24907214D02*
X11376643Y-24892929D01*
X11362357Y-24878643D01*
X11348071Y-24850071D01*
X11348071Y-24764357D01*
X11362357Y-24735786D01*
X11376643Y-24721500D01*
X11405214Y-24707214D01*
X11448071Y-24707214D01*
X11476643Y-24721500D01*
X11490928Y-24735786D01*
X11505214Y-24764357D01*
X11505214Y-24850071D01*
X11490928Y-24878643D01*
X11476643Y-24892929D01*
X11448071Y-24907214D01*
X11405214Y-24907214D01*
X11676643Y-24907214D02*
X11648071Y-24892929D01*
X11633786Y-24864357D01*
X11633786Y-24607214D01*
X11905214Y-24892929D02*
X11876643Y-24907214D01*
X11819500Y-24907214D01*
X11790928Y-24892929D01*
X11776643Y-24864357D01*
X11776643Y-24750071D01*
X11790928Y-24721500D01*
X11819500Y-24707214D01*
X11876643Y-24707214D01*
X11905214Y-24721500D01*
X11919500Y-24750071D01*
X11919500Y-24778643D01*
X11776643Y-24807214D01*
X12033786Y-24892929D02*
X12062357Y-24907214D01*
X12119500Y-24907214D01*
X12148071Y-24892929D01*
X12162357Y-24864357D01*
X12162357Y-24850071D01*
X12148071Y-24821500D01*
X12119500Y-24807214D01*
X12076643Y-24807214D01*
X12048071Y-24792929D01*
X12033786Y-24764357D01*
X12033786Y-24750071D01*
X12048071Y-24721500D01*
X12076643Y-24707214D01*
X12119500Y-24707214D01*
X12148071Y-24721500D01*
X12262357Y-25021500D02*
X12276643Y-25007214D01*
X12305214Y-24964357D01*
X12319500Y-24935786D01*
X12333786Y-24892929D01*
X12348071Y-24821500D01*
X12348071Y-24764357D01*
X12333786Y-24692929D01*
X12319500Y-24650071D01*
X12305214Y-24621500D01*
X12276643Y-24578643D01*
X12262357Y-24564357D01*
X5104500Y-25117500D02*
X5204500Y-25217500D01*
X5204500Y-25117500D02*
X5104500Y-25217500D01*
X5204500Y-25167500D02*
G75*
G03*
X5204500Y-25167500I-50000J0D01*
G01*
X5648071Y-25303214D02*
X5476643Y-25303214D01*
X5562357Y-25303214D02*
X5562357Y-25003214D01*
X5533786Y-25046071D01*
X5505214Y-25074643D01*
X5476643Y-25088929D01*
X5776643Y-25274643D02*
X5790928Y-25288929D01*
X5776643Y-25303214D01*
X5762357Y-25288929D01*
X5776643Y-25274643D01*
X5776643Y-25303214D01*
X5976643Y-25003214D02*
X6005214Y-25003214D01*
X6033786Y-25017500D01*
X6048071Y-25031786D01*
X6062357Y-25060357D01*
X6076643Y-25117500D01*
X6076643Y-25188929D01*
X6062357Y-25246071D01*
X6048071Y-25274643D01*
X6033786Y-25288929D01*
X6005214Y-25303214D01*
X5976643Y-25303214D01*
X5948071Y-25288929D01*
X5933786Y-25274643D01*
X5919500Y-25246071D01*
X5905214Y-25188929D01*
X5905214Y-25117500D01*
X5919500Y-25060357D01*
X5933786Y-25031786D01*
X5948071Y-25017500D01*
X5976643Y-25003214D01*
X6262357Y-25003214D02*
X6290928Y-25003214D01*
X6319500Y-25017500D01*
X6333786Y-25031786D01*
X6348071Y-25060357D01*
X6362357Y-25117500D01*
X6362357Y-25188929D01*
X6348071Y-25246071D01*
X6333786Y-25274643D01*
X6319500Y-25288929D01*
X6290928Y-25303214D01*
X6262357Y-25303214D01*
X6233786Y-25288929D01*
X6219500Y-25274643D01*
X6205214Y-25246071D01*
X6190928Y-25188929D01*
X6190928Y-25117500D01*
X6205214Y-25060357D01*
X6219500Y-25031786D01*
X6233786Y-25017500D01*
X6262357Y-25003214D01*
X6548071Y-25003214D02*
X6576643Y-25003214D01*
X6605214Y-25017500D01*
X6619500Y-25031786D01*
X6633786Y-25060357D01*
X6648071Y-25117500D01*
X6648071Y-25188929D01*
X6633786Y-25246071D01*
X6619500Y-25274643D01*
X6605214Y-25288929D01*
X6576643Y-25303214D01*
X6548071Y-25303214D01*
X6519500Y-25288929D01*
X6505214Y-25274643D01*
X6490928Y-25246071D01*
X6476643Y-25188929D01*
X6476643Y-25117500D01*
X6490928Y-25060357D01*
X6505214Y-25031786D01*
X6519500Y-25017500D01*
X6548071Y-25003214D01*
X6776643Y-25303214D02*
X6776643Y-25103214D01*
X6776643Y-25131786D02*
X6790928Y-25117500D01*
X6819500Y-25103214D01*
X6862357Y-25103214D01*
X6890928Y-25117500D01*
X6905214Y-25146071D01*
X6905214Y-25303214D01*
X6905214Y-25146071D02*
X6919500Y-25117500D01*
X6948071Y-25103214D01*
X6990928Y-25103214D01*
X7019500Y-25117500D01*
X7033786Y-25146071D01*
X7033786Y-25303214D01*
X7176643Y-25303214D02*
X7176643Y-25103214D01*
X7176643Y-25131786D02*
X7190928Y-25117500D01*
X7219500Y-25103214D01*
X7262357Y-25103214D01*
X7290928Y-25117500D01*
X7305214Y-25146071D01*
X7305214Y-25303214D01*
X7305214Y-25146071D02*
X7319500Y-25117500D01*
X7348071Y-25103214D01*
X7390928Y-25103214D01*
X7419500Y-25117500D01*
X7433786Y-25146071D01*
X7433786Y-25303214D01*
X8019500Y-24988929D02*
X7762357Y-25374643D01*
X8405214Y-25003214D02*
X8433786Y-25003214D01*
X8462357Y-25017500D01*
X8476643Y-25031786D01*
X8490928Y-25060357D01*
X8505214Y-25117500D01*
X8505214Y-25188929D01*
X8490928Y-25246071D01*
X8476643Y-25274643D01*
X8462357Y-25288929D01*
X8433786Y-25303214D01*
X8405214Y-25303214D01*
X8376643Y-25288929D01*
X8362357Y-25274643D01*
X8348071Y-25246071D01*
X8333786Y-25188929D01*
X8333786Y-25117500D01*
X8348071Y-25060357D01*
X8362357Y-25031786D01*
X8376643Y-25017500D01*
X8405214Y-25003214D01*
X8633786Y-25274643D02*
X8648071Y-25288929D01*
X8633786Y-25303214D01*
X8619500Y-25288929D01*
X8633786Y-25274643D01*
X8633786Y-25303214D01*
X8833786Y-25003214D02*
X8862357Y-25003214D01*
X8890928Y-25017500D01*
X8905214Y-25031786D01*
X8919500Y-25060357D01*
X8933786Y-25117500D01*
X8933786Y-25188929D01*
X8919500Y-25246071D01*
X8905214Y-25274643D01*
X8890928Y-25288929D01*
X8862357Y-25303214D01*
X8833786Y-25303214D01*
X8805214Y-25288929D01*
X8790928Y-25274643D01*
X8776643Y-25246071D01*
X8762357Y-25188929D01*
X8762357Y-25117500D01*
X8776643Y-25060357D01*
X8790928Y-25031786D01*
X8805214Y-25017500D01*
X8833786Y-25003214D01*
X9033786Y-25003214D02*
X9219500Y-25003214D01*
X9119500Y-25117500D01*
X9162357Y-25117500D01*
X9190928Y-25131786D01*
X9205214Y-25146071D01*
X9219500Y-25174643D01*
X9219500Y-25246071D01*
X9205214Y-25274643D01*
X9190928Y-25288929D01*
X9162357Y-25303214D01*
X9076643Y-25303214D01*
X9048071Y-25288929D01*
X9033786Y-25274643D01*
X9362357Y-25303214D02*
X9419500Y-25303214D01*
X9448071Y-25288929D01*
X9462357Y-25274643D01*
X9490928Y-25231786D01*
X9505214Y-25174643D01*
X9505214Y-25060357D01*
X9490928Y-25031786D01*
X9476643Y-25017500D01*
X9448071Y-25003214D01*
X9390928Y-25003214D01*
X9362357Y-25017500D01*
X9348071Y-25031786D01*
X9333786Y-25060357D01*
X9333786Y-25131786D01*
X9348071Y-25160357D01*
X9362357Y-25174643D01*
X9390928Y-25188929D01*
X9448071Y-25188929D01*
X9476643Y-25174643D01*
X9490928Y-25160357D01*
X9505214Y-25131786D01*
X9762357Y-25103214D02*
X9762357Y-25303214D01*
X9690928Y-24988929D02*
X9619500Y-25203214D01*
X9805214Y-25203214D01*
X9905214Y-25003214D02*
X9905214Y-25060357D01*
X10019500Y-25003214D02*
X10019500Y-25060357D01*
X10462357Y-25417500D02*
X10448071Y-25403214D01*
X10419500Y-25360357D01*
X10405214Y-25331786D01*
X10390928Y-25288929D01*
X10376643Y-25217500D01*
X10376643Y-25160357D01*
X10390928Y-25088929D01*
X10405214Y-25046071D01*
X10419500Y-25017500D01*
X10448071Y-24974643D01*
X10462357Y-24960357D01*
X10633786Y-25003214D02*
X10662357Y-25003214D01*
X10690928Y-25017500D01*
X10705214Y-25031786D01*
X10719500Y-25060357D01*
X10733786Y-25117500D01*
X10733786Y-25188929D01*
X10719500Y-25246071D01*
X10705214Y-25274643D01*
X10690928Y-25288929D01*
X10662357Y-25303214D01*
X10633786Y-25303214D01*
X10605214Y-25288929D01*
X10590928Y-25274643D01*
X10576643Y-25246071D01*
X10562357Y-25188929D01*
X10562357Y-25117500D01*
X10576643Y-25060357D01*
X10590928Y-25031786D01*
X10605214Y-25017500D01*
X10633786Y-25003214D01*
X11090928Y-25303214D02*
X11090928Y-25003214D01*
X11219500Y-25303214D02*
X11219500Y-25146071D01*
X11205214Y-25117500D01*
X11176643Y-25103214D01*
X11133786Y-25103214D01*
X11105214Y-25117500D01*
X11090928Y-25131786D01*
X11405214Y-25303214D02*
X11376643Y-25288929D01*
X11362357Y-25274643D01*
X11348071Y-25246071D01*
X11348071Y-25160357D01*
X11362357Y-25131786D01*
X11376643Y-25117500D01*
X11405214Y-25103214D01*
X11448071Y-25103214D01*
X11476643Y-25117500D01*
X11490928Y-25131786D01*
X11505214Y-25160357D01*
X11505214Y-25246071D01*
X11490928Y-25274643D01*
X11476643Y-25288929D01*
X11448071Y-25303214D01*
X11405214Y-25303214D01*
X11676643Y-25303214D02*
X11648071Y-25288929D01*
X11633786Y-25260357D01*
X11633786Y-25003214D01*
X11905214Y-25288929D02*
X11876643Y-25303214D01*
X11819500Y-25303214D01*
X11790928Y-25288929D01*
X11776643Y-25260357D01*
X11776643Y-25146071D01*
X11790928Y-25117500D01*
X11819500Y-25103214D01*
X11876643Y-25103214D01*
X11905214Y-25117500D01*
X11919500Y-25146071D01*
X11919500Y-25174643D01*
X11776643Y-25203214D01*
X12033786Y-25288929D02*
X12062357Y-25303214D01*
X12119500Y-25303214D01*
X12148071Y-25288929D01*
X12162357Y-25260357D01*
X12162357Y-25246071D01*
X12148071Y-25217500D01*
X12119500Y-25203214D01*
X12076643Y-25203214D01*
X12048071Y-25188929D01*
X12033786Y-25160357D01*
X12033786Y-25146071D01*
X12048071Y-25117500D01*
X12076643Y-25103214D01*
X12119500Y-25103214D01*
X12148071Y-25117500D01*
X12519500Y-25188929D02*
X12748071Y-25188929D01*
X12633786Y-25303214D02*
X12633786Y-25074643D01*
X13090928Y-25003214D02*
X13276643Y-25003214D01*
X13176643Y-25117500D01*
X13219500Y-25117500D01*
X13248071Y-25131786D01*
X13262357Y-25146071D01*
X13276643Y-25174643D01*
X13276643Y-25246071D01*
X13262357Y-25274643D01*
X13248071Y-25288929D01*
X13219500Y-25303214D01*
X13133786Y-25303214D01*
X13105214Y-25288929D01*
X13090928Y-25274643D01*
X13619500Y-25288929D02*
X13648071Y-25303214D01*
X13705214Y-25303214D01*
X13733786Y-25288929D01*
X13748071Y-25260357D01*
X13748071Y-25246071D01*
X13733786Y-25217500D01*
X13705214Y-25203214D01*
X13662357Y-25203214D01*
X13633786Y-25188929D01*
X13619500Y-25160357D01*
X13619500Y-25146071D01*
X13633786Y-25117500D01*
X13662357Y-25103214D01*
X13705214Y-25103214D01*
X13733786Y-25117500D01*
X13919500Y-25303214D02*
X13890928Y-25288929D01*
X13876643Y-25260357D01*
X13876643Y-25003214D01*
X14076643Y-25303214D02*
X14048071Y-25288929D01*
X14033786Y-25274643D01*
X14019500Y-25246071D01*
X14019500Y-25160357D01*
X14033786Y-25131786D01*
X14048071Y-25117500D01*
X14076643Y-25103214D01*
X14119500Y-25103214D01*
X14148071Y-25117500D01*
X14162357Y-25131786D01*
X14176643Y-25160357D01*
X14176643Y-25246071D01*
X14162357Y-25274643D01*
X14148071Y-25288929D01*
X14119500Y-25303214D01*
X14076643Y-25303214D01*
X14262357Y-25103214D02*
X14376643Y-25103214D01*
X14305214Y-25003214D02*
X14305214Y-25260357D01*
X14319500Y-25288929D01*
X14348071Y-25303214D01*
X14376643Y-25303214D01*
X14462357Y-25288929D02*
X14490928Y-25303214D01*
X14548071Y-25303214D01*
X14576643Y-25288929D01*
X14590928Y-25260357D01*
X14590928Y-25246071D01*
X14576643Y-25217500D01*
X14548071Y-25203214D01*
X14505214Y-25203214D01*
X14476643Y-25188929D01*
X14462357Y-25160357D01*
X14462357Y-25146071D01*
X14476643Y-25117500D01*
X14505214Y-25103214D01*
X14548071Y-25103214D01*
X14576643Y-25117500D01*
X14690928Y-25417500D02*
X14705214Y-25403214D01*
X14733786Y-25360357D01*
X14748071Y-25331786D01*
X14762357Y-25288929D01*
X14776643Y-25217500D01*
X14776643Y-25160357D01*
X14762357Y-25088929D01*
X14748071Y-25046071D01*
X14733786Y-25017500D01*
X14705214Y-24974643D01*
X14690928Y-24960357D01*
X5074500Y-25498500D02*
X5204500Y-25628500D01*
X5204500Y-25498500D02*
X5074500Y-25628500D01*
X5139500Y-25498500D02*
X5139500Y-25628500D01*
X5074500Y-25563500D02*
X5204500Y-25563500D01*
X5648071Y-25699214D02*
X5476643Y-25699214D01*
X5562357Y-25699214D02*
X5562357Y-25399214D01*
X5533786Y-25442071D01*
X5505214Y-25470643D01*
X5476643Y-25484929D01*
X5776643Y-25670643D02*
X5790928Y-25684929D01*
X5776643Y-25699214D01*
X5762357Y-25684929D01*
X5776643Y-25670643D01*
X5776643Y-25699214D01*
X5890928Y-25399214D02*
X6076643Y-25399214D01*
X5976643Y-25513500D01*
X6019500Y-25513500D01*
X6048071Y-25527786D01*
X6062357Y-25542071D01*
X6076643Y-25570643D01*
X6076643Y-25642071D01*
X6062357Y-25670643D01*
X6048071Y-25684929D01*
X6019500Y-25699214D01*
X5933786Y-25699214D01*
X5905214Y-25684929D01*
X5890928Y-25670643D01*
X6262357Y-25399214D02*
X6290928Y-25399214D01*
X6319500Y-25413500D01*
X6333786Y-25427786D01*
X6348071Y-25456357D01*
X6362357Y-25513500D01*
X6362357Y-25584929D01*
X6348071Y-25642071D01*
X6333786Y-25670643D01*
X6319500Y-25684929D01*
X6290928Y-25699214D01*
X6262357Y-25699214D01*
X6233786Y-25684929D01*
X6219500Y-25670643D01*
X6205214Y-25642071D01*
X6190928Y-25584929D01*
X6190928Y-25513500D01*
X6205214Y-25456357D01*
X6219500Y-25427786D01*
X6233786Y-25413500D01*
X6262357Y-25399214D01*
X6548071Y-25399214D02*
X6576643Y-25399214D01*
X6605214Y-25413500D01*
X6619500Y-25427786D01*
X6633786Y-25456357D01*
X6648071Y-25513500D01*
X6648071Y-25584929D01*
X6633786Y-25642071D01*
X6619500Y-25670643D01*
X6605214Y-25684929D01*
X6576643Y-25699214D01*
X6548071Y-25699214D01*
X6519500Y-25684929D01*
X6505214Y-25670643D01*
X6490928Y-25642071D01*
X6476643Y-25584929D01*
X6476643Y-25513500D01*
X6490928Y-25456357D01*
X6505214Y-25427786D01*
X6519500Y-25413500D01*
X6548071Y-25399214D01*
X6776643Y-25699214D02*
X6776643Y-25499214D01*
X6776643Y-25527786D02*
X6790928Y-25513500D01*
X6819500Y-25499214D01*
X6862357Y-25499214D01*
X6890928Y-25513500D01*
X6905214Y-25542071D01*
X6905214Y-25699214D01*
X6905214Y-25542071D02*
X6919500Y-25513500D01*
X6948071Y-25499214D01*
X6990928Y-25499214D01*
X7019500Y-25513500D01*
X7033786Y-25542071D01*
X7033786Y-25699214D01*
X7176643Y-25699214D02*
X7176643Y-25499214D01*
X7176643Y-25527786D02*
X7190928Y-25513500D01*
X7219500Y-25499214D01*
X7262357Y-25499214D01*
X7290928Y-25513500D01*
X7305214Y-25542071D01*
X7305214Y-25699214D01*
X7305214Y-25542071D02*
X7319500Y-25513500D01*
X7348071Y-25499214D01*
X7390928Y-25499214D01*
X7419500Y-25513500D01*
X7433786Y-25542071D01*
X7433786Y-25699214D01*
X8019500Y-25384929D02*
X7762357Y-25770643D01*
X8405214Y-25399214D02*
X8433786Y-25399214D01*
X8462357Y-25413500D01*
X8476643Y-25427786D01*
X8490928Y-25456357D01*
X8505214Y-25513500D01*
X8505214Y-25584929D01*
X8490928Y-25642071D01*
X8476643Y-25670643D01*
X8462357Y-25684929D01*
X8433786Y-25699214D01*
X8405214Y-25699214D01*
X8376643Y-25684929D01*
X8362357Y-25670643D01*
X8348071Y-25642071D01*
X8333786Y-25584929D01*
X8333786Y-25513500D01*
X8348071Y-25456357D01*
X8362357Y-25427786D01*
X8376643Y-25413500D01*
X8405214Y-25399214D01*
X8633786Y-25670643D02*
X8648071Y-25684929D01*
X8633786Y-25699214D01*
X8619500Y-25684929D01*
X8633786Y-25670643D01*
X8633786Y-25699214D01*
X8833786Y-25399214D02*
X8862357Y-25399214D01*
X8890928Y-25413500D01*
X8905214Y-25427786D01*
X8919500Y-25456357D01*
X8933786Y-25513500D01*
X8933786Y-25584929D01*
X8919500Y-25642071D01*
X8905214Y-25670643D01*
X8890928Y-25684929D01*
X8862357Y-25699214D01*
X8833786Y-25699214D01*
X8805214Y-25684929D01*
X8790928Y-25670643D01*
X8776643Y-25642071D01*
X8762357Y-25584929D01*
X8762357Y-25513500D01*
X8776643Y-25456357D01*
X8790928Y-25427786D01*
X8805214Y-25413500D01*
X8833786Y-25399214D01*
X9205214Y-25399214D02*
X9062357Y-25399214D01*
X9048071Y-25542071D01*
X9062357Y-25527786D01*
X9090928Y-25513500D01*
X9162357Y-25513500D01*
X9190928Y-25527786D01*
X9205214Y-25542071D01*
X9219500Y-25570643D01*
X9219500Y-25642071D01*
X9205214Y-25670643D01*
X9190928Y-25684929D01*
X9162357Y-25699214D01*
X9090928Y-25699214D01*
X9062357Y-25684929D01*
X9048071Y-25670643D01*
X9505214Y-25699214D02*
X9333786Y-25699214D01*
X9419500Y-25699214D02*
X9419500Y-25399214D01*
X9390928Y-25442071D01*
X9362357Y-25470643D01*
X9333786Y-25484929D01*
X9619500Y-25427786D02*
X9633786Y-25413500D01*
X9662357Y-25399214D01*
X9733786Y-25399214D01*
X9762357Y-25413500D01*
X9776643Y-25427786D01*
X9790928Y-25456357D01*
X9790928Y-25484929D01*
X9776643Y-25527786D01*
X9605214Y-25699214D01*
X9790928Y-25699214D01*
X9905214Y-25399214D02*
X9905214Y-25456357D01*
X10019500Y-25399214D02*
X10019500Y-25456357D01*
X10462357Y-25813500D02*
X10448071Y-25799214D01*
X10419500Y-25756357D01*
X10405214Y-25727786D01*
X10390928Y-25684929D01*
X10376643Y-25613500D01*
X10376643Y-25556357D01*
X10390928Y-25484929D01*
X10405214Y-25442071D01*
X10419500Y-25413500D01*
X10448071Y-25370643D01*
X10462357Y-25356357D01*
X10733786Y-25699214D02*
X10562357Y-25699214D01*
X10648071Y-25699214D02*
X10648071Y-25399214D01*
X10619500Y-25442071D01*
X10590928Y-25470643D01*
X10562357Y-25484929D01*
X11019500Y-25699214D02*
X10848071Y-25699214D01*
X10933786Y-25699214D02*
X10933786Y-25399214D01*
X10905214Y-25442071D01*
X10876643Y-25470643D01*
X10848071Y-25484929D01*
X11376643Y-25699214D02*
X11376643Y-25399214D01*
X11505214Y-25699214D02*
X11505214Y-25542071D01*
X11490928Y-25513500D01*
X11462357Y-25499214D01*
X11419500Y-25499214D01*
X11390928Y-25513500D01*
X11376643Y-25527786D01*
X11690928Y-25699214D02*
X11662357Y-25684929D01*
X11648071Y-25670643D01*
X11633786Y-25642071D01*
X11633786Y-25556357D01*
X11648071Y-25527786D01*
X11662357Y-25513500D01*
X11690928Y-25499214D01*
X11733786Y-25499214D01*
X11762357Y-25513500D01*
X11776643Y-25527786D01*
X11790928Y-25556357D01*
X11790928Y-25642071D01*
X11776643Y-25670643D01*
X11762357Y-25684929D01*
X11733786Y-25699214D01*
X11690928Y-25699214D01*
X11962357Y-25699214D02*
X11933786Y-25684929D01*
X11919500Y-25656357D01*
X11919500Y-25399214D01*
X12190928Y-25684929D02*
X12162357Y-25699214D01*
X12105214Y-25699214D01*
X12076643Y-25684929D01*
X12062357Y-25656357D01*
X12062357Y-25542071D01*
X12076643Y-25513500D01*
X12105214Y-25499214D01*
X12162357Y-25499214D01*
X12190928Y-25513500D01*
X12205214Y-25542071D01*
X12205214Y-25570643D01*
X12062357Y-25599214D01*
X12319500Y-25684929D02*
X12348071Y-25699214D01*
X12405214Y-25699214D01*
X12433786Y-25684929D01*
X12448071Y-25656357D01*
X12448071Y-25642071D01*
X12433786Y-25613500D01*
X12405214Y-25599214D01*
X12362357Y-25599214D01*
X12333786Y-25584929D01*
X12319500Y-25556357D01*
X12319500Y-25542071D01*
X12333786Y-25513500D01*
X12362357Y-25499214D01*
X12405214Y-25499214D01*
X12433786Y-25513500D01*
X12548071Y-25813500D02*
X12562357Y-25799214D01*
X12590928Y-25756357D01*
X12605214Y-25727786D01*
X12619500Y-25684929D01*
X12633786Y-25613500D01*
X12633786Y-25556357D01*
X12619500Y-25484929D01*
X12605214Y-25442071D01*
X12590928Y-25413500D01*
X12562357Y-25370643D01*
X12548071Y-25356357D01*
X5044500Y-25879500D02*
X5204500Y-26039500D01*
X5204500Y-25879500D02*
X5044500Y-26039500D01*
X5181069Y-26016069D02*
X5181069Y-25902931D01*
X5067931Y-25902931D01*
X5067931Y-26016069D01*
X5181069Y-26016069D01*
X5648071Y-26095214D02*
X5476643Y-26095214D01*
X5562357Y-26095214D02*
X5562357Y-25795214D01*
X5533786Y-25838071D01*
X5505214Y-25866643D01*
X5476643Y-25880929D01*
X5776643Y-26066643D02*
X5790928Y-26080929D01*
X5776643Y-26095214D01*
X5762357Y-26080929D01*
X5776643Y-26066643D01*
X5776643Y-26095214D01*
X6048071Y-25795214D02*
X5990928Y-25795214D01*
X5962357Y-25809500D01*
X5948071Y-25823786D01*
X5919500Y-25866643D01*
X5905214Y-25923786D01*
X5905214Y-26038071D01*
X5919500Y-26066643D01*
X5933786Y-26080929D01*
X5962357Y-26095214D01*
X6019500Y-26095214D01*
X6048071Y-26080929D01*
X6062357Y-26066643D01*
X6076643Y-26038071D01*
X6076643Y-25966643D01*
X6062357Y-25938071D01*
X6048071Y-25923786D01*
X6019500Y-25909500D01*
X5962357Y-25909500D01*
X5933786Y-25923786D01*
X5919500Y-25938071D01*
X5905214Y-25966643D01*
X6262357Y-25795214D02*
X6290928Y-25795214D01*
X6319500Y-25809500D01*
X6333786Y-25823786D01*
X6348071Y-25852357D01*
X6362357Y-25909500D01*
X6362357Y-25980929D01*
X6348071Y-26038071D01*
X6333786Y-26066643D01*
X6319500Y-26080929D01*
X6290928Y-26095214D01*
X6262357Y-26095214D01*
X6233786Y-26080929D01*
X6219500Y-26066643D01*
X6205214Y-26038071D01*
X6190928Y-25980929D01*
X6190928Y-25909500D01*
X6205214Y-25852357D01*
X6219500Y-25823786D01*
X6233786Y-25809500D01*
X6262357Y-25795214D01*
X6548071Y-25795214D02*
X6576643Y-25795214D01*
X6605214Y-25809500D01*
X6619500Y-25823786D01*
X6633786Y-25852357D01*
X6648071Y-25909500D01*
X6648071Y-25980929D01*
X6633786Y-26038071D01*
X6619500Y-26066643D01*
X6605214Y-26080929D01*
X6576643Y-26095214D01*
X6548071Y-26095214D01*
X6519500Y-26080929D01*
X6505214Y-26066643D01*
X6490928Y-26038071D01*
X6476643Y-25980929D01*
X6476643Y-25909500D01*
X6490928Y-25852357D01*
X6505214Y-25823786D01*
X6519500Y-25809500D01*
X6548071Y-25795214D01*
X6776643Y-26095214D02*
X6776643Y-25895214D01*
X6776643Y-25923786D02*
X6790928Y-25909500D01*
X6819500Y-25895214D01*
X6862357Y-25895214D01*
X6890928Y-25909500D01*
X6905214Y-25938071D01*
X6905214Y-26095214D01*
X6905214Y-25938071D02*
X6919500Y-25909500D01*
X6948071Y-25895214D01*
X6990928Y-25895214D01*
X7019500Y-25909500D01*
X7033786Y-25938071D01*
X7033786Y-26095214D01*
X7176643Y-26095214D02*
X7176643Y-25895214D01*
X7176643Y-25923786D02*
X7190928Y-25909500D01*
X7219500Y-25895214D01*
X7262357Y-25895214D01*
X7290928Y-25909500D01*
X7305214Y-25938071D01*
X7305214Y-26095214D01*
X7305214Y-25938071D02*
X7319500Y-25909500D01*
X7348071Y-25895214D01*
X7390928Y-25895214D01*
X7419500Y-25909500D01*
X7433786Y-25938071D01*
X7433786Y-26095214D01*
X8019500Y-25780929D02*
X7762357Y-26166643D01*
X8405214Y-25795214D02*
X8433786Y-25795214D01*
X8462357Y-25809500D01*
X8476643Y-25823786D01*
X8490928Y-25852357D01*
X8505214Y-25909500D01*
X8505214Y-25980929D01*
X8490928Y-26038071D01*
X8476643Y-26066643D01*
X8462357Y-26080929D01*
X8433786Y-26095214D01*
X8405214Y-26095214D01*
X8376643Y-26080929D01*
X8362357Y-26066643D01*
X8348071Y-26038071D01*
X8333786Y-25980929D01*
X8333786Y-25909500D01*
X8348071Y-25852357D01*
X8362357Y-25823786D01*
X8376643Y-25809500D01*
X8405214Y-25795214D01*
X8633786Y-26066643D02*
X8648071Y-26080929D01*
X8633786Y-26095214D01*
X8619500Y-26080929D01*
X8633786Y-26066643D01*
X8633786Y-26095214D01*
X8833786Y-25795214D02*
X8862357Y-25795214D01*
X8890928Y-25809500D01*
X8905214Y-25823786D01*
X8919500Y-25852357D01*
X8933786Y-25909500D01*
X8933786Y-25980929D01*
X8919500Y-26038071D01*
X8905214Y-26066643D01*
X8890928Y-26080929D01*
X8862357Y-26095214D01*
X8833786Y-26095214D01*
X8805214Y-26080929D01*
X8790928Y-26066643D01*
X8776643Y-26038071D01*
X8762357Y-25980929D01*
X8762357Y-25909500D01*
X8776643Y-25852357D01*
X8790928Y-25823786D01*
X8805214Y-25809500D01*
X8833786Y-25795214D01*
X9190928Y-25795214D02*
X9133786Y-25795214D01*
X9105214Y-25809500D01*
X9090928Y-25823786D01*
X9062357Y-25866643D01*
X9048071Y-25923786D01*
X9048071Y-26038071D01*
X9062357Y-26066643D01*
X9076643Y-26080929D01*
X9105214Y-26095214D01*
X9162357Y-26095214D01*
X9190928Y-26080929D01*
X9205214Y-26066643D01*
X9219500Y-26038071D01*
X9219500Y-25966643D01*
X9205214Y-25938071D01*
X9190928Y-25923786D01*
X9162357Y-25909500D01*
X9105214Y-25909500D01*
X9076643Y-25923786D01*
X9062357Y-25938071D01*
X9048071Y-25966643D01*
X9319500Y-25795214D02*
X9505214Y-25795214D01*
X9405214Y-25909500D01*
X9448071Y-25909500D01*
X9476643Y-25923786D01*
X9490928Y-25938071D01*
X9505214Y-25966643D01*
X9505214Y-26038071D01*
X9490928Y-26066643D01*
X9476643Y-26080929D01*
X9448071Y-26095214D01*
X9362357Y-26095214D01*
X9333786Y-26080929D01*
X9319500Y-26066643D01*
X9690928Y-25795214D02*
X9719500Y-25795214D01*
X9748071Y-25809500D01*
X9762357Y-25823786D01*
X9776643Y-25852357D01*
X9790928Y-25909500D01*
X9790928Y-25980929D01*
X9776643Y-26038071D01*
X9762357Y-26066643D01*
X9748071Y-26080929D01*
X9719500Y-26095214D01*
X9690928Y-26095214D01*
X9662357Y-26080929D01*
X9648071Y-26066643D01*
X9633786Y-26038071D01*
X9619500Y-25980929D01*
X9619500Y-25909500D01*
X9633786Y-25852357D01*
X9648071Y-25823786D01*
X9662357Y-25809500D01*
X9690928Y-25795214D01*
X9905214Y-25795214D02*
X9905214Y-25852357D01*
X10019500Y-25795214D02*
X10019500Y-25852357D01*
X10462357Y-26209500D02*
X10448071Y-26195214D01*
X10419500Y-26152357D01*
X10405214Y-26123786D01*
X10390928Y-26080929D01*
X10376643Y-26009500D01*
X10376643Y-25952357D01*
X10390928Y-25880929D01*
X10405214Y-25838071D01*
X10419500Y-25809500D01*
X10448071Y-25766643D01*
X10462357Y-25752357D01*
X10733786Y-26095214D02*
X10562357Y-26095214D01*
X10648071Y-26095214D02*
X10648071Y-25795214D01*
X10619500Y-25838071D01*
X10590928Y-25866643D01*
X10562357Y-25880929D01*
X10876643Y-26095214D02*
X10933786Y-26095214D01*
X10962357Y-26080929D01*
X10976643Y-26066643D01*
X11005214Y-26023786D01*
X11019500Y-25966643D01*
X11019500Y-25852357D01*
X11005214Y-25823786D01*
X10990928Y-25809500D01*
X10962357Y-25795214D01*
X10905214Y-25795214D01*
X10876643Y-25809500D01*
X10862357Y-25823786D01*
X10848071Y-25852357D01*
X10848071Y-25923786D01*
X10862357Y-25952357D01*
X10876643Y-25966643D01*
X10905214Y-25980929D01*
X10962357Y-25980929D01*
X10990928Y-25966643D01*
X11005214Y-25952357D01*
X11019500Y-25923786D01*
X11376643Y-26095214D02*
X11376643Y-25795214D01*
X11505214Y-26095214D02*
X11505214Y-25938071D01*
X11490928Y-25909500D01*
X11462357Y-25895214D01*
X11419500Y-25895214D01*
X11390928Y-25909500D01*
X11376643Y-25923786D01*
X11690928Y-26095214D02*
X11662357Y-26080929D01*
X11648071Y-26066643D01*
X11633786Y-26038071D01*
X11633786Y-25952357D01*
X11648071Y-25923786D01*
X11662357Y-25909500D01*
X11690928Y-25895214D01*
X11733786Y-25895214D01*
X11762357Y-25909500D01*
X11776643Y-25923786D01*
X11790928Y-25952357D01*
X11790928Y-26038071D01*
X11776643Y-26066643D01*
X11762357Y-26080929D01*
X11733786Y-26095214D01*
X11690928Y-26095214D01*
X11962357Y-26095214D02*
X11933786Y-26080929D01*
X11919500Y-26052357D01*
X11919500Y-25795214D01*
X12190928Y-26080929D02*
X12162357Y-26095214D01*
X12105214Y-26095214D01*
X12076643Y-26080929D01*
X12062357Y-26052357D01*
X12062357Y-25938071D01*
X12076643Y-25909500D01*
X12105214Y-25895214D01*
X12162357Y-25895214D01*
X12190928Y-25909500D01*
X12205214Y-25938071D01*
X12205214Y-25966643D01*
X12062357Y-25995214D01*
X12319500Y-26080929D02*
X12348071Y-26095214D01*
X12405214Y-26095214D01*
X12433786Y-26080929D01*
X12448071Y-26052357D01*
X12448071Y-26038071D01*
X12433786Y-26009500D01*
X12405214Y-25995214D01*
X12362357Y-25995214D01*
X12333786Y-25980929D01*
X12319500Y-25952357D01*
X12319500Y-25938071D01*
X12333786Y-25909500D01*
X12362357Y-25895214D01*
X12405214Y-25895214D01*
X12433786Y-25909500D01*
X12548071Y-26209500D02*
X12562357Y-26195214D01*
X12590928Y-26152357D01*
X12605214Y-26123786D01*
X12619500Y-26080929D01*
X12633786Y-26009500D01*
X12633786Y-25952357D01*
X12619500Y-25880929D01*
X12605214Y-25838071D01*
X12590928Y-25809500D01*
X12562357Y-25766643D01*
X12548071Y-25752357D01*
M02*
