G04 #@! TF.GenerationSoftware,KiCad,Pcbnew,(5.1.10-1-10_14)*
G04 #@! TF.CreationDate,2021-11-12T14:31:54-05:00*
G04 #@! TF.ProjectId,Guitar_Amp,47756974-6172-45f4-916d-702e6b696361,rev?*
G04 #@! TF.SameCoordinates,Original*
G04 #@! TF.FileFunction,Soldermask,Bot*
G04 #@! TF.FilePolarity,Negative*
%FSLAX46Y46*%
G04 Gerber Fmt 4.6, Leading zero omitted, Abs format (unit mm)*
G04 Created by KiCad (PCBNEW (5.1.10-1-10_14)) date 2021-11-12 14:31:54*
%MOMM*%
%LPD*%
G01*
G04 APERTURE LIST*
%ADD10C,0.854000*%
%ADD11C,2.901600*%
%ADD12C,3.301600*%
%ADD13C,1.701600*%
%ADD14C,2.441600*%
%ADD15C,1.301600*%
%ADD16O,2.517600X1.309600*%
%ADD17O,1.309600X2.517600*%
%ADD18O,1.701600X1.701600*%
%ADD19C,1.901600*%
%ADD20O,1.701600X2.501600*%
%ADD21O,2.501600X1.701600*%
%ADD22O,1.601600X1.151600*%
%ADD23C,2.701600*%
%ADD24C,2.501600*%
%ADD25O,4.601600X2.351600*%
%ADD26O,2.351600X4.601600*%
%ADD27O,2.601600X5.101600*%
%ADD28C,1.501600*%
G04 APERTURE END LIST*
D10*
X55093000Y-100377000D02*
G75*
G03*
X55093000Y-100377000I-427000J0D01*
G01*
X57593000Y-100377000D02*
G75*
G03*
X57593000Y-100377000I-427000J0D01*
G01*
X55093000Y-90377000D02*
G75*
G03*
X55093000Y-90377000I-427000J0D01*
G01*
X57593000Y-90377000D02*
G75*
G03*
X57593000Y-90377000I-427000J0D01*
G01*
X62593000Y-95377000D02*
G75*
G03*
X62593000Y-95377000I-427000J0D01*
G01*
X55093000Y-100377000D02*
G75*
G03*
X55093000Y-100377000I-427000J0D01*
G01*
X57593000Y-100377000D02*
G75*
G03*
X57593000Y-100377000I-427000J0D01*
G01*
X55093000Y-90377000D02*
G75*
G03*
X55093000Y-90377000I-427000J0D01*
G01*
X57593000Y-90377000D02*
G75*
G03*
X57593000Y-90377000I-427000J0D01*
G01*
X62593000Y-95377000D02*
G75*
G03*
X62593000Y-95377000I-427000J0D01*
G01*
D11*
X107696000Y-217424000D03*
X110744000Y-205740000D03*
X86868000Y-131572000D03*
X125984000Y-152400000D03*
X128270000Y-115570000D03*
X108204000Y-111760000D03*
X103632000Y-73152000D03*
X82550000Y-121920000D03*
X93472000Y-74676000D03*
X70358000Y-59182000D03*
X78740000Y-58420000D03*
D12*
X89535000Y-170180000D03*
X120777000Y-131445000D03*
D13*
X126365000Y-191730000D03*
G36*
G01*
X125565000Y-188379200D02*
X127165000Y-188379200D01*
G75*
G02*
X127215800Y-188430000I0J-50800D01*
G01*
X127215800Y-190030000D01*
G75*
G02*
X127165000Y-190080800I-50800J0D01*
G01*
X125565000Y-190080800D01*
G75*
G02*
X125514200Y-190030000I0J50800D01*
G01*
X125514200Y-188430000D01*
G75*
G02*
X125565000Y-188379200I50800J0D01*
G01*
G37*
X118444000Y-66040000D03*
X123444000Y-66040000D03*
X130556000Y-100544000D03*
X130556000Y-98044000D03*
D14*
X55880000Y-180848000D03*
X55880000Y-185848000D03*
X55880000Y-190848000D03*
D15*
X54666000Y-90377000D03*
X54666000Y-100377000D03*
X57166000Y-100377000D03*
X57166000Y-90377000D03*
X62166000Y-95377000D03*
D16*
X62166000Y-97877000D03*
X62166000Y-90377000D03*
X62166000Y-100377000D03*
D17*
X57166000Y-95377000D03*
D13*
X70485000Y-73660000D03*
D18*
X70485000Y-81280000D03*
D19*
X55245000Y-78105000D03*
G36*
G01*
X54345000Y-74614200D02*
X56145000Y-74614200D01*
G75*
G02*
X56195800Y-74665000I0J-50800D01*
G01*
X56195800Y-76465000D01*
G75*
G02*
X56145000Y-76515800I-50800J0D01*
G01*
X54345000Y-76515800D01*
G75*
G02*
X54294200Y-76465000I0J50800D01*
G01*
X54294200Y-74665000D01*
G75*
G02*
X54345000Y-74614200I50800J0D01*
G01*
G37*
D13*
X109220000Y-140716000D03*
X109220000Y-135716000D03*
X104140000Y-198200000D03*
X104140000Y-203200000D03*
X85090000Y-116506000D03*
X85090000Y-111506000D03*
D20*
X116205000Y-182880000D03*
X100965000Y-175260000D03*
X113665000Y-182880000D03*
X103505000Y-175260000D03*
X111125000Y-182880000D03*
X106045000Y-175260000D03*
X108585000Y-182880000D03*
X108585000Y-175260000D03*
X106045000Y-182880000D03*
X111125000Y-175260000D03*
X103505000Y-182880000D03*
X113665000Y-175260000D03*
X100965000Y-182880000D03*
G36*
G01*
X115405000Y-174009200D02*
X117005000Y-174009200D01*
G75*
G02*
X117055800Y-174060000I0J-50800D01*
G01*
X117055800Y-176460000D01*
G75*
G02*
X117005000Y-176510800I-50800J0D01*
G01*
X115405000Y-176510800D01*
G75*
G02*
X115354200Y-176460000I0J50800D01*
G01*
X115354200Y-174060000D01*
G75*
G02*
X115405000Y-174009200I50800J0D01*
G01*
G37*
D21*
X125603000Y-87884000D03*
X117983000Y-95504000D03*
X125603000Y-90424000D03*
X117983000Y-92964000D03*
X125603000Y-92964000D03*
X117983000Y-90424000D03*
X125603000Y-95504000D03*
G36*
G01*
X116732200Y-88684000D02*
X116732200Y-87084000D01*
G75*
G02*
X116783000Y-87033200I50800J0D01*
G01*
X119183000Y-87033200D01*
G75*
G02*
X119233800Y-87084000I0J-50800D01*
G01*
X119233800Y-88684000D01*
G75*
G02*
X119183000Y-88734800I-50800J0D01*
G01*
X116783000Y-88734800D01*
G75*
G02*
X116732200Y-88684000I0J50800D01*
G01*
G37*
D14*
X55880000Y-204724000D03*
X55880000Y-209724000D03*
X55880000Y-214724000D03*
X55880000Y-157480000D03*
X55880000Y-162480000D03*
X55880000Y-167480000D03*
D18*
X118364000Y-195072000D03*
D13*
X118364000Y-202692000D03*
D18*
X85725000Y-139065000D03*
D13*
X93345000Y-139065000D03*
D18*
X96520000Y-205232000D03*
D13*
X96520000Y-197612000D03*
D18*
X99060000Y-146685000D03*
D13*
X91440000Y-146685000D03*
D18*
X91440000Y-153670000D03*
D13*
X99060000Y-153670000D03*
D18*
X101092000Y-132588000D03*
D13*
X101092000Y-124968000D03*
D18*
X133604000Y-115824000D03*
D13*
X133604000Y-123444000D03*
D18*
X134112000Y-96012000D03*
D13*
X134112000Y-103632000D03*
D18*
X112268000Y-103124000D03*
D13*
X112268000Y-110744000D03*
D18*
X125476000Y-108712000D03*
D13*
X117856000Y-108712000D03*
D18*
X117856000Y-102108000D03*
D13*
X125476000Y-102108000D03*
D18*
X134543800Y-69672200D03*
D13*
X126923800Y-69672200D03*
D18*
X112268000Y-82804000D03*
D13*
X112268000Y-75184000D03*
D18*
X89916000Y-84836000D03*
D13*
X89916000Y-92456000D03*
D18*
X97155000Y-93980000D03*
D13*
X97155000Y-86360000D03*
D18*
X63627000Y-74295000D03*
D13*
X63627000Y-81915000D03*
X97155000Y-106045000D03*
D18*
X97155000Y-113665000D03*
X79375000Y-73025000D03*
D13*
X79375000Y-80645000D03*
D18*
X72390000Y-94615000D03*
D13*
X80010000Y-94615000D03*
D18*
X72390000Y-100330000D03*
D13*
X80010000Y-100330000D03*
D18*
X72390000Y-88900000D03*
D13*
X80010000Y-88900000D03*
G36*
G01*
X101715000Y-140275800D02*
X100215000Y-140275800D01*
G75*
G02*
X100164200Y-140225000I0J50800D01*
G01*
X100164200Y-139175000D01*
G75*
G02*
X100215000Y-139124200I50800J0D01*
G01*
X101715000Y-139124200D01*
G75*
G02*
X101765800Y-139175000I0J-50800D01*
G01*
X101765800Y-140225000D01*
G75*
G02*
X101715000Y-140275800I-50800J0D01*
G01*
G37*
D22*
X100965000Y-137160000D03*
X100965000Y-138430000D03*
G36*
G01*
X96405000Y-98484200D02*
X97905000Y-98484200D01*
G75*
G02*
X97955800Y-98535000I0J-50800D01*
G01*
X97955800Y-99585000D01*
G75*
G02*
X97905000Y-99635800I-50800J0D01*
G01*
X96405000Y-99635800D01*
G75*
G02*
X96354200Y-99585000I0J50800D01*
G01*
X96354200Y-98535000D01*
G75*
G02*
X96405000Y-98484200I50800J0D01*
G01*
G37*
X97155000Y-101600000D03*
X97155000Y-100330000D03*
D23*
X129540000Y-211408000D03*
G36*
G01*
X130840000Y-217758800D02*
X128240000Y-217758800D01*
G75*
G02*
X128189200Y-217708000I0J50800D01*
G01*
X128189200Y-215108000D01*
G75*
G02*
X128240000Y-215057200I50800J0D01*
G01*
X130840000Y-215057200D01*
G75*
G02*
X130890800Y-215108000I0J-50800D01*
G01*
X130890800Y-217708000D01*
G75*
G02*
X130840000Y-217758800I-50800J0D01*
G01*
G37*
D24*
X68763464Y-130915000D03*
X56163464Y-130915000D03*
X68763464Y-147215000D03*
G36*
G01*
X54912664Y-148415000D02*
X54912664Y-146015000D01*
G75*
G02*
X54963464Y-145964200I50800J0D01*
G01*
X57363464Y-145964200D01*
G75*
G02*
X57414264Y-146015000I0J-50800D01*
G01*
X57414264Y-148415000D01*
G75*
G02*
X57363464Y-148465800I-50800J0D01*
G01*
X54963464Y-148465800D01*
G75*
G02*
X54912664Y-148415000I0J50800D01*
G01*
G37*
D25*
X63548000Y-69470000D03*
D26*
X60548000Y-64770000D03*
D27*
X66548000Y-64770000D03*
D24*
X68763464Y-106277000D03*
X56163464Y-106277000D03*
X68763464Y-122577000D03*
G36*
G01*
X54912664Y-123777000D02*
X54912664Y-121377000D01*
G75*
G02*
X54963464Y-121326200I50800J0D01*
G01*
X57363464Y-121326200D01*
G75*
G02*
X57414264Y-121377000I0J-50800D01*
G01*
X57414264Y-123777000D01*
G75*
G02*
X57363464Y-123827800I-50800J0D01*
G01*
X54963464Y-123827800D01*
G75*
G02*
X54912664Y-123777000I0J50800D01*
G01*
G37*
D12*
X89408000Y-58928000D03*
X138176000Y-58928000D03*
X71120000Y-218440000D03*
X116840000Y-218440000D03*
D18*
X124968000Y-80264000D03*
G36*
G01*
X116497200Y-81064000D02*
X116497200Y-79464000D01*
G75*
G02*
X116548000Y-79413200I50800J0D01*
G01*
X118148000Y-79413200D01*
G75*
G02*
X118198800Y-79464000I0J-50800D01*
G01*
X118198800Y-81064000D01*
G75*
G02*
X118148000Y-81114800I-50800J0D01*
G01*
X116548000Y-81114800D01*
G75*
G02*
X116497200Y-81064000I0J50800D01*
G01*
G37*
X117348000Y-73152000D03*
G36*
G01*
X125818800Y-72352000D02*
X125818800Y-73952000D01*
G75*
G02*
X125768000Y-74002800I-50800J0D01*
G01*
X124168000Y-74002800D01*
G75*
G02*
X124117200Y-73952000I0J50800D01*
G01*
X124117200Y-72352000D01*
G75*
G02*
X124168000Y-72301200I50800J0D01*
G01*
X125768000Y-72301200D01*
G75*
G02*
X125818800Y-72352000I0J-50800D01*
G01*
G37*
D13*
X130556000Y-200620000D03*
G36*
G01*
X129756000Y-197269200D02*
X131356000Y-197269200D01*
G75*
G02*
X131406800Y-197320000I0J-50800D01*
G01*
X131406800Y-198920000D01*
G75*
G02*
X131356000Y-198970800I-50800J0D01*
G01*
X129756000Y-198970800D01*
G75*
G02*
X129705200Y-198920000I0J50800D01*
G01*
X129705200Y-197320000D01*
G75*
G02*
X129756000Y-197269200I50800J0D01*
G01*
G37*
D15*
X85495000Y-146685000D03*
G36*
G01*
X87645800Y-146085000D02*
X87645800Y-147285000D01*
G75*
G02*
X87595000Y-147335800I-50800J0D01*
G01*
X86395000Y-147335800D01*
G75*
G02*
X86344200Y-147285000I0J50800D01*
G01*
X86344200Y-146085000D01*
G75*
G02*
X86395000Y-146034200I50800J0D01*
G01*
X87595000Y-146034200D01*
G75*
G02*
X87645800Y-146085000I0J-50800D01*
G01*
G37*
D13*
X126365000Y-182840000D03*
G36*
G01*
X125565000Y-179489200D02*
X127165000Y-179489200D01*
G75*
G02*
X127215800Y-179540000I0J-50800D01*
G01*
X127215800Y-181140000D01*
G75*
G02*
X127165000Y-181190800I-50800J0D01*
G01*
X125565000Y-181190800D01*
G75*
G02*
X125514200Y-181140000I0J50800D01*
G01*
X125514200Y-179540000D01*
G75*
G02*
X125565000Y-179489200I50800J0D01*
G01*
G37*
X114895000Y-188595000D03*
X112395000Y-188595000D03*
X113284000Y-159592000D03*
X113284000Y-164592000D03*
D28*
X133604000Y-108752000D03*
X133604000Y-111252000D03*
D13*
X112268000Y-121332000D03*
X112268000Y-116332000D03*
X134540000Y-80264000D03*
X129540000Y-80264000D03*
X130683000Y-90384000D03*
X130683000Y-87884000D03*
D28*
X102910000Y-93980000D03*
X105410000Y-93980000D03*
D13*
X86868000Y-74200000D03*
G36*
G01*
X87668000Y-77050800D02*
X86068000Y-77050800D01*
G75*
G02*
X86017200Y-77000000I0J50800D01*
G01*
X86017200Y-75400000D01*
G75*
G02*
X86068000Y-75349200I50800J0D01*
G01*
X87668000Y-75349200D01*
G75*
G02*
X87718800Y-75400000I0J-50800D01*
G01*
X87718800Y-77000000D01*
G75*
G02*
X87668000Y-77050800I-50800J0D01*
G01*
G37*
X79208000Y-65024000D03*
G36*
G01*
X75857200Y-65824000D02*
X75857200Y-64224000D01*
G75*
G02*
X75908000Y-64173200I50800J0D01*
G01*
X77508000Y-64173200D01*
G75*
G02*
X77558800Y-64224000I0J-50800D01*
G01*
X77558800Y-65824000D01*
G75*
G02*
X77508000Y-65874800I-50800J0D01*
G01*
X75908000Y-65874800D01*
G75*
G02*
X75857200Y-65824000I0J50800D01*
G01*
G37*
M02*
