G04 #@! TF.GenerationSoftware,KiCad,Pcbnew,(5.1.10-1-10_14)*
G04 #@! TF.CreationDate,2021-11-12T14:31:54-05:00*
G04 #@! TF.ProjectId,Guitar_Amp,47756974-6172-45f4-916d-702e6b696361,rev?*
G04 #@! TF.SameCoordinates,Original*
G04 #@! TF.FileFunction,Other,Fab,Top*
%FSLAX46Y46*%
G04 Gerber Fmt 4.6, Leading zero omitted, Abs format (unit mm)*
G04 Created by KiCad (PCBNEW (5.1.10-1-10_14)) date 2021-11-12 14:31:54*
%MOMM*%
%LPD*%
G01*
G04 APERTURE LIST*
%ADD10C,0.150000*%
%ADD11C,0.100000*%
%ADD12C,0.127000*%
%ADD13C,0.200000*%
%ADD14C,0.090000*%
%ADD15C,0.114000*%
%ADD16C,0.120000*%
%ADD17C,0.138000*%
G04 APERTURE END LIST*
D10*
X106446000Y-217024000D02*
X108946000Y-217024000D01*
X108946000Y-217024000D02*
X108946000Y-217824000D01*
X108946000Y-217824000D02*
X106446000Y-217824000D01*
X106446000Y-217824000D02*
X106446000Y-217024000D01*
X109296000Y-217424000D02*
G75*
G03*
X109296000Y-217424000I-1600000J0D01*
G01*
X109494000Y-205340000D02*
X111994000Y-205340000D01*
X111994000Y-205340000D02*
X111994000Y-206140000D01*
X111994000Y-206140000D02*
X109494000Y-206140000D01*
X109494000Y-206140000D02*
X109494000Y-205340000D01*
X112344000Y-205740000D02*
G75*
G03*
X112344000Y-205740000I-1600000J0D01*
G01*
X85618000Y-131172000D02*
X88118000Y-131172000D01*
X88118000Y-131172000D02*
X88118000Y-131972000D01*
X88118000Y-131972000D02*
X85618000Y-131972000D01*
X85618000Y-131972000D02*
X85618000Y-131172000D01*
X88468000Y-131572000D02*
G75*
G03*
X88468000Y-131572000I-1600000J0D01*
G01*
X124734000Y-152000000D02*
X127234000Y-152000000D01*
X127234000Y-152000000D02*
X127234000Y-152800000D01*
X127234000Y-152800000D02*
X124734000Y-152800000D01*
X124734000Y-152800000D02*
X124734000Y-152000000D01*
X127584000Y-152400000D02*
G75*
G03*
X127584000Y-152400000I-1600000J0D01*
G01*
X127020000Y-115170000D02*
X129520000Y-115170000D01*
X129520000Y-115170000D02*
X129520000Y-115970000D01*
X129520000Y-115970000D02*
X127020000Y-115970000D01*
X127020000Y-115970000D02*
X127020000Y-115170000D01*
X129870000Y-115570000D02*
G75*
G03*
X129870000Y-115570000I-1600000J0D01*
G01*
X108604000Y-110510000D02*
X108604000Y-113010000D01*
X108604000Y-113010000D02*
X107804000Y-113010000D01*
X107804000Y-113010000D02*
X107804000Y-110510000D01*
X107804000Y-110510000D02*
X108604000Y-110510000D01*
X109804000Y-111760000D02*
G75*
G03*
X109804000Y-111760000I-1600000J0D01*
G01*
X102382000Y-72752000D02*
X104882000Y-72752000D01*
X104882000Y-72752000D02*
X104882000Y-73552000D01*
X104882000Y-73552000D02*
X102382000Y-73552000D01*
X102382000Y-73552000D02*
X102382000Y-72752000D01*
X105232000Y-73152000D02*
G75*
G03*
X105232000Y-73152000I-1600000J0D01*
G01*
X81300000Y-121520000D02*
X83800000Y-121520000D01*
X83800000Y-121520000D02*
X83800000Y-122320000D01*
X83800000Y-122320000D02*
X81300000Y-122320000D01*
X81300000Y-122320000D02*
X81300000Y-121520000D01*
X84150000Y-121920000D02*
G75*
G03*
X84150000Y-121920000I-1600000J0D01*
G01*
X92222000Y-74276000D02*
X94722000Y-74276000D01*
X94722000Y-74276000D02*
X94722000Y-75076000D01*
X94722000Y-75076000D02*
X92222000Y-75076000D01*
X92222000Y-75076000D02*
X92222000Y-74276000D01*
X95072000Y-74676000D02*
G75*
G03*
X95072000Y-74676000I-1600000J0D01*
G01*
X69108000Y-58782000D02*
X71608000Y-58782000D01*
X71608000Y-58782000D02*
X71608000Y-59582000D01*
X71608000Y-59582000D02*
X69108000Y-59582000D01*
X69108000Y-59582000D02*
X69108000Y-58782000D01*
X71958000Y-59182000D02*
G75*
G03*
X71958000Y-59182000I-1600000J0D01*
G01*
X77490000Y-58020000D02*
X79990000Y-58020000D01*
X79990000Y-58020000D02*
X79990000Y-58820000D01*
X79990000Y-58820000D02*
X77490000Y-58820000D01*
X77490000Y-58820000D02*
X77490000Y-58020000D01*
X80340000Y-58420000D02*
G75*
G03*
X80340000Y-58420000I-1600000J0D01*
G01*
D11*
X129515000Y-190480000D02*
G75*
G03*
X129515000Y-190480000I-3150000J0D01*
G01*
X127738500Y-187786028D02*
X127738500Y-188416028D01*
X128053500Y-188101028D02*
X127423500Y-188101028D01*
X117344000Y-68290000D02*
X124544000Y-68290000D01*
X117344000Y-63790000D02*
X117344000Y-68290000D01*
X124544000Y-63790000D02*
X117344000Y-63790000D01*
X124544000Y-68290000D02*
X124544000Y-63790000D01*
X131856000Y-97394000D02*
X129256000Y-97394000D01*
X129256000Y-97394000D02*
X129256000Y-101194000D01*
X129256000Y-101194000D02*
X131856000Y-101194000D01*
X131856000Y-101194000D02*
X131856000Y-97394000D01*
X37080000Y-188848000D02*
X47080000Y-188848000D01*
X37080000Y-182848000D02*
X37080000Y-188848000D01*
X47080000Y-182848000D02*
X37080000Y-182848000D01*
X47080000Y-188848000D02*
X47080000Y-182848000D01*
X47080000Y-189348000D02*
X52080000Y-189348000D01*
X47080000Y-182348000D02*
X47080000Y-189348000D01*
X52080000Y-182348000D02*
X47080000Y-182348000D01*
X52080000Y-189348000D02*
X52080000Y-182348000D01*
X52080000Y-194798000D02*
X62580000Y-194798000D01*
X52080000Y-176898000D02*
X52080000Y-194798000D01*
X62580000Y-176898000D02*
X52080000Y-176898000D01*
X62580000Y-194798000D02*
X62580000Y-176898000D01*
D12*
X53666000Y-89377000D02*
X65666000Y-89377000D01*
X65666000Y-89377000D02*
X65666000Y-101377000D01*
X52666000Y-90877000D02*
X52666000Y-92377000D01*
X52666000Y-92377000D02*
X52666000Y-98377000D01*
X52666000Y-98377000D02*
X52666000Y-99877000D01*
X65666000Y-101377000D02*
X53666000Y-101377000D01*
D13*
X56408600Y-101857200D02*
G75*
G03*
X56408600Y-101857200I-100000J0D01*
G01*
D12*
X52666000Y-92377000D02*
X50666000Y-92377000D01*
X50666000Y-92377000D02*
X50666000Y-98377000D01*
X50666000Y-98377000D02*
X52666000Y-98377000D01*
X53666000Y-89377000D02*
X53666000Y-90877000D01*
X53666000Y-90877000D02*
X52666000Y-90877000D01*
X53666000Y-99877000D02*
X52666000Y-99877000D01*
X53666000Y-99877000D02*
X53666000Y-101377000D01*
D11*
X71735000Y-74320000D02*
X69235000Y-74320000D01*
X69235000Y-74320000D02*
X69235000Y-80620000D01*
X69235000Y-80620000D02*
X71735000Y-80620000D01*
X71735000Y-80620000D02*
X71735000Y-74320000D01*
X70485000Y-73660000D02*
X70485000Y-74320000D01*
X70485000Y-81280000D02*
X70485000Y-80620000D01*
X56714694Y-74335000D02*
X53775306Y-74335000D01*
X57745000Y-76835000D02*
G75*
G03*
X57745000Y-76835000I-2500000J0D01*
G01*
X53775334Y-74334984D02*
G75*
G03*
X56714694Y-74335000I1469666J-2500016D01*
G01*
X110470000Y-141816000D02*
X110470000Y-134616000D01*
X107970000Y-141816000D02*
X110470000Y-141816000D01*
X107970000Y-134616000D02*
X107970000Y-141816000D01*
X110470000Y-134616000D02*
X107970000Y-134616000D01*
X102890000Y-197100000D02*
X102890000Y-204300000D01*
X105390000Y-197100000D02*
X102890000Y-197100000D01*
X105390000Y-204300000D02*
X105390000Y-197100000D01*
X102890000Y-204300000D02*
X105390000Y-204300000D01*
X86340000Y-117606000D02*
X86340000Y-110406000D01*
X83840000Y-117606000D02*
X86340000Y-117606000D01*
X83840000Y-110406000D02*
X83840000Y-117606000D01*
X86340000Y-110406000D02*
X83840000Y-110406000D01*
X116475000Y-175895000D02*
X117475000Y-176895000D01*
X99695000Y-175895000D02*
X116475000Y-175895000D01*
X99695000Y-182245000D02*
X99695000Y-175895000D01*
X117475000Y-182245000D02*
X99695000Y-182245000D01*
X117475000Y-176895000D02*
X117475000Y-182245000D01*
X126873000Y-86554000D02*
X116713000Y-86554000D01*
X126873000Y-96834000D02*
X126873000Y-86554000D01*
X116713000Y-96834000D02*
X126873000Y-96834000D01*
X116713000Y-86554000D02*
X116713000Y-96834000D01*
X118618000Y-87614000D02*
X119618000Y-86614000D01*
X118618000Y-96774000D02*
X118618000Y-87614000D01*
X124968000Y-96774000D02*
X118618000Y-96774000D01*
X124968000Y-86614000D02*
X124968000Y-96774000D01*
X119618000Y-86614000D02*
X124968000Y-86614000D01*
X37080000Y-212724000D02*
X47080000Y-212724000D01*
X37080000Y-206724000D02*
X37080000Y-212724000D01*
X47080000Y-206724000D02*
X37080000Y-206724000D01*
X47080000Y-212724000D02*
X47080000Y-206724000D01*
X47080000Y-213224000D02*
X52080000Y-213224000D01*
X47080000Y-206224000D02*
X47080000Y-213224000D01*
X52080000Y-206224000D02*
X47080000Y-206224000D01*
X52080000Y-213224000D02*
X52080000Y-206224000D01*
X52080000Y-218674000D02*
X62580000Y-218674000D01*
X52080000Y-200774000D02*
X52080000Y-218674000D01*
X62580000Y-200774000D02*
X52080000Y-200774000D01*
X62580000Y-218674000D02*
X62580000Y-200774000D01*
X37080000Y-165480000D02*
X47080000Y-165480000D01*
X37080000Y-159480000D02*
X37080000Y-165480000D01*
X47080000Y-159480000D02*
X37080000Y-159480000D01*
X47080000Y-165480000D02*
X47080000Y-159480000D01*
X47080000Y-165980000D02*
X52080000Y-165980000D01*
X47080000Y-158980000D02*
X47080000Y-165980000D01*
X52080000Y-158980000D02*
X47080000Y-158980000D01*
X52080000Y-165980000D02*
X52080000Y-158980000D01*
X52080000Y-171430000D02*
X62580000Y-171430000D01*
X52080000Y-153530000D02*
X52080000Y-171430000D01*
X62580000Y-153530000D02*
X52080000Y-153530000D01*
X62580000Y-171430000D02*
X62580000Y-153530000D01*
X118364000Y-195072000D02*
X118364000Y-195732000D01*
X118364000Y-202692000D02*
X118364000Y-202032000D01*
X117114000Y-195732000D02*
X117114000Y-202032000D01*
X119614000Y-195732000D02*
X117114000Y-195732000D01*
X119614000Y-202032000D02*
X119614000Y-195732000D01*
X117114000Y-202032000D02*
X119614000Y-202032000D01*
X85725000Y-139065000D02*
X86385000Y-139065000D01*
X93345000Y-139065000D02*
X92685000Y-139065000D01*
X86385000Y-140315000D02*
X92685000Y-140315000D01*
X86385000Y-137815000D02*
X86385000Y-140315000D01*
X92685000Y-137815000D02*
X86385000Y-137815000D01*
X92685000Y-140315000D02*
X92685000Y-137815000D01*
X96520000Y-205232000D02*
X96520000Y-204572000D01*
X96520000Y-197612000D02*
X96520000Y-198272000D01*
X97770000Y-204572000D02*
X97770000Y-198272000D01*
X95270000Y-204572000D02*
X97770000Y-204572000D01*
X95270000Y-198272000D02*
X95270000Y-204572000D01*
X97770000Y-198272000D02*
X95270000Y-198272000D01*
X99060000Y-146685000D02*
X98400000Y-146685000D01*
X91440000Y-146685000D02*
X92100000Y-146685000D01*
X98400000Y-145435000D02*
X92100000Y-145435000D01*
X98400000Y-147935000D02*
X98400000Y-145435000D01*
X92100000Y-147935000D02*
X98400000Y-147935000D01*
X92100000Y-145435000D02*
X92100000Y-147935000D01*
X91440000Y-153670000D02*
X92100000Y-153670000D01*
X99060000Y-153670000D02*
X98400000Y-153670000D01*
X92100000Y-154920000D02*
X98400000Y-154920000D01*
X92100000Y-152420000D02*
X92100000Y-154920000D01*
X98400000Y-152420000D02*
X92100000Y-152420000D01*
X98400000Y-154920000D02*
X98400000Y-152420000D01*
X101092000Y-132588000D02*
X101092000Y-131928000D01*
X101092000Y-124968000D02*
X101092000Y-125628000D01*
X102342000Y-131928000D02*
X102342000Y-125628000D01*
X99842000Y-131928000D02*
X102342000Y-131928000D01*
X99842000Y-125628000D02*
X99842000Y-131928000D01*
X102342000Y-125628000D02*
X99842000Y-125628000D01*
X133604000Y-115824000D02*
X133604000Y-116484000D01*
X133604000Y-123444000D02*
X133604000Y-122784000D01*
X132354000Y-116484000D02*
X132354000Y-122784000D01*
X134854000Y-116484000D02*
X132354000Y-116484000D01*
X134854000Y-122784000D02*
X134854000Y-116484000D01*
X132354000Y-122784000D02*
X134854000Y-122784000D01*
X134112000Y-96012000D02*
X134112000Y-96672000D01*
X134112000Y-103632000D02*
X134112000Y-102972000D01*
X132862000Y-96672000D02*
X132862000Y-102972000D01*
X135362000Y-96672000D02*
X132862000Y-96672000D01*
X135362000Y-102972000D02*
X135362000Y-96672000D01*
X132862000Y-102972000D02*
X135362000Y-102972000D01*
X112268000Y-103124000D02*
X112268000Y-103784000D01*
X112268000Y-110744000D02*
X112268000Y-110084000D01*
X111018000Y-103784000D02*
X111018000Y-110084000D01*
X113518000Y-103784000D02*
X111018000Y-103784000D01*
X113518000Y-110084000D02*
X113518000Y-103784000D01*
X111018000Y-110084000D02*
X113518000Y-110084000D01*
X125476000Y-108712000D02*
X124816000Y-108712000D01*
X117856000Y-108712000D02*
X118516000Y-108712000D01*
X124816000Y-107462000D02*
X118516000Y-107462000D01*
X124816000Y-109962000D02*
X124816000Y-107462000D01*
X118516000Y-109962000D02*
X124816000Y-109962000D01*
X118516000Y-107462000D02*
X118516000Y-109962000D01*
X117856000Y-102108000D02*
X118516000Y-102108000D01*
X125476000Y-102108000D02*
X124816000Y-102108000D01*
X118516000Y-103358000D02*
X124816000Y-103358000D01*
X118516000Y-100858000D02*
X118516000Y-103358000D01*
X124816000Y-100858000D02*
X118516000Y-100858000D01*
X124816000Y-103358000D02*
X124816000Y-100858000D01*
X134543800Y-69672200D02*
X133883800Y-69672200D01*
X126923800Y-69672200D02*
X127583800Y-69672200D01*
X133883800Y-68422200D02*
X127583800Y-68422200D01*
X133883800Y-70922200D02*
X133883800Y-68422200D01*
X127583800Y-70922200D02*
X133883800Y-70922200D01*
X127583800Y-68422200D02*
X127583800Y-70922200D01*
X112268000Y-82804000D02*
X112268000Y-82144000D01*
X112268000Y-75184000D02*
X112268000Y-75844000D01*
X113518000Y-82144000D02*
X113518000Y-75844000D01*
X111018000Y-82144000D02*
X113518000Y-82144000D01*
X111018000Y-75844000D02*
X111018000Y-82144000D01*
X113518000Y-75844000D02*
X111018000Y-75844000D01*
X89916000Y-84836000D02*
X89916000Y-85496000D01*
X89916000Y-92456000D02*
X89916000Y-91796000D01*
X88666000Y-85496000D02*
X88666000Y-91796000D01*
X91166000Y-85496000D02*
X88666000Y-85496000D01*
X91166000Y-91796000D02*
X91166000Y-85496000D01*
X88666000Y-91796000D02*
X91166000Y-91796000D01*
X97155000Y-93980000D02*
X97155000Y-93320000D01*
X97155000Y-86360000D02*
X97155000Y-87020000D01*
X98405000Y-93320000D02*
X98405000Y-87020000D01*
X95905000Y-93320000D02*
X98405000Y-93320000D01*
X95905000Y-87020000D02*
X95905000Y-93320000D01*
X98405000Y-87020000D02*
X95905000Y-87020000D01*
X63627000Y-74295000D02*
X63627000Y-74955000D01*
X63627000Y-81915000D02*
X63627000Y-81255000D01*
X62377000Y-74955000D02*
X62377000Y-81255000D01*
X64877000Y-74955000D02*
X62377000Y-74955000D01*
X64877000Y-81255000D02*
X64877000Y-74955000D01*
X62377000Y-81255000D02*
X64877000Y-81255000D01*
X98405000Y-106705000D02*
X95905000Y-106705000D01*
X95905000Y-106705000D02*
X95905000Y-113005000D01*
X95905000Y-113005000D02*
X98405000Y-113005000D01*
X98405000Y-113005000D02*
X98405000Y-106705000D01*
X97155000Y-106045000D02*
X97155000Y-106705000D01*
X97155000Y-113665000D02*
X97155000Y-113005000D01*
X79375000Y-73025000D02*
X79375000Y-73685000D01*
X79375000Y-80645000D02*
X79375000Y-79985000D01*
X78125000Y-73685000D02*
X78125000Y-79985000D01*
X80625000Y-73685000D02*
X78125000Y-73685000D01*
X80625000Y-79985000D02*
X80625000Y-73685000D01*
X78125000Y-79985000D02*
X80625000Y-79985000D01*
X72390000Y-94615000D02*
X73050000Y-94615000D01*
X80010000Y-94615000D02*
X79350000Y-94615000D01*
X73050000Y-95865000D02*
X79350000Y-95865000D01*
X73050000Y-93365000D02*
X73050000Y-95865000D01*
X79350000Y-93365000D02*
X73050000Y-93365000D01*
X79350000Y-95865000D02*
X79350000Y-93365000D01*
X72390000Y-100330000D02*
X73050000Y-100330000D01*
X80010000Y-100330000D02*
X79350000Y-100330000D01*
X73050000Y-101580000D02*
X79350000Y-101580000D01*
X73050000Y-99080000D02*
X73050000Y-101580000D01*
X79350000Y-99080000D02*
X73050000Y-99080000D01*
X79350000Y-101580000D02*
X79350000Y-99080000D01*
X72390000Y-88900000D02*
X73050000Y-88900000D01*
X80010000Y-88900000D02*
X79350000Y-88900000D01*
X73050000Y-90150000D02*
X79350000Y-90150000D01*
X73050000Y-87650000D02*
X73050000Y-90150000D01*
X79350000Y-87650000D02*
X73050000Y-87650000D01*
X79350000Y-90150000D02*
X79350000Y-87650000D01*
X102715000Y-140200000D02*
X102715000Y-136700000D01*
X102718625Y-140183625D02*
G75*
G02*
X98485000Y-138430000I-1753625J1753625D01*
G01*
X102718625Y-136676375D02*
G75*
G03*
X98485000Y-138430000I-1753625J-1753625D01*
G01*
X95405000Y-98560000D02*
X95405000Y-102060000D01*
X95401375Y-98576375D02*
G75*
G02*
X99635000Y-100330000I1753625J-1753625D01*
G01*
X95401375Y-102083625D02*
G75*
G03*
X99635000Y-100330000I1753625J1753625D01*
G01*
X128402000Y-210453000D02*
X130495000Y-212545000D01*
X128585000Y-210270000D02*
X130678000Y-212362000D01*
X128402000Y-215453000D02*
X130495000Y-217546000D01*
X128585000Y-215270000D02*
X130678000Y-217363000D01*
X127240000Y-218908000D02*
X127240000Y-208908000D01*
X132140000Y-218908000D02*
X132140000Y-208908000D01*
X133640000Y-218908000D02*
X133640000Y-208908000D01*
X133640000Y-218908000D02*
X124340000Y-218908000D01*
X134140000Y-218408000D02*
X133640000Y-218908000D01*
X134140000Y-208908000D02*
X134140000Y-218408000D01*
X124340000Y-208908000D02*
X134140000Y-208908000D01*
X124340000Y-218908000D02*
X124340000Y-208908000D01*
X131040000Y-211408000D02*
G75*
G03*
X131040000Y-211408000I-1500000J0D01*
G01*
X131040000Y-216408000D02*
G75*
G03*
X131040000Y-216408000I-1500000J0D01*
G01*
D12*
X51963464Y-133508750D02*
X51963464Y-144621250D01*
D13*
X56223464Y-149945000D02*
G75*
G03*
X56223464Y-149945000I-100000J0D01*
G01*
D12*
X51963464Y-144621250D02*
X51963464Y-149065000D01*
X43563464Y-144621250D02*
X51963464Y-144621250D01*
X43563464Y-133508750D02*
X43563464Y-144621250D01*
X51963464Y-133508750D02*
X43563464Y-133508750D01*
X51963464Y-129065000D02*
X51963464Y-133508750D01*
X76763464Y-129065000D02*
X51963464Y-129065000D01*
X76763464Y-149065000D02*
X76763464Y-129065000D01*
X51963464Y-149065000D02*
X76763464Y-149065000D01*
X67248000Y-60270000D02*
X67248000Y-69270000D01*
X52848000Y-60270000D02*
X67248000Y-60270000D01*
X52848000Y-69270000D02*
X52848000Y-60270000D01*
X67248000Y-69270000D02*
X52848000Y-69270000D01*
X51963464Y-108870750D02*
X51963464Y-119983250D01*
D13*
X56223464Y-125307000D02*
G75*
G03*
X56223464Y-125307000I-100000J0D01*
G01*
D12*
X51963464Y-119983250D02*
X51963464Y-124427000D01*
X43563464Y-119983250D02*
X51963464Y-119983250D01*
X43563464Y-108870750D02*
X43563464Y-119983250D01*
X51963464Y-108870750D02*
X43563464Y-108870750D01*
X51963464Y-104427000D02*
X51963464Y-108870750D01*
X76763464Y-104427000D02*
X51963464Y-104427000D01*
X76763464Y-124427000D02*
X76763464Y-104427000D01*
X51963464Y-124427000D02*
X76763464Y-124427000D01*
D11*
X119658000Y-79264000D02*
X119658000Y-81264000D01*
X119858000Y-79264000D02*
X119858000Y-81264000D01*
X119758000Y-79264000D02*
X119758000Y-81264000D01*
X124968000Y-80264000D02*
X123158000Y-80264000D01*
X117348000Y-80264000D02*
X119158000Y-80264000D01*
X123158000Y-79264000D02*
X119158000Y-79264000D01*
X123158000Y-81264000D02*
X123158000Y-79264000D01*
X119158000Y-81264000D02*
X123158000Y-81264000D01*
X119158000Y-79264000D02*
X119158000Y-81264000D01*
X122658000Y-74152000D02*
X122658000Y-72152000D01*
X122458000Y-74152000D02*
X122458000Y-72152000D01*
X122558000Y-74152000D02*
X122558000Y-72152000D01*
X117348000Y-73152000D02*
X119158000Y-73152000D01*
X124968000Y-73152000D02*
X123158000Y-73152000D01*
X119158000Y-74152000D02*
X123158000Y-74152000D01*
X119158000Y-72152000D02*
X119158000Y-74152000D01*
X123158000Y-72152000D02*
X119158000Y-72152000D01*
X123158000Y-74152000D02*
X123158000Y-72152000D01*
X132244500Y-196991028D02*
X131614500Y-196991028D01*
X131929500Y-196676028D02*
X131929500Y-197306028D01*
X133706000Y-199370000D02*
G75*
G03*
X133706000Y-199370000I-3150000J0D01*
G01*
X87747554Y-147752500D02*
X87747554Y-147352500D01*
X87947554Y-147552500D02*
X87547554Y-147552500D01*
X88245000Y-146685000D02*
G75*
G03*
X88245000Y-146685000I-2000000J0D01*
G01*
X128053500Y-179211028D02*
X127423500Y-179211028D01*
X127738500Y-178896028D02*
X127738500Y-179526028D01*
X129515000Y-181590000D02*
G75*
G03*
X129515000Y-181590000I-3150000J0D01*
G01*
X115545000Y-187295000D02*
X111745000Y-187295000D01*
X115545000Y-189895000D02*
X115545000Y-187295000D01*
X111745000Y-189895000D02*
X115545000Y-189895000D01*
X111745000Y-187295000D02*
X111745000Y-189895000D01*
X111784000Y-158492000D02*
X111784000Y-165692000D01*
X114784000Y-158492000D02*
X111784000Y-158492000D01*
X114784000Y-165692000D02*
X114784000Y-158492000D01*
X111784000Y-165692000D02*
X114784000Y-165692000D01*
X130854000Y-107702000D02*
X130854000Y-112302000D01*
X136354000Y-107702000D02*
X130854000Y-107702000D01*
X136354000Y-112302000D02*
X136354000Y-107702000D01*
X130854000Y-112302000D02*
X136354000Y-112302000D01*
X113768000Y-122432000D02*
X113768000Y-115232000D01*
X110768000Y-122432000D02*
X113768000Y-122432000D01*
X110768000Y-115232000D02*
X110768000Y-122432000D01*
X113768000Y-115232000D02*
X110768000Y-115232000D01*
X135640000Y-79014000D02*
X128440000Y-79014000D01*
X135640000Y-81514000D02*
X135640000Y-79014000D01*
X128440000Y-81514000D02*
X135640000Y-81514000D01*
X128440000Y-79014000D02*
X128440000Y-81514000D01*
X131983000Y-91034000D02*
X131983000Y-87234000D01*
X129383000Y-91034000D02*
X131983000Y-91034000D01*
X129383000Y-87234000D02*
X129383000Y-91034000D01*
X131983000Y-87234000D02*
X129383000Y-87234000D01*
X101860000Y-96730000D02*
X106460000Y-96730000D01*
X101860000Y-91230000D02*
X101860000Y-96730000D01*
X106460000Y-91230000D02*
X101860000Y-91230000D01*
X106460000Y-96730000D02*
X106460000Y-91230000D01*
X85530500Y-77083605D02*
X86030500Y-77083605D01*
X85780500Y-77333605D02*
X85780500Y-76833605D01*
X89368000Y-75200000D02*
G75*
G03*
X89368000Y-75200000I-2500000J0D01*
G01*
X75579028Y-63335500D02*
X75579028Y-63965500D01*
X75264028Y-63650500D02*
X75894028Y-63650500D01*
X81108000Y-65024000D02*
G75*
G03*
X81108000Y-65024000I-3150000J0D01*
G01*
D14*
X106653142Y-217095428D02*
X106996000Y-217095428D01*
X106824571Y-217695428D02*
X106824571Y-217095428D01*
X107196000Y-217695428D02*
X107196000Y-217095428D01*
X107424571Y-217095428D01*
X107481714Y-217124000D01*
X107510285Y-217152571D01*
X107538857Y-217209714D01*
X107538857Y-217295428D01*
X107510285Y-217352571D01*
X107481714Y-217381142D01*
X107424571Y-217409714D01*
X107196000Y-217409714D01*
X108110285Y-217695428D02*
X107767428Y-217695428D01*
X107938857Y-217695428D02*
X107938857Y-217095428D01*
X107881714Y-217181142D01*
X107824571Y-217238285D01*
X107767428Y-217266857D01*
X108681714Y-217695428D02*
X108338857Y-217695428D01*
X108510285Y-217695428D02*
X108510285Y-217095428D01*
X108453142Y-217181142D01*
X108396000Y-217238285D01*
X108338857Y-217266857D01*
X109701142Y-205411428D02*
X110044000Y-205411428D01*
X109872571Y-206011428D02*
X109872571Y-205411428D01*
X110244000Y-206011428D02*
X110244000Y-205411428D01*
X110472571Y-205411428D01*
X110529714Y-205440000D01*
X110558285Y-205468571D01*
X110586857Y-205525714D01*
X110586857Y-205611428D01*
X110558285Y-205668571D01*
X110529714Y-205697142D01*
X110472571Y-205725714D01*
X110244000Y-205725714D01*
X111158285Y-206011428D02*
X110815428Y-206011428D01*
X110986857Y-206011428D02*
X110986857Y-205411428D01*
X110929714Y-205497142D01*
X110872571Y-205554285D01*
X110815428Y-205582857D01*
X111529714Y-205411428D02*
X111586857Y-205411428D01*
X111644000Y-205440000D01*
X111672571Y-205468571D01*
X111701142Y-205525714D01*
X111729714Y-205640000D01*
X111729714Y-205782857D01*
X111701142Y-205897142D01*
X111672571Y-205954285D01*
X111644000Y-205982857D01*
X111586857Y-206011428D01*
X111529714Y-206011428D01*
X111472571Y-205982857D01*
X111444000Y-205954285D01*
X111415428Y-205897142D01*
X111386857Y-205782857D01*
X111386857Y-205640000D01*
X111415428Y-205525714D01*
X111444000Y-205468571D01*
X111472571Y-205440000D01*
X111529714Y-205411428D01*
X86110857Y-131243428D02*
X86453714Y-131243428D01*
X86282285Y-131843428D02*
X86282285Y-131243428D01*
X86653714Y-131843428D02*
X86653714Y-131243428D01*
X86882285Y-131243428D01*
X86939428Y-131272000D01*
X86968000Y-131300571D01*
X86996571Y-131357714D01*
X86996571Y-131443428D01*
X86968000Y-131500571D01*
X86939428Y-131529142D01*
X86882285Y-131557714D01*
X86653714Y-131557714D01*
X87282285Y-131843428D02*
X87396571Y-131843428D01*
X87453714Y-131814857D01*
X87482285Y-131786285D01*
X87539428Y-131700571D01*
X87568000Y-131586285D01*
X87568000Y-131357714D01*
X87539428Y-131300571D01*
X87510857Y-131272000D01*
X87453714Y-131243428D01*
X87339428Y-131243428D01*
X87282285Y-131272000D01*
X87253714Y-131300571D01*
X87225142Y-131357714D01*
X87225142Y-131500571D01*
X87253714Y-131557714D01*
X87282285Y-131586285D01*
X87339428Y-131614857D01*
X87453714Y-131614857D01*
X87510857Y-131586285D01*
X87539428Y-131557714D01*
X87568000Y-131500571D01*
X125226857Y-152071428D02*
X125569714Y-152071428D01*
X125398285Y-152671428D02*
X125398285Y-152071428D01*
X125769714Y-152671428D02*
X125769714Y-152071428D01*
X125998285Y-152071428D01*
X126055428Y-152100000D01*
X126084000Y-152128571D01*
X126112571Y-152185714D01*
X126112571Y-152271428D01*
X126084000Y-152328571D01*
X126055428Y-152357142D01*
X125998285Y-152385714D01*
X125769714Y-152385714D01*
X126455428Y-152328571D02*
X126398285Y-152300000D01*
X126369714Y-152271428D01*
X126341142Y-152214285D01*
X126341142Y-152185714D01*
X126369714Y-152128571D01*
X126398285Y-152100000D01*
X126455428Y-152071428D01*
X126569714Y-152071428D01*
X126626857Y-152100000D01*
X126655428Y-152128571D01*
X126684000Y-152185714D01*
X126684000Y-152214285D01*
X126655428Y-152271428D01*
X126626857Y-152300000D01*
X126569714Y-152328571D01*
X126455428Y-152328571D01*
X126398285Y-152357142D01*
X126369714Y-152385714D01*
X126341142Y-152442857D01*
X126341142Y-152557142D01*
X126369714Y-152614285D01*
X126398285Y-152642857D01*
X126455428Y-152671428D01*
X126569714Y-152671428D01*
X126626857Y-152642857D01*
X126655428Y-152614285D01*
X126684000Y-152557142D01*
X126684000Y-152442857D01*
X126655428Y-152385714D01*
X126626857Y-152357142D01*
X126569714Y-152328571D01*
X127512857Y-115241428D02*
X127855714Y-115241428D01*
X127684285Y-115841428D02*
X127684285Y-115241428D01*
X128055714Y-115841428D02*
X128055714Y-115241428D01*
X128284285Y-115241428D01*
X128341428Y-115270000D01*
X128370000Y-115298571D01*
X128398571Y-115355714D01*
X128398571Y-115441428D01*
X128370000Y-115498571D01*
X128341428Y-115527142D01*
X128284285Y-115555714D01*
X128055714Y-115555714D01*
X128598571Y-115241428D02*
X128998571Y-115241428D01*
X128741428Y-115841428D01*
X107875428Y-112517142D02*
X107875428Y-112174285D01*
X108475428Y-112345714D02*
X107875428Y-112345714D01*
X108475428Y-111974285D02*
X107875428Y-111974285D01*
X107875428Y-111745714D01*
X107904000Y-111688571D01*
X107932571Y-111660000D01*
X107989714Y-111631428D01*
X108075428Y-111631428D01*
X108132571Y-111660000D01*
X108161142Y-111688571D01*
X108189714Y-111745714D01*
X108189714Y-111974285D01*
X107875428Y-111117142D02*
X107875428Y-111231428D01*
X107904000Y-111288571D01*
X107932571Y-111317142D01*
X108018285Y-111374285D01*
X108132571Y-111402857D01*
X108361142Y-111402857D01*
X108418285Y-111374285D01*
X108446857Y-111345714D01*
X108475428Y-111288571D01*
X108475428Y-111174285D01*
X108446857Y-111117142D01*
X108418285Y-111088571D01*
X108361142Y-111060000D01*
X108218285Y-111060000D01*
X108161142Y-111088571D01*
X108132571Y-111117142D01*
X108104000Y-111174285D01*
X108104000Y-111288571D01*
X108132571Y-111345714D01*
X108161142Y-111374285D01*
X108218285Y-111402857D01*
X102874857Y-72823428D02*
X103217714Y-72823428D01*
X103046285Y-73423428D02*
X103046285Y-72823428D01*
X103417714Y-73423428D02*
X103417714Y-72823428D01*
X103646285Y-72823428D01*
X103703428Y-72852000D01*
X103732000Y-72880571D01*
X103760571Y-72937714D01*
X103760571Y-73023428D01*
X103732000Y-73080571D01*
X103703428Y-73109142D01*
X103646285Y-73137714D01*
X103417714Y-73137714D01*
X104303428Y-72823428D02*
X104017714Y-72823428D01*
X103989142Y-73109142D01*
X104017714Y-73080571D01*
X104074857Y-73052000D01*
X104217714Y-73052000D01*
X104274857Y-73080571D01*
X104303428Y-73109142D01*
X104332000Y-73166285D01*
X104332000Y-73309142D01*
X104303428Y-73366285D01*
X104274857Y-73394857D01*
X104217714Y-73423428D01*
X104074857Y-73423428D01*
X104017714Y-73394857D01*
X103989142Y-73366285D01*
X81792857Y-121591428D02*
X82135714Y-121591428D01*
X81964285Y-122191428D02*
X81964285Y-121591428D01*
X82335714Y-122191428D02*
X82335714Y-121591428D01*
X82564285Y-121591428D01*
X82621428Y-121620000D01*
X82650000Y-121648571D01*
X82678571Y-121705714D01*
X82678571Y-121791428D01*
X82650000Y-121848571D01*
X82621428Y-121877142D01*
X82564285Y-121905714D01*
X82335714Y-121905714D01*
X83192857Y-121791428D02*
X83192857Y-122191428D01*
X83050000Y-121562857D02*
X82907142Y-121991428D01*
X83278571Y-121991428D01*
X92714857Y-74347428D02*
X93057714Y-74347428D01*
X92886285Y-74947428D02*
X92886285Y-74347428D01*
X93257714Y-74947428D02*
X93257714Y-74347428D01*
X93486285Y-74347428D01*
X93543428Y-74376000D01*
X93572000Y-74404571D01*
X93600571Y-74461714D01*
X93600571Y-74547428D01*
X93572000Y-74604571D01*
X93543428Y-74633142D01*
X93486285Y-74661714D01*
X93257714Y-74661714D01*
X93800571Y-74347428D02*
X94172000Y-74347428D01*
X93972000Y-74576000D01*
X94057714Y-74576000D01*
X94114857Y-74604571D01*
X94143428Y-74633142D01*
X94172000Y-74690285D01*
X94172000Y-74833142D01*
X94143428Y-74890285D01*
X94114857Y-74918857D01*
X94057714Y-74947428D01*
X93886285Y-74947428D01*
X93829142Y-74918857D01*
X93800571Y-74890285D01*
X69600857Y-58853428D02*
X69943714Y-58853428D01*
X69772285Y-59453428D02*
X69772285Y-58853428D01*
X70143714Y-59453428D02*
X70143714Y-58853428D01*
X70372285Y-58853428D01*
X70429428Y-58882000D01*
X70458000Y-58910571D01*
X70486571Y-58967714D01*
X70486571Y-59053428D01*
X70458000Y-59110571D01*
X70429428Y-59139142D01*
X70372285Y-59167714D01*
X70143714Y-59167714D01*
X70715142Y-58910571D02*
X70743714Y-58882000D01*
X70800857Y-58853428D01*
X70943714Y-58853428D01*
X71000857Y-58882000D01*
X71029428Y-58910571D01*
X71058000Y-58967714D01*
X71058000Y-59024857D01*
X71029428Y-59110571D01*
X70686571Y-59453428D01*
X71058000Y-59453428D01*
X77982857Y-58091428D02*
X78325714Y-58091428D01*
X78154285Y-58691428D02*
X78154285Y-58091428D01*
X78525714Y-58691428D02*
X78525714Y-58091428D01*
X78754285Y-58091428D01*
X78811428Y-58120000D01*
X78840000Y-58148571D01*
X78868571Y-58205714D01*
X78868571Y-58291428D01*
X78840000Y-58348571D01*
X78811428Y-58377142D01*
X78754285Y-58405714D01*
X78525714Y-58405714D01*
X79440000Y-58691428D02*
X79097142Y-58691428D01*
X79268571Y-58691428D02*
X79268571Y-58091428D01*
X79211428Y-58177142D01*
X79154285Y-58234285D01*
X79097142Y-58262857D01*
D10*
X89073095Y-170632380D02*
X89073095Y-169632380D01*
X89073095Y-170108571D02*
X89644523Y-170108571D01*
X89644523Y-170632380D02*
X89644523Y-169632380D01*
X90549285Y-169632380D02*
X90358809Y-169632380D01*
X90263571Y-169680000D01*
X90215952Y-169727619D01*
X90120714Y-169870476D01*
X90073095Y-170060952D01*
X90073095Y-170441904D01*
X90120714Y-170537142D01*
X90168333Y-170584761D01*
X90263571Y-170632380D01*
X90454047Y-170632380D01*
X90549285Y-170584761D01*
X90596904Y-170537142D01*
X90644523Y-170441904D01*
X90644523Y-170203809D01*
X90596904Y-170108571D01*
X90549285Y-170060952D01*
X90454047Y-170013333D01*
X90263571Y-170013333D01*
X90168333Y-170060952D01*
X90120714Y-170108571D01*
X90073095Y-170203809D01*
X120315095Y-131897380D02*
X120315095Y-130897380D01*
X120315095Y-131373571D02*
X120886523Y-131373571D01*
X120886523Y-131897380D02*
X120886523Y-130897380D01*
X121838904Y-130897380D02*
X121362714Y-130897380D01*
X121315095Y-131373571D01*
X121362714Y-131325952D01*
X121457952Y-131278333D01*
X121696047Y-131278333D01*
X121791285Y-131325952D01*
X121838904Y-131373571D01*
X121886523Y-131468809D01*
X121886523Y-131706904D01*
X121838904Y-131802142D01*
X121791285Y-131849761D01*
X121696047Y-131897380D01*
X121457952Y-131897380D01*
X121362714Y-131849761D01*
X121315095Y-131802142D01*
X126722142Y-191122857D02*
X126769761Y-191170476D01*
X126817380Y-191313333D01*
X126817380Y-191408571D01*
X126769761Y-191551428D01*
X126674523Y-191646666D01*
X126579285Y-191694285D01*
X126388809Y-191741904D01*
X126245952Y-191741904D01*
X126055476Y-191694285D01*
X125960238Y-191646666D01*
X125865000Y-191551428D01*
X125817380Y-191408571D01*
X125817380Y-191313333D01*
X125865000Y-191170476D01*
X125912619Y-191122857D01*
X126817380Y-190170476D02*
X126817380Y-190741904D01*
X126817380Y-190456190D02*
X125817380Y-190456190D01*
X125960238Y-190551428D01*
X126055476Y-190646666D01*
X126103095Y-190741904D01*
X125817380Y-189265714D02*
X125817380Y-189741904D01*
X126293571Y-189789523D01*
X126245952Y-189741904D01*
X126198333Y-189646666D01*
X126198333Y-189408571D01*
X126245952Y-189313333D01*
X126293571Y-189265714D01*
X126388809Y-189218095D01*
X126626904Y-189218095D01*
X126722142Y-189265714D01*
X126769761Y-189313333D01*
X126817380Y-189408571D01*
X126817380Y-189646666D01*
X126769761Y-189741904D01*
X126722142Y-189789523D01*
X120777333Y-66397142D02*
X120729714Y-66444761D01*
X120586857Y-66492380D01*
X120491619Y-66492380D01*
X120348761Y-66444761D01*
X120253523Y-66349523D01*
X120205904Y-66254285D01*
X120158285Y-66063809D01*
X120158285Y-65920952D01*
X120205904Y-65730476D01*
X120253523Y-65635238D01*
X120348761Y-65540000D01*
X120491619Y-65492380D01*
X120586857Y-65492380D01*
X120729714Y-65540000D01*
X120777333Y-65587619D01*
X121110666Y-65492380D02*
X121777333Y-65492380D01*
X121348761Y-66492380D01*
D15*
X130827428Y-99420666D02*
X130863619Y-99456857D01*
X130899809Y-99565428D01*
X130899809Y-99637809D01*
X130863619Y-99746380D01*
X130791238Y-99818761D01*
X130718857Y-99854952D01*
X130574095Y-99891142D01*
X130465523Y-99891142D01*
X130320761Y-99854952D01*
X130248380Y-99818761D01*
X130176000Y-99746380D01*
X130139809Y-99637809D01*
X130139809Y-99565428D01*
X130176000Y-99456857D01*
X130212190Y-99420666D01*
X130899809Y-99058761D02*
X130899809Y-98914000D01*
X130863619Y-98841619D01*
X130827428Y-98805428D01*
X130718857Y-98733047D01*
X130574095Y-98696857D01*
X130284571Y-98696857D01*
X130212190Y-98733047D01*
X130176000Y-98769238D01*
X130139809Y-98841619D01*
X130139809Y-98986380D01*
X130176000Y-99058761D01*
X130212190Y-99094952D01*
X130284571Y-99131142D01*
X130465523Y-99131142D01*
X130537904Y-99094952D01*
X130574095Y-99058761D01*
X130610285Y-98986380D01*
X130610285Y-98841619D01*
X130574095Y-98769238D01*
X130537904Y-98733047D01*
X130465523Y-98696857D01*
D10*
X56734761Y-186300380D02*
X56401428Y-185824190D01*
X56163333Y-186300380D02*
X56163333Y-185300380D01*
X56544285Y-185300380D01*
X56639523Y-185348000D01*
X56687142Y-185395619D01*
X56734761Y-185490857D01*
X56734761Y-185633714D01*
X56687142Y-185728952D01*
X56639523Y-185776571D01*
X56544285Y-185824190D01*
X56163333Y-185824190D01*
X57020476Y-185300380D02*
X57353809Y-186300380D01*
X57687142Y-185300380D01*
X57972857Y-185395619D02*
X58020476Y-185348000D01*
X58115714Y-185300380D01*
X58353809Y-185300380D01*
X58449047Y-185348000D01*
X58496666Y-185395619D01*
X58544285Y-185490857D01*
X58544285Y-185586095D01*
X58496666Y-185728952D01*
X57925238Y-186300380D01*
X58544285Y-186300380D01*
X70937380Y-77636666D02*
X70461190Y-77970000D01*
X70937380Y-78208095D02*
X69937380Y-78208095D01*
X69937380Y-77827142D01*
X69985000Y-77731904D01*
X70032619Y-77684285D01*
X70127857Y-77636666D01*
X70270714Y-77636666D01*
X70365952Y-77684285D01*
X70413571Y-77731904D01*
X70461190Y-77827142D01*
X70461190Y-78208095D01*
X70270714Y-76779523D02*
X70937380Y-76779523D01*
X69889761Y-77017619D02*
X70604047Y-77255714D01*
X70604047Y-76636666D01*
D13*
X55606904Y-77405476D02*
X54806904Y-77405476D01*
X54806904Y-77215000D01*
X54845000Y-77100714D01*
X54921190Y-77024523D01*
X54997380Y-76986428D01*
X55149761Y-76948333D01*
X55264047Y-76948333D01*
X55416428Y-76986428D01*
X55492619Y-77024523D01*
X55568809Y-77100714D01*
X55606904Y-77215000D01*
X55606904Y-77405476D01*
X55606904Y-76186428D02*
X55606904Y-76643571D01*
X55606904Y-76415000D02*
X54806904Y-76415000D01*
X54921190Y-76491190D01*
X54997380Y-76567380D01*
X55035476Y-76643571D01*
D10*
X109577142Y-138858857D02*
X109624761Y-138906476D01*
X109672380Y-139049333D01*
X109672380Y-139144571D01*
X109624761Y-139287428D01*
X109529523Y-139382666D01*
X109434285Y-139430285D01*
X109243809Y-139477904D01*
X109100952Y-139477904D01*
X108910476Y-139430285D01*
X108815238Y-139382666D01*
X108720000Y-139287428D01*
X108672380Y-139144571D01*
X108672380Y-139049333D01*
X108720000Y-138906476D01*
X108767619Y-138858857D01*
X109672380Y-137906476D02*
X109672380Y-138477904D01*
X109672380Y-138192190D02*
X108672380Y-138192190D01*
X108815238Y-138287428D01*
X108910476Y-138382666D01*
X108958095Y-138477904D01*
X109672380Y-136954095D02*
X109672380Y-137525523D01*
X109672380Y-137239809D02*
X108672380Y-137239809D01*
X108815238Y-137335047D01*
X108910476Y-137430285D01*
X108958095Y-137525523D01*
X104497142Y-201342857D02*
X104544761Y-201390476D01*
X104592380Y-201533333D01*
X104592380Y-201628571D01*
X104544761Y-201771428D01*
X104449523Y-201866666D01*
X104354285Y-201914285D01*
X104163809Y-201961904D01*
X104020952Y-201961904D01*
X103830476Y-201914285D01*
X103735238Y-201866666D01*
X103640000Y-201771428D01*
X103592380Y-201628571D01*
X103592380Y-201533333D01*
X103640000Y-201390476D01*
X103687619Y-201342857D01*
X104592380Y-200390476D02*
X104592380Y-200961904D01*
X104592380Y-200676190D02*
X103592380Y-200676190D01*
X103735238Y-200771428D01*
X103830476Y-200866666D01*
X103878095Y-200961904D01*
X103592380Y-199533333D02*
X103592380Y-199723809D01*
X103640000Y-199819047D01*
X103687619Y-199866666D01*
X103830476Y-199961904D01*
X104020952Y-200009523D01*
X104401904Y-200009523D01*
X104497142Y-199961904D01*
X104544761Y-199914285D01*
X104592380Y-199819047D01*
X104592380Y-199628571D01*
X104544761Y-199533333D01*
X104497142Y-199485714D01*
X104401904Y-199438095D01*
X104163809Y-199438095D01*
X104068571Y-199485714D01*
X104020952Y-199533333D01*
X103973333Y-199628571D01*
X103973333Y-199819047D01*
X104020952Y-199914285D01*
X104068571Y-199961904D01*
X104163809Y-200009523D01*
X85447142Y-114172666D02*
X85494761Y-114220285D01*
X85542380Y-114363142D01*
X85542380Y-114458380D01*
X85494761Y-114601238D01*
X85399523Y-114696476D01*
X85304285Y-114744095D01*
X85113809Y-114791714D01*
X84970952Y-114791714D01*
X84780476Y-114744095D01*
X84685238Y-114696476D01*
X84590000Y-114601238D01*
X84542380Y-114458380D01*
X84542380Y-114363142D01*
X84590000Y-114220285D01*
X84637619Y-114172666D01*
X84637619Y-113791714D02*
X84590000Y-113744095D01*
X84542380Y-113648857D01*
X84542380Y-113410761D01*
X84590000Y-113315523D01*
X84637619Y-113267904D01*
X84732857Y-113220285D01*
X84828095Y-113220285D01*
X84970952Y-113267904D01*
X85542380Y-113839333D01*
X85542380Y-113220285D01*
X108037380Y-179831904D02*
X108846904Y-179831904D01*
X108942142Y-179784285D01*
X108989761Y-179736666D01*
X109037380Y-179641428D01*
X109037380Y-179450952D01*
X108989761Y-179355714D01*
X108942142Y-179308095D01*
X108846904Y-179260476D01*
X108037380Y-179260476D01*
X108132619Y-178831904D02*
X108085000Y-178784285D01*
X108037380Y-178689047D01*
X108037380Y-178450952D01*
X108085000Y-178355714D01*
X108132619Y-178308095D01*
X108227857Y-178260476D01*
X108323095Y-178260476D01*
X108465952Y-178308095D01*
X109037380Y-178879523D01*
X109037380Y-178260476D01*
X121031095Y-91146380D02*
X121031095Y-91955904D01*
X121078714Y-92051142D01*
X121126333Y-92098761D01*
X121221571Y-92146380D01*
X121412047Y-92146380D01*
X121507285Y-92098761D01*
X121554904Y-92051142D01*
X121602523Y-91955904D01*
X121602523Y-91146380D01*
X122602523Y-92146380D02*
X122031095Y-92146380D01*
X122316809Y-92146380D02*
X122316809Y-91146380D01*
X122221571Y-91289238D01*
X122126333Y-91384476D01*
X122031095Y-91432095D01*
X56734761Y-210176380D02*
X56401428Y-209700190D01*
X56163333Y-210176380D02*
X56163333Y-209176380D01*
X56544285Y-209176380D01*
X56639523Y-209224000D01*
X56687142Y-209271619D01*
X56734761Y-209366857D01*
X56734761Y-209509714D01*
X56687142Y-209604952D01*
X56639523Y-209652571D01*
X56544285Y-209700190D01*
X56163333Y-209700190D01*
X57020476Y-209176380D02*
X57353809Y-210176380D01*
X57687142Y-209176380D01*
X57925238Y-209176380D02*
X58544285Y-209176380D01*
X58210952Y-209557333D01*
X58353809Y-209557333D01*
X58449047Y-209604952D01*
X58496666Y-209652571D01*
X58544285Y-209747809D01*
X58544285Y-209985904D01*
X58496666Y-210081142D01*
X58449047Y-210128761D01*
X58353809Y-210176380D01*
X58068095Y-210176380D01*
X57972857Y-210128761D01*
X57925238Y-210081142D01*
X56734761Y-162932380D02*
X56401428Y-162456190D01*
X56163333Y-162932380D02*
X56163333Y-161932380D01*
X56544285Y-161932380D01*
X56639523Y-161980000D01*
X56687142Y-162027619D01*
X56734761Y-162122857D01*
X56734761Y-162265714D01*
X56687142Y-162360952D01*
X56639523Y-162408571D01*
X56544285Y-162456190D01*
X56163333Y-162456190D01*
X57020476Y-161932380D02*
X57353809Y-162932380D01*
X57687142Y-161932380D01*
X58544285Y-162932380D02*
X57972857Y-162932380D01*
X58258571Y-162932380D02*
X58258571Y-161932380D01*
X58163333Y-162075238D01*
X58068095Y-162170476D01*
X57972857Y-162218095D01*
X118816380Y-199524857D02*
X118340190Y-199858190D01*
X118816380Y-200096285D02*
X117816380Y-200096285D01*
X117816380Y-199715333D01*
X117864000Y-199620095D01*
X117911619Y-199572476D01*
X118006857Y-199524857D01*
X118149714Y-199524857D01*
X118244952Y-199572476D01*
X118292571Y-199620095D01*
X118340190Y-199715333D01*
X118340190Y-200096285D01*
X117911619Y-199143904D02*
X117864000Y-199096285D01*
X117816380Y-199001047D01*
X117816380Y-198762952D01*
X117864000Y-198667714D01*
X117911619Y-198620095D01*
X118006857Y-198572476D01*
X118102095Y-198572476D01*
X118244952Y-198620095D01*
X118816380Y-199191523D01*
X118816380Y-198572476D01*
X117911619Y-198191523D02*
X117864000Y-198143904D01*
X117816380Y-198048666D01*
X117816380Y-197810571D01*
X117864000Y-197715333D01*
X117911619Y-197667714D01*
X118006857Y-197620095D01*
X118102095Y-197620095D01*
X118244952Y-197667714D01*
X118816380Y-198239142D01*
X118816380Y-197620095D01*
X88892142Y-139517380D02*
X88558809Y-139041190D01*
X88320714Y-139517380D02*
X88320714Y-138517380D01*
X88701666Y-138517380D01*
X88796904Y-138565000D01*
X88844523Y-138612619D01*
X88892142Y-138707857D01*
X88892142Y-138850714D01*
X88844523Y-138945952D01*
X88796904Y-138993571D01*
X88701666Y-139041190D01*
X88320714Y-139041190D01*
X89273095Y-138612619D02*
X89320714Y-138565000D01*
X89415952Y-138517380D01*
X89654047Y-138517380D01*
X89749285Y-138565000D01*
X89796904Y-138612619D01*
X89844523Y-138707857D01*
X89844523Y-138803095D01*
X89796904Y-138945952D01*
X89225476Y-139517380D01*
X89844523Y-139517380D01*
X90796904Y-139517380D02*
X90225476Y-139517380D01*
X90511190Y-139517380D02*
X90511190Y-138517380D01*
X90415952Y-138660238D01*
X90320714Y-138755476D01*
X90225476Y-138803095D01*
X96972380Y-202064857D02*
X96496190Y-202398190D01*
X96972380Y-202636285D02*
X95972380Y-202636285D01*
X95972380Y-202255333D01*
X96020000Y-202160095D01*
X96067619Y-202112476D01*
X96162857Y-202064857D01*
X96305714Y-202064857D01*
X96400952Y-202112476D01*
X96448571Y-202160095D01*
X96496190Y-202255333D01*
X96496190Y-202636285D01*
X96067619Y-201683904D02*
X96020000Y-201636285D01*
X95972380Y-201541047D01*
X95972380Y-201302952D01*
X96020000Y-201207714D01*
X96067619Y-201160095D01*
X96162857Y-201112476D01*
X96258095Y-201112476D01*
X96400952Y-201160095D01*
X96972380Y-201731523D01*
X96972380Y-201112476D01*
X95972380Y-200493428D02*
X95972380Y-200398190D01*
X96020000Y-200302952D01*
X96067619Y-200255333D01*
X96162857Y-200207714D01*
X96353333Y-200160095D01*
X96591428Y-200160095D01*
X96781904Y-200207714D01*
X96877142Y-200255333D01*
X96924761Y-200302952D01*
X96972380Y-200398190D01*
X96972380Y-200493428D01*
X96924761Y-200588666D01*
X96877142Y-200636285D01*
X96781904Y-200683904D01*
X96591428Y-200731523D01*
X96353333Y-200731523D01*
X96162857Y-200683904D01*
X96067619Y-200636285D01*
X96020000Y-200588666D01*
X95972380Y-200493428D01*
X94607142Y-147137380D02*
X94273809Y-146661190D01*
X94035714Y-147137380D02*
X94035714Y-146137380D01*
X94416666Y-146137380D01*
X94511904Y-146185000D01*
X94559523Y-146232619D01*
X94607142Y-146327857D01*
X94607142Y-146470714D01*
X94559523Y-146565952D01*
X94511904Y-146613571D01*
X94416666Y-146661190D01*
X94035714Y-146661190D01*
X95559523Y-147137380D02*
X94988095Y-147137380D01*
X95273809Y-147137380D02*
X95273809Y-146137380D01*
X95178571Y-146280238D01*
X95083333Y-146375476D01*
X94988095Y-146423095D01*
X96035714Y-147137380D02*
X96226190Y-147137380D01*
X96321428Y-147089761D01*
X96369047Y-147042142D01*
X96464285Y-146899285D01*
X96511904Y-146708809D01*
X96511904Y-146327857D01*
X96464285Y-146232619D01*
X96416666Y-146185000D01*
X96321428Y-146137380D01*
X96130952Y-146137380D01*
X96035714Y-146185000D01*
X95988095Y-146232619D01*
X95940476Y-146327857D01*
X95940476Y-146565952D01*
X95988095Y-146661190D01*
X96035714Y-146708809D01*
X96130952Y-146756428D01*
X96321428Y-146756428D01*
X96416666Y-146708809D01*
X96464285Y-146661190D01*
X96511904Y-146565952D01*
X94607142Y-154122380D02*
X94273809Y-153646190D01*
X94035714Y-154122380D02*
X94035714Y-153122380D01*
X94416666Y-153122380D01*
X94511904Y-153170000D01*
X94559523Y-153217619D01*
X94607142Y-153312857D01*
X94607142Y-153455714D01*
X94559523Y-153550952D01*
X94511904Y-153598571D01*
X94416666Y-153646190D01*
X94035714Y-153646190D01*
X95559523Y-154122380D02*
X94988095Y-154122380D01*
X95273809Y-154122380D02*
X95273809Y-153122380D01*
X95178571Y-153265238D01*
X95083333Y-153360476D01*
X94988095Y-153408095D01*
X96130952Y-153550952D02*
X96035714Y-153503333D01*
X95988095Y-153455714D01*
X95940476Y-153360476D01*
X95940476Y-153312857D01*
X95988095Y-153217619D01*
X96035714Y-153170000D01*
X96130952Y-153122380D01*
X96321428Y-153122380D01*
X96416666Y-153170000D01*
X96464285Y-153217619D01*
X96511904Y-153312857D01*
X96511904Y-153360476D01*
X96464285Y-153455714D01*
X96416666Y-153503333D01*
X96321428Y-153550952D01*
X96130952Y-153550952D01*
X96035714Y-153598571D01*
X95988095Y-153646190D01*
X95940476Y-153741428D01*
X95940476Y-153931904D01*
X95988095Y-154027142D01*
X96035714Y-154074761D01*
X96130952Y-154122380D01*
X96321428Y-154122380D01*
X96416666Y-154074761D01*
X96464285Y-154027142D01*
X96511904Y-153931904D01*
X96511904Y-153741428D01*
X96464285Y-153646190D01*
X96416666Y-153598571D01*
X96321428Y-153550952D01*
X101544380Y-129420857D02*
X101068190Y-129754190D01*
X101544380Y-129992285D02*
X100544380Y-129992285D01*
X100544380Y-129611333D01*
X100592000Y-129516095D01*
X100639619Y-129468476D01*
X100734857Y-129420857D01*
X100877714Y-129420857D01*
X100972952Y-129468476D01*
X101020571Y-129516095D01*
X101068190Y-129611333D01*
X101068190Y-129992285D01*
X101544380Y-128468476D02*
X101544380Y-129039904D01*
X101544380Y-128754190D02*
X100544380Y-128754190D01*
X100687238Y-128849428D01*
X100782476Y-128944666D01*
X100830095Y-129039904D01*
X100544380Y-128135142D02*
X100544380Y-127468476D01*
X101544380Y-127897047D01*
X134056380Y-120276857D02*
X133580190Y-120610190D01*
X134056380Y-120848285D02*
X133056380Y-120848285D01*
X133056380Y-120467333D01*
X133104000Y-120372095D01*
X133151619Y-120324476D01*
X133246857Y-120276857D01*
X133389714Y-120276857D01*
X133484952Y-120324476D01*
X133532571Y-120372095D01*
X133580190Y-120467333D01*
X133580190Y-120848285D01*
X134056380Y-119324476D02*
X134056380Y-119895904D01*
X134056380Y-119610190D02*
X133056380Y-119610190D01*
X133199238Y-119705428D01*
X133294476Y-119800666D01*
X133342095Y-119895904D01*
X133056380Y-118467333D02*
X133056380Y-118657809D01*
X133104000Y-118753047D01*
X133151619Y-118800666D01*
X133294476Y-118895904D01*
X133484952Y-118943523D01*
X133865904Y-118943523D01*
X133961142Y-118895904D01*
X134008761Y-118848285D01*
X134056380Y-118753047D01*
X134056380Y-118562571D01*
X134008761Y-118467333D01*
X133961142Y-118419714D01*
X133865904Y-118372095D01*
X133627809Y-118372095D01*
X133532571Y-118419714D01*
X133484952Y-118467333D01*
X133437333Y-118562571D01*
X133437333Y-118753047D01*
X133484952Y-118848285D01*
X133532571Y-118895904D01*
X133627809Y-118943523D01*
X134564380Y-100464857D02*
X134088190Y-100798190D01*
X134564380Y-101036285D02*
X133564380Y-101036285D01*
X133564380Y-100655333D01*
X133612000Y-100560095D01*
X133659619Y-100512476D01*
X133754857Y-100464857D01*
X133897714Y-100464857D01*
X133992952Y-100512476D01*
X134040571Y-100560095D01*
X134088190Y-100655333D01*
X134088190Y-101036285D01*
X134564380Y-99512476D02*
X134564380Y-100083904D01*
X134564380Y-99798190D02*
X133564380Y-99798190D01*
X133707238Y-99893428D01*
X133802476Y-99988666D01*
X133850095Y-100083904D01*
X133564380Y-98607714D02*
X133564380Y-99083904D01*
X134040571Y-99131523D01*
X133992952Y-99083904D01*
X133945333Y-98988666D01*
X133945333Y-98750571D01*
X133992952Y-98655333D01*
X134040571Y-98607714D01*
X134135809Y-98560095D01*
X134373904Y-98560095D01*
X134469142Y-98607714D01*
X134516761Y-98655333D01*
X134564380Y-98750571D01*
X134564380Y-98988666D01*
X134516761Y-99083904D01*
X134469142Y-99131523D01*
X112720380Y-107576857D02*
X112244190Y-107910190D01*
X112720380Y-108148285D02*
X111720380Y-108148285D01*
X111720380Y-107767333D01*
X111768000Y-107672095D01*
X111815619Y-107624476D01*
X111910857Y-107576857D01*
X112053714Y-107576857D01*
X112148952Y-107624476D01*
X112196571Y-107672095D01*
X112244190Y-107767333D01*
X112244190Y-108148285D01*
X112720380Y-106624476D02*
X112720380Y-107195904D01*
X112720380Y-106910190D02*
X111720380Y-106910190D01*
X111863238Y-107005428D01*
X111958476Y-107100666D01*
X112006095Y-107195904D01*
X112053714Y-105767333D02*
X112720380Y-105767333D01*
X111672761Y-106005428D02*
X112387047Y-106243523D01*
X112387047Y-105624476D01*
X121023142Y-109164380D02*
X120689809Y-108688190D01*
X120451714Y-109164380D02*
X120451714Y-108164380D01*
X120832666Y-108164380D01*
X120927904Y-108212000D01*
X120975523Y-108259619D01*
X121023142Y-108354857D01*
X121023142Y-108497714D01*
X120975523Y-108592952D01*
X120927904Y-108640571D01*
X120832666Y-108688190D01*
X120451714Y-108688190D01*
X121975523Y-109164380D02*
X121404095Y-109164380D01*
X121689809Y-109164380D02*
X121689809Y-108164380D01*
X121594571Y-108307238D01*
X121499333Y-108402476D01*
X121404095Y-108450095D01*
X122308857Y-108164380D02*
X122927904Y-108164380D01*
X122594571Y-108545333D01*
X122737428Y-108545333D01*
X122832666Y-108592952D01*
X122880285Y-108640571D01*
X122927904Y-108735809D01*
X122927904Y-108973904D01*
X122880285Y-109069142D01*
X122832666Y-109116761D01*
X122737428Y-109164380D01*
X122451714Y-109164380D01*
X122356476Y-109116761D01*
X122308857Y-109069142D01*
X121023142Y-102560380D02*
X120689809Y-102084190D01*
X120451714Y-102560380D02*
X120451714Y-101560380D01*
X120832666Y-101560380D01*
X120927904Y-101608000D01*
X120975523Y-101655619D01*
X121023142Y-101750857D01*
X121023142Y-101893714D01*
X120975523Y-101988952D01*
X120927904Y-102036571D01*
X120832666Y-102084190D01*
X120451714Y-102084190D01*
X121975523Y-102560380D02*
X121404095Y-102560380D01*
X121689809Y-102560380D02*
X121689809Y-101560380D01*
X121594571Y-101703238D01*
X121499333Y-101798476D01*
X121404095Y-101846095D01*
X122356476Y-101655619D02*
X122404095Y-101608000D01*
X122499333Y-101560380D01*
X122737428Y-101560380D01*
X122832666Y-101608000D01*
X122880285Y-101655619D01*
X122927904Y-101750857D01*
X122927904Y-101846095D01*
X122880285Y-101988952D01*
X122308857Y-102560380D01*
X122927904Y-102560380D01*
X130090942Y-70124580D02*
X129757609Y-69648390D01*
X129519514Y-70124580D02*
X129519514Y-69124580D01*
X129900466Y-69124580D01*
X129995704Y-69172200D01*
X130043323Y-69219819D01*
X130090942Y-69315057D01*
X130090942Y-69457914D01*
X130043323Y-69553152D01*
X129995704Y-69600771D01*
X129900466Y-69648390D01*
X129519514Y-69648390D01*
X131043323Y-70124580D02*
X130471895Y-70124580D01*
X130757609Y-70124580D02*
X130757609Y-69124580D01*
X130662371Y-69267438D01*
X130567133Y-69362676D01*
X130471895Y-69410295D01*
X131995704Y-70124580D02*
X131424276Y-70124580D01*
X131709990Y-70124580D02*
X131709990Y-69124580D01*
X131614752Y-69267438D01*
X131519514Y-69362676D01*
X131424276Y-69410295D01*
X112720380Y-79636857D02*
X112244190Y-79970190D01*
X112720380Y-80208285D02*
X111720380Y-80208285D01*
X111720380Y-79827333D01*
X111768000Y-79732095D01*
X111815619Y-79684476D01*
X111910857Y-79636857D01*
X112053714Y-79636857D01*
X112148952Y-79684476D01*
X112196571Y-79732095D01*
X112244190Y-79827333D01*
X112244190Y-80208285D01*
X112720380Y-78684476D02*
X112720380Y-79255904D01*
X112720380Y-78970190D02*
X111720380Y-78970190D01*
X111863238Y-79065428D01*
X111958476Y-79160666D01*
X112006095Y-79255904D01*
X111720380Y-78065428D02*
X111720380Y-77970190D01*
X111768000Y-77874952D01*
X111815619Y-77827333D01*
X111910857Y-77779714D01*
X112101333Y-77732095D01*
X112339428Y-77732095D01*
X112529904Y-77779714D01*
X112625142Y-77827333D01*
X112672761Y-77874952D01*
X112720380Y-77970190D01*
X112720380Y-78065428D01*
X112672761Y-78160666D01*
X112625142Y-78208285D01*
X112529904Y-78255904D01*
X112339428Y-78303523D01*
X112101333Y-78303523D01*
X111910857Y-78255904D01*
X111815619Y-78208285D01*
X111768000Y-78160666D01*
X111720380Y-78065428D01*
X90368380Y-88812666D02*
X89892190Y-89146000D01*
X90368380Y-89384095D02*
X89368380Y-89384095D01*
X89368380Y-89003142D01*
X89416000Y-88907904D01*
X89463619Y-88860285D01*
X89558857Y-88812666D01*
X89701714Y-88812666D01*
X89796952Y-88860285D01*
X89844571Y-88907904D01*
X89892190Y-89003142D01*
X89892190Y-89384095D01*
X90368380Y-88336476D02*
X90368380Y-88146000D01*
X90320761Y-88050761D01*
X90273142Y-88003142D01*
X90130285Y-87907904D01*
X89939809Y-87860285D01*
X89558857Y-87860285D01*
X89463619Y-87907904D01*
X89416000Y-87955523D01*
X89368380Y-88050761D01*
X89368380Y-88241238D01*
X89416000Y-88336476D01*
X89463619Y-88384095D01*
X89558857Y-88431714D01*
X89796952Y-88431714D01*
X89892190Y-88384095D01*
X89939809Y-88336476D01*
X89987428Y-88241238D01*
X89987428Y-88050761D01*
X89939809Y-87955523D01*
X89892190Y-87907904D01*
X89796952Y-87860285D01*
X97607380Y-90336666D02*
X97131190Y-90670000D01*
X97607380Y-90908095D02*
X96607380Y-90908095D01*
X96607380Y-90527142D01*
X96655000Y-90431904D01*
X96702619Y-90384285D01*
X96797857Y-90336666D01*
X96940714Y-90336666D01*
X97035952Y-90384285D01*
X97083571Y-90431904D01*
X97131190Y-90527142D01*
X97131190Y-90908095D01*
X97035952Y-89765238D02*
X96988333Y-89860476D01*
X96940714Y-89908095D01*
X96845476Y-89955714D01*
X96797857Y-89955714D01*
X96702619Y-89908095D01*
X96655000Y-89860476D01*
X96607380Y-89765238D01*
X96607380Y-89574761D01*
X96655000Y-89479523D01*
X96702619Y-89431904D01*
X96797857Y-89384285D01*
X96845476Y-89384285D01*
X96940714Y-89431904D01*
X96988333Y-89479523D01*
X97035952Y-89574761D01*
X97035952Y-89765238D01*
X97083571Y-89860476D01*
X97131190Y-89908095D01*
X97226428Y-89955714D01*
X97416904Y-89955714D01*
X97512142Y-89908095D01*
X97559761Y-89860476D01*
X97607380Y-89765238D01*
X97607380Y-89574761D01*
X97559761Y-89479523D01*
X97512142Y-89431904D01*
X97416904Y-89384285D01*
X97226428Y-89384285D01*
X97131190Y-89431904D01*
X97083571Y-89479523D01*
X97035952Y-89574761D01*
X64079380Y-78271666D02*
X63603190Y-78605000D01*
X64079380Y-78843095D02*
X63079380Y-78843095D01*
X63079380Y-78462142D01*
X63127000Y-78366904D01*
X63174619Y-78319285D01*
X63269857Y-78271666D01*
X63412714Y-78271666D01*
X63507952Y-78319285D01*
X63555571Y-78366904D01*
X63603190Y-78462142D01*
X63603190Y-78843095D01*
X63079380Y-77938333D02*
X63079380Y-77271666D01*
X64079380Y-77700238D01*
X97607380Y-110021666D02*
X97131190Y-110355000D01*
X97607380Y-110593095D02*
X96607380Y-110593095D01*
X96607380Y-110212142D01*
X96655000Y-110116904D01*
X96702619Y-110069285D01*
X96797857Y-110021666D01*
X96940714Y-110021666D01*
X97035952Y-110069285D01*
X97083571Y-110116904D01*
X97131190Y-110212142D01*
X97131190Y-110593095D01*
X96607380Y-109164523D02*
X96607380Y-109355000D01*
X96655000Y-109450238D01*
X96702619Y-109497857D01*
X96845476Y-109593095D01*
X97035952Y-109640714D01*
X97416904Y-109640714D01*
X97512142Y-109593095D01*
X97559761Y-109545476D01*
X97607380Y-109450238D01*
X97607380Y-109259761D01*
X97559761Y-109164523D01*
X97512142Y-109116904D01*
X97416904Y-109069285D01*
X97178809Y-109069285D01*
X97083571Y-109116904D01*
X97035952Y-109164523D01*
X96988333Y-109259761D01*
X96988333Y-109450238D01*
X97035952Y-109545476D01*
X97083571Y-109593095D01*
X97178809Y-109640714D01*
X79827380Y-77001666D02*
X79351190Y-77335000D01*
X79827380Y-77573095D02*
X78827380Y-77573095D01*
X78827380Y-77192142D01*
X78875000Y-77096904D01*
X78922619Y-77049285D01*
X79017857Y-77001666D01*
X79160714Y-77001666D01*
X79255952Y-77049285D01*
X79303571Y-77096904D01*
X79351190Y-77192142D01*
X79351190Y-77573095D01*
X78827380Y-76096904D02*
X78827380Y-76573095D01*
X79303571Y-76620714D01*
X79255952Y-76573095D01*
X79208333Y-76477857D01*
X79208333Y-76239761D01*
X79255952Y-76144523D01*
X79303571Y-76096904D01*
X79398809Y-76049285D01*
X79636904Y-76049285D01*
X79732142Y-76096904D01*
X79779761Y-76144523D01*
X79827380Y-76239761D01*
X79827380Y-76477857D01*
X79779761Y-76573095D01*
X79732142Y-76620714D01*
X76033333Y-95067380D02*
X75700000Y-94591190D01*
X75461904Y-95067380D02*
X75461904Y-94067380D01*
X75842857Y-94067380D01*
X75938095Y-94115000D01*
X75985714Y-94162619D01*
X76033333Y-94257857D01*
X76033333Y-94400714D01*
X75985714Y-94495952D01*
X75938095Y-94543571D01*
X75842857Y-94591190D01*
X75461904Y-94591190D01*
X76366666Y-94067380D02*
X76985714Y-94067380D01*
X76652380Y-94448333D01*
X76795238Y-94448333D01*
X76890476Y-94495952D01*
X76938095Y-94543571D01*
X76985714Y-94638809D01*
X76985714Y-94876904D01*
X76938095Y-94972142D01*
X76890476Y-95019761D01*
X76795238Y-95067380D01*
X76509523Y-95067380D01*
X76414285Y-95019761D01*
X76366666Y-94972142D01*
X76033333Y-100782380D02*
X75700000Y-100306190D01*
X75461904Y-100782380D02*
X75461904Y-99782380D01*
X75842857Y-99782380D01*
X75938095Y-99830000D01*
X75985714Y-99877619D01*
X76033333Y-99972857D01*
X76033333Y-100115714D01*
X75985714Y-100210952D01*
X75938095Y-100258571D01*
X75842857Y-100306190D01*
X75461904Y-100306190D01*
X76414285Y-99877619D02*
X76461904Y-99830000D01*
X76557142Y-99782380D01*
X76795238Y-99782380D01*
X76890476Y-99830000D01*
X76938095Y-99877619D01*
X76985714Y-99972857D01*
X76985714Y-100068095D01*
X76938095Y-100210952D01*
X76366666Y-100782380D01*
X76985714Y-100782380D01*
X76033333Y-89352380D02*
X75700000Y-88876190D01*
X75461904Y-89352380D02*
X75461904Y-88352380D01*
X75842857Y-88352380D01*
X75938095Y-88400000D01*
X75985714Y-88447619D01*
X76033333Y-88542857D01*
X76033333Y-88685714D01*
X75985714Y-88780952D01*
X75938095Y-88828571D01*
X75842857Y-88876190D01*
X75461904Y-88876190D01*
X76985714Y-89352380D02*
X76414285Y-89352380D01*
X76700000Y-89352380D02*
X76700000Y-88352380D01*
X76604761Y-88495238D01*
X76509523Y-88590476D01*
X76414285Y-88638095D01*
X103491279Y-138840198D02*
X103443660Y-138935436D01*
X103348421Y-139030674D01*
X103205564Y-139173531D01*
X103157945Y-139268769D01*
X103157945Y-139364007D01*
X103396040Y-139316388D02*
X103348421Y-139411626D01*
X103253183Y-139506864D01*
X103062707Y-139554483D01*
X102729374Y-139554483D01*
X102538898Y-139506864D01*
X102443660Y-139411626D01*
X102396040Y-139316388D01*
X102396040Y-139125912D01*
X102443660Y-139030674D01*
X102538898Y-138935436D01*
X102729374Y-138887817D01*
X103062707Y-138887817D01*
X103253183Y-138935436D01*
X103348421Y-139030674D01*
X103396040Y-139125912D01*
X103396040Y-139316388D01*
X102491279Y-138506864D02*
X102443660Y-138459245D01*
X102396040Y-138364007D01*
X102396040Y-138125912D01*
X102443660Y-138030674D01*
X102491279Y-137983055D01*
X102586517Y-137935436D01*
X102681755Y-137935436D01*
X102824612Y-137983055D01*
X103396040Y-138554483D01*
X103396040Y-137935436D01*
X97702619Y-100425238D02*
X97655000Y-100520476D01*
X97559761Y-100615714D01*
X97416904Y-100758571D01*
X97369285Y-100853809D01*
X97369285Y-100949047D01*
X97607380Y-100901428D02*
X97559761Y-100996666D01*
X97464523Y-101091904D01*
X97274047Y-101139523D01*
X96940714Y-101139523D01*
X96750238Y-101091904D01*
X96655000Y-100996666D01*
X96607380Y-100901428D01*
X96607380Y-100710952D01*
X96655000Y-100615714D01*
X96750238Y-100520476D01*
X96940714Y-100472857D01*
X97274047Y-100472857D01*
X97464523Y-100520476D01*
X97559761Y-100615714D01*
X97607380Y-100710952D01*
X97607380Y-100901428D01*
X97607380Y-99520476D02*
X97607380Y-100091904D01*
X97607380Y-99806190D02*
X96607380Y-99806190D01*
X96750238Y-99901428D01*
X96845476Y-99996666D01*
X96893095Y-100091904D01*
X132192380Y-214241333D02*
X132906666Y-214241333D01*
X133049523Y-214288952D01*
X133144761Y-214384190D01*
X133192380Y-214527047D01*
X133192380Y-214622285D01*
X132192380Y-213288952D02*
X132192380Y-213765142D01*
X132668571Y-213812761D01*
X132620952Y-213765142D01*
X132573333Y-213669904D01*
X132573333Y-213431809D01*
X132620952Y-213336571D01*
X132668571Y-213288952D01*
X132763809Y-213241333D01*
X133001904Y-213241333D01*
X133097142Y-213288952D01*
X133144761Y-213336571D01*
X133192380Y-213431809D01*
X133192380Y-213669904D01*
X133144761Y-213765142D01*
X133097142Y-213812761D01*
X88946095Y-59380380D02*
X88946095Y-58380380D01*
X88946095Y-58856571D02*
X89517523Y-58856571D01*
X89517523Y-59380380D02*
X89517523Y-58380380D01*
X90422285Y-58713714D02*
X90422285Y-59380380D01*
X90184190Y-58332761D02*
X89946095Y-59047047D01*
X90565142Y-59047047D01*
X137714095Y-59380380D02*
X137714095Y-58380380D01*
X137714095Y-58856571D02*
X138285523Y-58856571D01*
X138285523Y-59380380D02*
X138285523Y-58380380D01*
X138666476Y-58380380D02*
X139285523Y-58380380D01*
X138952190Y-58761333D01*
X139095047Y-58761333D01*
X139190285Y-58808952D01*
X139237904Y-58856571D01*
X139285523Y-58951809D01*
X139285523Y-59189904D01*
X139237904Y-59285142D01*
X139190285Y-59332761D01*
X139095047Y-59380380D01*
X138809333Y-59380380D01*
X138714095Y-59332761D01*
X138666476Y-59285142D01*
X70658095Y-218892380D02*
X70658095Y-217892380D01*
X70658095Y-218368571D02*
X71229523Y-218368571D01*
X71229523Y-218892380D02*
X71229523Y-217892380D01*
X71658095Y-217987619D02*
X71705714Y-217940000D01*
X71800952Y-217892380D01*
X72039047Y-217892380D01*
X72134285Y-217940000D01*
X72181904Y-217987619D01*
X72229523Y-218082857D01*
X72229523Y-218178095D01*
X72181904Y-218320952D01*
X71610476Y-218892380D01*
X72229523Y-218892380D01*
X116378095Y-218892380D02*
X116378095Y-217892380D01*
X116378095Y-218368571D02*
X116949523Y-218368571D01*
X116949523Y-218892380D02*
X116949523Y-217892380D01*
X117949523Y-218892380D02*
X117378095Y-218892380D01*
X117663809Y-218892380D02*
X117663809Y-217892380D01*
X117568571Y-218035238D01*
X117473333Y-218130476D01*
X117378095Y-218178095D01*
X117086095Y-78916380D02*
X117086095Y-77916380D01*
X117657523Y-78916380D02*
X117228952Y-78344952D01*
X117657523Y-77916380D02*
X117086095Y-78487809D01*
D16*
X120867523Y-80625904D02*
X120867523Y-79825904D01*
X121058000Y-79825904D01*
X121172285Y-79864000D01*
X121248476Y-79940190D01*
X121286571Y-80016380D01*
X121324666Y-80168761D01*
X121324666Y-80283047D01*
X121286571Y-80435428D01*
X121248476Y-80511619D01*
X121172285Y-80587809D01*
X121058000Y-80625904D01*
X120867523Y-80625904D01*
X121591333Y-79825904D02*
X122086571Y-79825904D01*
X121819904Y-80130666D01*
X121934190Y-80130666D01*
X122010380Y-80168761D01*
X122048476Y-80206857D01*
X122086571Y-80283047D01*
X122086571Y-80473523D01*
X122048476Y-80549714D01*
X122010380Y-80587809D01*
X121934190Y-80625904D01*
X121705619Y-80625904D01*
X121629428Y-80587809D01*
X121591333Y-80549714D01*
D10*
X124706095Y-75404380D02*
X124706095Y-74404380D01*
X125277523Y-75404380D02*
X124848952Y-74832952D01*
X125277523Y-74404380D02*
X124706095Y-74975809D01*
D16*
X120267523Y-73513904D02*
X120267523Y-72713904D01*
X120458000Y-72713904D01*
X120572285Y-72752000D01*
X120648476Y-72828190D01*
X120686571Y-72904380D01*
X120724666Y-73056761D01*
X120724666Y-73171047D01*
X120686571Y-73323428D01*
X120648476Y-73399619D01*
X120572285Y-73475809D01*
X120458000Y-73513904D01*
X120267523Y-73513904D01*
X121029428Y-72790095D02*
X121067523Y-72752000D01*
X121143714Y-72713904D01*
X121334190Y-72713904D01*
X121410380Y-72752000D01*
X121448476Y-72790095D01*
X121486571Y-72866285D01*
X121486571Y-72942476D01*
X121448476Y-73056761D01*
X120991333Y-73513904D01*
X121486571Y-73513904D01*
D10*
X130913142Y-200012857D02*
X130960761Y-200060476D01*
X131008380Y-200203333D01*
X131008380Y-200298571D01*
X130960761Y-200441428D01*
X130865523Y-200536666D01*
X130770285Y-200584285D01*
X130579809Y-200631904D01*
X130436952Y-200631904D01*
X130246476Y-200584285D01*
X130151238Y-200536666D01*
X130056000Y-200441428D01*
X130008380Y-200298571D01*
X130008380Y-200203333D01*
X130056000Y-200060476D01*
X130103619Y-200012857D01*
X131008380Y-199060476D02*
X131008380Y-199631904D01*
X131008380Y-199346190D02*
X130008380Y-199346190D01*
X130151238Y-199441428D01*
X130246476Y-199536666D01*
X130294095Y-199631904D01*
X130436952Y-198489047D02*
X130389333Y-198584285D01*
X130341714Y-198631904D01*
X130246476Y-198679523D01*
X130198857Y-198679523D01*
X130103619Y-198631904D01*
X130056000Y-198584285D01*
X130008380Y-198489047D01*
X130008380Y-198298571D01*
X130056000Y-198203333D01*
X130103619Y-198155714D01*
X130198857Y-198108095D01*
X130246476Y-198108095D01*
X130341714Y-198155714D01*
X130389333Y-198203333D01*
X130436952Y-198298571D01*
X130436952Y-198489047D01*
X130484571Y-198584285D01*
X130532190Y-198631904D01*
X130627428Y-198679523D01*
X130817904Y-198679523D01*
X130913142Y-198631904D01*
X130960761Y-198584285D01*
X131008380Y-198489047D01*
X131008380Y-198298571D01*
X130960761Y-198203333D01*
X130913142Y-198155714D01*
X130817904Y-198108095D01*
X130627428Y-198108095D01*
X130532190Y-198155714D01*
X130484571Y-198203333D01*
X130436952Y-198298571D01*
D16*
X85730714Y-146970714D02*
X85692619Y-147008809D01*
X85578333Y-147046904D01*
X85502142Y-147046904D01*
X85387857Y-147008809D01*
X85311666Y-146932619D01*
X85273571Y-146856428D01*
X85235476Y-146704047D01*
X85235476Y-146589761D01*
X85273571Y-146437380D01*
X85311666Y-146361190D01*
X85387857Y-146285000D01*
X85502142Y-146246904D01*
X85578333Y-146246904D01*
X85692619Y-146285000D01*
X85730714Y-146323095D01*
X86492619Y-147046904D02*
X86035476Y-147046904D01*
X86264047Y-147046904D02*
X86264047Y-146246904D01*
X86187857Y-146361190D01*
X86111666Y-146437380D01*
X86035476Y-146475476D01*
X86759285Y-146246904D02*
X87292619Y-146246904D01*
X86949761Y-147046904D01*
D10*
X126722142Y-182232857D02*
X126769761Y-182280476D01*
X126817380Y-182423333D01*
X126817380Y-182518571D01*
X126769761Y-182661428D01*
X126674523Y-182756666D01*
X126579285Y-182804285D01*
X126388809Y-182851904D01*
X126245952Y-182851904D01*
X126055476Y-182804285D01*
X125960238Y-182756666D01*
X125865000Y-182661428D01*
X125817380Y-182518571D01*
X125817380Y-182423333D01*
X125865000Y-182280476D01*
X125912619Y-182232857D01*
X126817380Y-181280476D02*
X126817380Y-181851904D01*
X126817380Y-181566190D02*
X125817380Y-181566190D01*
X125960238Y-181661428D01*
X126055476Y-181756666D01*
X126103095Y-181851904D01*
X126150714Y-180423333D02*
X126817380Y-180423333D01*
X125769761Y-180661428D02*
X126484047Y-180899523D01*
X126484047Y-180280476D01*
D15*
X113156428Y-188866428D02*
X113120238Y-188902619D01*
X113011666Y-188938809D01*
X112939285Y-188938809D01*
X112830714Y-188902619D01*
X112758333Y-188830238D01*
X112722142Y-188757857D01*
X112685952Y-188613095D01*
X112685952Y-188504523D01*
X112722142Y-188359761D01*
X112758333Y-188287380D01*
X112830714Y-188215000D01*
X112939285Y-188178809D01*
X113011666Y-188178809D01*
X113120238Y-188215000D01*
X113156428Y-188251190D01*
X113880238Y-188938809D02*
X113445952Y-188938809D01*
X113663095Y-188938809D02*
X113663095Y-188178809D01*
X113590714Y-188287380D01*
X113518333Y-188359761D01*
X113445952Y-188395952D01*
X114133571Y-188178809D02*
X114604047Y-188178809D01*
X114350714Y-188468333D01*
X114459285Y-188468333D01*
X114531666Y-188504523D01*
X114567857Y-188540714D01*
X114604047Y-188613095D01*
X114604047Y-188794047D01*
X114567857Y-188866428D01*
X114531666Y-188902619D01*
X114459285Y-188938809D01*
X114242142Y-188938809D01*
X114169761Y-188902619D01*
X114133571Y-188866428D01*
D10*
X113641142Y-162734857D02*
X113688761Y-162782476D01*
X113736380Y-162925333D01*
X113736380Y-163020571D01*
X113688761Y-163163428D01*
X113593523Y-163258666D01*
X113498285Y-163306285D01*
X113307809Y-163353904D01*
X113164952Y-163353904D01*
X112974476Y-163306285D01*
X112879238Y-163258666D01*
X112784000Y-163163428D01*
X112736380Y-163020571D01*
X112736380Y-162925333D01*
X112784000Y-162782476D01*
X112831619Y-162734857D01*
X113736380Y-161782476D02*
X113736380Y-162353904D01*
X113736380Y-162068190D02*
X112736380Y-162068190D01*
X112879238Y-162163428D01*
X112974476Y-162258666D01*
X113022095Y-162353904D01*
X112831619Y-161401523D02*
X112784000Y-161353904D01*
X112736380Y-161258666D01*
X112736380Y-161020571D01*
X112784000Y-160925333D01*
X112831619Y-160877714D01*
X112926857Y-160830095D01*
X113022095Y-160830095D01*
X113164952Y-160877714D01*
X113736380Y-161449142D01*
X113736380Y-160830095D01*
D17*
X133932571Y-110593428D02*
X133976380Y-110637238D01*
X134020190Y-110768666D01*
X134020190Y-110856285D01*
X133976380Y-110987714D01*
X133888761Y-111075333D01*
X133801142Y-111119142D01*
X133625904Y-111162952D01*
X133494476Y-111162952D01*
X133319238Y-111119142D01*
X133231619Y-111075333D01*
X133144000Y-110987714D01*
X133100190Y-110856285D01*
X133100190Y-110768666D01*
X133144000Y-110637238D01*
X133187809Y-110593428D01*
X134020190Y-109717238D02*
X134020190Y-110242952D01*
X134020190Y-109980095D02*
X133100190Y-109980095D01*
X133231619Y-110067714D01*
X133319238Y-110155333D01*
X133363047Y-110242952D01*
X133100190Y-109147714D02*
X133100190Y-109060095D01*
X133144000Y-108972476D01*
X133187809Y-108928666D01*
X133275428Y-108884857D01*
X133450666Y-108841047D01*
X133669714Y-108841047D01*
X133844952Y-108884857D01*
X133932571Y-108928666D01*
X133976380Y-108972476D01*
X134020190Y-109060095D01*
X134020190Y-109147714D01*
X133976380Y-109235333D01*
X133932571Y-109279142D01*
X133844952Y-109322952D01*
X133669714Y-109366761D01*
X133450666Y-109366761D01*
X133275428Y-109322952D01*
X133187809Y-109279142D01*
X133144000Y-109235333D01*
X133100190Y-109147714D01*
D10*
X112625142Y-118998666D02*
X112672761Y-119046285D01*
X112720380Y-119189142D01*
X112720380Y-119284380D01*
X112672761Y-119427238D01*
X112577523Y-119522476D01*
X112482285Y-119570095D01*
X112291809Y-119617714D01*
X112148952Y-119617714D01*
X111958476Y-119570095D01*
X111863238Y-119522476D01*
X111768000Y-119427238D01*
X111720380Y-119284380D01*
X111720380Y-119189142D01*
X111768000Y-119046285D01*
X111815619Y-118998666D01*
X112148952Y-118427238D02*
X112101333Y-118522476D01*
X112053714Y-118570095D01*
X111958476Y-118617714D01*
X111910857Y-118617714D01*
X111815619Y-118570095D01*
X111768000Y-118522476D01*
X111720380Y-118427238D01*
X111720380Y-118236761D01*
X111768000Y-118141523D01*
X111815619Y-118093904D01*
X111910857Y-118046285D01*
X111958476Y-118046285D01*
X112053714Y-118093904D01*
X112101333Y-118141523D01*
X112148952Y-118236761D01*
X112148952Y-118427238D01*
X112196571Y-118522476D01*
X112244190Y-118570095D01*
X112339428Y-118617714D01*
X112529904Y-118617714D01*
X112625142Y-118570095D01*
X112672761Y-118522476D01*
X112720380Y-118427238D01*
X112720380Y-118236761D01*
X112672761Y-118141523D01*
X112625142Y-118093904D01*
X112529904Y-118046285D01*
X112339428Y-118046285D01*
X112244190Y-118093904D01*
X112196571Y-118141523D01*
X112148952Y-118236761D01*
X131873333Y-80621142D02*
X131825714Y-80668761D01*
X131682857Y-80716380D01*
X131587619Y-80716380D01*
X131444761Y-80668761D01*
X131349523Y-80573523D01*
X131301904Y-80478285D01*
X131254285Y-80287809D01*
X131254285Y-80144952D01*
X131301904Y-79954476D01*
X131349523Y-79859238D01*
X131444761Y-79764000D01*
X131587619Y-79716380D01*
X131682857Y-79716380D01*
X131825714Y-79764000D01*
X131873333Y-79811619D01*
X132730476Y-79716380D02*
X132540000Y-79716380D01*
X132444761Y-79764000D01*
X132397142Y-79811619D01*
X132301904Y-79954476D01*
X132254285Y-80144952D01*
X132254285Y-80525904D01*
X132301904Y-80621142D01*
X132349523Y-80668761D01*
X132444761Y-80716380D01*
X132635238Y-80716380D01*
X132730476Y-80668761D01*
X132778095Y-80621142D01*
X132825714Y-80525904D01*
X132825714Y-80287809D01*
X132778095Y-80192571D01*
X132730476Y-80144952D01*
X132635238Y-80097333D01*
X132444761Y-80097333D01*
X132349523Y-80144952D01*
X132301904Y-80192571D01*
X132254285Y-80287809D01*
D15*
X130954428Y-89260666D02*
X130990619Y-89296857D01*
X131026809Y-89405428D01*
X131026809Y-89477809D01*
X130990619Y-89586380D01*
X130918238Y-89658761D01*
X130845857Y-89694952D01*
X130701095Y-89731142D01*
X130592523Y-89731142D01*
X130447761Y-89694952D01*
X130375380Y-89658761D01*
X130303000Y-89586380D01*
X130266809Y-89477809D01*
X130266809Y-89405428D01*
X130303000Y-89296857D01*
X130339190Y-89260666D01*
X130266809Y-88573047D02*
X130266809Y-88934952D01*
X130628714Y-88971142D01*
X130592523Y-88934952D01*
X130556333Y-88862571D01*
X130556333Y-88681619D01*
X130592523Y-88609238D01*
X130628714Y-88573047D01*
X130701095Y-88536857D01*
X130882047Y-88536857D01*
X130954428Y-88573047D01*
X130990619Y-88609238D01*
X131026809Y-88681619D01*
X131026809Y-88862571D01*
X130990619Y-88934952D01*
X130954428Y-88971142D01*
D17*
X104006666Y-94308571D02*
X103962857Y-94352380D01*
X103831428Y-94396190D01*
X103743809Y-94396190D01*
X103612380Y-94352380D01*
X103524761Y-94264761D01*
X103480952Y-94177142D01*
X103437142Y-94001904D01*
X103437142Y-93870476D01*
X103480952Y-93695238D01*
X103524761Y-93607619D01*
X103612380Y-93520000D01*
X103743809Y-93476190D01*
X103831428Y-93476190D01*
X103962857Y-93520000D01*
X104006666Y-93563809D01*
X104795238Y-93782857D02*
X104795238Y-94396190D01*
X104576190Y-93432380D02*
X104357142Y-94089523D01*
X104926666Y-94089523D01*
D10*
X87225142Y-75366666D02*
X87272761Y-75414285D01*
X87320380Y-75557142D01*
X87320380Y-75652380D01*
X87272761Y-75795238D01*
X87177523Y-75890476D01*
X87082285Y-75938095D01*
X86891809Y-75985714D01*
X86748952Y-75985714D01*
X86558476Y-75938095D01*
X86463238Y-75890476D01*
X86368000Y-75795238D01*
X86320380Y-75652380D01*
X86320380Y-75557142D01*
X86368000Y-75414285D01*
X86415619Y-75366666D01*
X86320380Y-75033333D02*
X86320380Y-74414285D01*
X86701333Y-74747619D01*
X86701333Y-74604761D01*
X86748952Y-74509523D01*
X86796571Y-74461904D01*
X86891809Y-74414285D01*
X87129904Y-74414285D01*
X87225142Y-74461904D01*
X87272761Y-74509523D01*
X87320380Y-74604761D01*
X87320380Y-74890476D01*
X87272761Y-74985714D01*
X87225142Y-75033333D01*
X77791333Y-65381142D02*
X77743714Y-65428761D01*
X77600857Y-65476380D01*
X77505619Y-65476380D01*
X77362761Y-65428761D01*
X77267523Y-65333523D01*
X77219904Y-65238285D01*
X77172285Y-65047809D01*
X77172285Y-64904952D01*
X77219904Y-64714476D01*
X77267523Y-64619238D01*
X77362761Y-64524000D01*
X77505619Y-64476380D01*
X77600857Y-64476380D01*
X77743714Y-64524000D01*
X77791333Y-64571619D01*
X78743714Y-65476380D02*
X78172285Y-65476380D01*
X78458000Y-65476380D02*
X78458000Y-64476380D01*
X78362761Y-64619238D01*
X78267523Y-64714476D01*
X78172285Y-64762095D01*
M02*
